  0
SECTION
  2
HEADER
  9
$ACADVER
  1
AC1009
  9
$EXTMIN
 10
0.0
 20
0.0
 30
0.0
  9
$EXTMAX
 10
1000.0
 20
1000.0
 30
0.0
  9
$FILLMODE
 70
 0
  9
$SPLFRAME
 70
 1
  0
ENDSEC
  0
SECTION
  2
TABLES
  0
TABLE
  2
LAYER
 70
1
  0
LAYER
  2
0
 70
     0
 62
     7
  6
CONTINUOUS
  0
ENDTAB
  0
ENDSEC
  0
SECTION
  2
ENTITIES
  0
POLYLINE
  8
0
 62
     5
 66
     1
 10
0
 20
0
 30
0.0
 70
     1
 40
0.107136
 41
0.107136
  0
VERTEX
  8
0
 10
0.0393881
 20
0.0393338
 30
0.0
 40
0.001488
 41
0.001488
  0
VERTEX
  8
0
 10
0.0393881
 20
7.91336
 30
0.0
 40
0.001488
 41
0.001488
  0
VERTEX
  8
0
 10
6.53543
 20
7.91336
 30
0.0
 40
0.001488
 41
0.001488
  0
VERTEX
  8
0
 10
6.53543
 20
0.0393338
 30
0.0
 40
0.001488
 41
0.001488
  0
VERTEX
  8
0
 10
0.0393881
 20
0.0393338
 30
0.0
 40
0.001488
 41
0.001488
  0
SEQEND
 8
0
  0
POLYLINE
  8
0
 62
     5
 66
     1
 10
0
 20
0
 30
0.0
 70
     1
 40
0.107136
 41
0.107136
  0
VERTEX
  8
0
 10
3.39985
 20
7.58171
 30
0.0
 40
0.001488
 41
0.001488
  0
VERTEX
  8
0
 10
3.4056
 20
7.61817
 30
0.0
 40
0.001488
 41
0.001488
  0
VERTEX
  8
0
 10
3.39985
 20
7.65468
 30
0.0
 40
0.001488
 41
0.001488
  0
VERTEX
  8
0
 10
3.38303
 20
7.68761
 30
0.0
 40
0.001488
 41
0.001488
  0
VERTEX
  8
0
 10
3.35688
 20
7.71371
 30
0.0
 40
0.001488
 41
0.001488
  0
VERTEX
  8
0
 10
3.32394
 20
7.73053
 30
0.0
 40
0.001488
 41
0.001488
  0
VERTEX
  8
0
 10
3.32281
 20
7.73074
 30
0.0
 40
0.001488
 41
0.001488
  0
VERTEX
  8
0
 10
3.28737
 20
7.73628
 30
0.0
 40
0.001488
 41
0.001488
  0
VERTEX
  8
0
 10
3.25088
 20
7.73053
 30
0.0
 40
0.001488
 41
0.001488
  0
VERTEX
  8
0
 10
3.21793
 20
7.71371
 30
0.0
 40
0.001488
 41
0.001488
  0
VERTEX
  8
0
 10
3.19179
 20
7.68761
 30
0.0
 40
0.001488
 41
0.001488
  0
VERTEX
  8
0
 10
3.17497
 20
7.65468
 30
0.0
 40
0.001488
 41
0.001488
  0
VERTEX
  8
0
 10
3.16917
 20
7.61817
 30
0.0
 40
0.001488
 41
0.001488
  0
VERTEX
  8
0
 10
3.17497
 20
7.58171
 30
0.0
 40
0.001488
 41
0.001488
  0
VERTEX
  8
0
 10
3.19179
 20
7.54878
 30
0.0
 40
0.001488
 41
0.001488
  0
VERTEX
  8
0
 10
3.21793
 20
7.52263
 30
0.0
 40
0.001488
 41
0.001488
  0
VERTEX
  8
0
 10
3.25088
 20
7.50586
 30
0.0
 40
0.001488
 41
0.001488
  0
VERTEX
  8
0
 10
3.28737
 20
7.50006
 30
0.0
 40
0.001488
 41
0.001488
  0
VERTEX
  8
0
 10
3.32281
 20
7.50569
 30
0.0
 40
0.001488
 41
0.001488
  0
VERTEX
  8
0
 10
3.32394
 20
7.50586
 30
0.0
 40
0.001488
 41
0.001488
  0
VERTEX
  8
0
 10
3.35688
 20
7.52263
 30
0.0
 40
0.001488
 41
0.001488
  0
VERTEX
  8
0
 10
3.38303
 20
7.54878
 30
0.0
 40
0.001488
 41
0.001488
  0
VERTEX
  8
0
 10
3.39985
 20
7.58171
 30
0.0
 40
0.001488
 41
0.001488
  0
SEQEND
 8
0
  0
POLYLINE
  8
0
 62
     5
 66
     1
 10
0
 20
0
 30
0.0
 70
     1
 40
0.107136
 41
0.107136
  0
VERTEX
  8
0
 10
6.35292
 20
3.94206
 30
0.0
 40
0.001488
 41
0.001488
  0
VERTEX
  8
0
 10
6.35835
 20
3.97635
 30
0.0
 40
0.001488
 41
0.001488
  0
VERTEX
  8
0
 10
6.3526
 20
4.01292
 30
0.0
 40
0.001488
 41
0.001488
  0
VERTEX
  8
0
 10
6.33583
 20
4.04585
 30
0.0
 40
0.001488
 41
0.001488
  0
VERTEX
  8
0
 10
6.30968
 20
4.072
 30
0.0
 40
0.001488
 41
0.001488
  0
VERTEX
  8
0
 10
6.27675
 20
4.08876
 30
0.0
 40
0.001488
 41
0.001488
  0
VERTEX
  8
0
 10
6.24024
 20
4.09457
 30
0.0
 40
0.001488
 41
0.001488
  0
VERTEX
  8
0
 10
6.20372
 20
4.08876
 30
0.0
 40
0.001488
 41
0.001488
  0
VERTEX
  8
0
 10
6.17085
 20
4.072
 30
0.0
 40
0.001488
 41
0.001488
  0
VERTEX
  8
0
 10
6.14469
 20
4.04585
 30
0.0
 40
0.001488
 41
0.001488
  0
VERTEX
  8
0
 10
6.12793
 20
4.01292
 30
0.0
 40
0.001488
 41
0.001488
  0
VERTEX
  8
0
 10
6.12213
 20
3.97635
 30
0.0
 40
0.001488
 41
0.001488
  0
VERTEX
  8
0
 10
6.12756
 20
3.94206
 30
0.0
 40
0.001488
 41
0.001488
  0
VERTEX
  8
0
 10
6.12793
 20
3.93983
 30
0.0
 40
0.001488
 41
0.001488
  0
VERTEX
  8
0
 10
6.14469
 20
3.9069
 30
0.0
 40
0.001488
 41
0.001488
  0
VERTEX
  8
0
 10
6.17085
 20
3.88075
 30
0.0
 40
0.001488
 41
0.001488
  0
VERTEX
  8
0
 10
6.20372
 20
3.86393
 30
0.0
 40
0.001488
 41
0.001488
  0
VERTEX
  8
0
 10
6.24024
 20
3.85813
 30
0.0
 40
0.001488
 41
0.001488
  0
VERTEX
  8
0
 10
6.27675
 20
3.86393
 30
0.0
 40
0.001488
 41
0.001488
  0
VERTEX
  8
0
 10
6.30968
 20
3.88075
 30
0.0
 40
0.001488
 41
0.001488
  0
VERTEX
  8
0
 10
6.33583
 20
3.9069
 30
0.0
 40
0.001488
 41
0.001488
  0
VERTEX
  8
0
 10
6.3526
 20
3.93983
 30
0.0
 40
0.001488
 41
0.001488
  0
VERTEX
  8
0
 10
6.35292
 20
3.94206
 30
0.0
 40
0.001488
 41
0.001488
  0
SEQEND
 8
0
  0
POLYLINE
  8
0
 62
     5
 66
     1
 10
0
 20
0
 30
0.0
 70
     1
 40
0.107136
 41
0.107136
  0
VERTEX
  8
0
 10
3.39985
 20
0.298068
 30
0.0
 40
0.001488
 41
0.001488
  0
VERTEX
  8
0
 10
3.4056
 20
0.334581
 30
0.0
 40
0.001488
 41
0.001488
  0
VERTEX
  8
0
 10
3.39985
 20
0.371039
 30
0.0
 40
0.001488
 41
0.001488
  0
VERTEX
  8
0
 10
3.38303
 20
0.403971
 30
0.0
 40
0.001488
 41
0.001488
  0
VERTEX
  8
0
 10
3.35688
 20
0.430122
 30
0.0
 40
0.001488
 41
0.001488
  0
VERTEX
  8
0
 10
3.32394
 20
0.446886
 30
0.0
 40
0.001488
 41
0.001488
  0
VERTEX
  8
0
 10
3.32281
 20
0.447049
 30
0.0
 40
0.001488
 41
0.001488
  0
VERTEX
  8
0
 10
3.28737
 20
0.452692
 30
0.0
 40
0.001488
 41
0.001488
  0
VERTEX
  8
0
 10
3.25088
 20
0.446886
 30
0.0
 40
0.001488
 41
0.001488
  0
VERTEX
  8
0
 10
3.21793
 20
0.430122
 30
0.0
 40
0.001488
 41
0.001488
  0
VERTEX
  8
0
 10
3.19179
 20
0.403971
 30
0.0
 40
0.001488
 41
0.001488
  0
VERTEX
  8
0
 10
3.17497
 20
0.371039
 30
0.0
 40
0.001488
 41
0.001488
  0
VERTEX
  8
0
 10
3.16917
 20
0.334581
 30
0.0
 40
0.001488
 41
0.001488
  0
VERTEX
  8
0
 10
3.17497
 20
0.298068
 30
0.0
 40
0.001488
 41
0.001488
  0
VERTEX
  8
0
 10
3.19179
 20
0.265082
 30
0.0
 40
0.001488
 41
0.001488
  0
VERTEX
  8
0
 10
3.21793
 20
0.238986
 30
0.0
 40
0.001488
 41
0.001488
  0
VERTEX
  8
0
 10
3.25088
 20
0.222168
 30
0.0
 40
0.001488
 41
0.001488
  0
VERTEX
  8
0
 10
3.28737
 20
0.216471
 30
0.0
 40
0.001488
 41
0.001488
  0
VERTEX
  8
0
 10
3.32281
 20
0.222006
 30
0.0
 40
0.001488
 41
0.001488
  0
VERTEX
  8
0
 10
3.32394
 20
0.222168
 30
0.0
 40
0.001488
 41
0.001488
  0
VERTEX
  8
0
 10
3.35688
 20
0.238986
 30
0.0
 40
0.001488
 41
0.001488
  0
VERTEX
  8
0
 10
3.38303
 20
0.265082
 30
0.0
 40
0.001488
 41
0.001488
  0
VERTEX
  8
0
 10
3.39985
 20
0.298068
 30
0.0
 40
0.001488
 41
0.001488
  0
SEQEND
 8
0
  0
POLYLINE
  8
0
 62
     5
 66
     1
 10
0
 20
0
 30
0.0
 70
     1
 40
0.107136
 41
0.107136
  0
VERTEX
  8
0
 10
0.222222
 20
4.01292
 30
0.0
 40
0.001488
 41
0.001488
  0
VERTEX
  8
0
 10
0.238986
 20
4.04585
 30
0.0
 40
0.001488
 41
0.001488
  0
VERTEX
  8
0
 10
0.265136
 20
4.072
 30
0.0
 40
0.001488
 41
0.001488
  0
VERTEX
  8
0
 10
0.298014
 20
4.08876
 30
0.0
 40
0.001488
 41
0.001488
  0
VERTEX
  8
0
 10
0.334581
 20
4.09457
 30
0.0
 40
0.001488
 41
0.001488
  0
VERTEX
  8
0
 10
0.371039
 20
4.08876
 30
0.0
 40
0.001488
 41
0.001488
  0
VERTEX
  8
0
 10
0.403971
 20
4.072
 30
0.0
 40
0.001488
 41
0.001488
  0
VERTEX
  8
0
 10
0.430122
 20
4.04585
 30
0.0
 40
0.001488
 41
0.001488
  0
VERTEX
  8
0
 10
0.446886
 20
4.01292
 30
0.0
 40
0.001488
 41
0.001488
  0
VERTEX
  8
0
 10
0.452692
 20
3.97635
 30
0.0
 40
0.001488
 41
0.001488
  0
VERTEX
  8
0
 10
0.447265
 20
3.94206
 30
0.0
 40
0.001488
 41
0.001488
  0
VERTEX
  8
0
 10
0.446886
 20
3.93983
 30
0.0
 40
0.001488
 41
0.001488
  0
VERTEX
  8
0
 10
0.430122
 20
3.9069
 30
0.0
 40
0.001488
 41
0.001488
  0
VERTEX
  8
0
 10
0.403971
 20
3.88075
 30
0.0
 40
0.001488
 41
0.001488
  0
VERTEX
  8
0
 10
0.371039
 20
3.86393
 30
0.0
 40
0.001488
 41
0.001488
  0
VERTEX
  8
0
 10
0.334581
 20
3.85813
 30
0.0
 40
0.001488
 41
0.001488
  0
VERTEX
  8
0
 10
0.298014
 20
3.86393
 30
0.0
 40
0.001488
 41
0.001488
  0
VERTEX
  8
0
 10
0.265136
 20
3.88075
 30
0.0
 40
0.001488
 41
0.001488
  0
VERTEX
  8
0
 10
0.238986
 20
3.9069
 30
0.0
 40
0.001488
 41
0.001488
  0
VERTEX
  8
0
 10
0.222222
 20
3.93983
 30
0.0
 40
0.001488
 41
0.001488
  0
VERTEX
  8
0
 10
0.221843
 20
3.94206
 30
0.0
 40
0.001488
 41
0.001488
  0
VERTEX
  8
0
 10
0.216417
 20
3.97635
 30
0.0
 40
0.001488
 41
0.001488
  0
VERTEX
  8
0
 10
0.222222
 20
4.01292
 30
0.0
 40
0.001488
 41
0.001488
  0
SEQEND
 8
0
  0
POLYLINE
  8
0
 62
     5
 66
     1
 10
0
 20
0
 30
0.0
 70
     1
 40
0.107136
 41
0.107136
  0
VERTEX
  8
0
 10
0.216417
 20
3.85813
 30
0.0
 40
0.001488
 41
0.001488
  0
VERTEX
  8
0
 10
0.452692
 20
3.85813
 30
0.0
 40
0.001488
 41
0.001488
  0
VERTEX
  8
0
 10
0.452692
 20
4.09457
 30
0.0
 40
0.001488
 41
0.001488
  0
VERTEX
  8
0
 10
0.216417
 20
4.09457
 30
0.0
 40
0.001488
 41
0.001488
  0
VERTEX
  8
0
 10
0.216417
 20
3.85813
 30
0.0
 40
0.001488
 41
0.001488
  0
SEQEND
 8
0
  0
ENDSEC
  0
EOF
