  0
SECTION
  2
HEADER
  9
$ACADVER
  1
AC1009
  9
$EXTMIN
 10
0.0
 20
0.0
 30
0.0
  9
$EXTMAX
 10
1000.0
 20
1000.0
 30
0.0
  9
$FILLMODE
 70
 0
  9
$SPLFRAME
 70
 1
  0
ENDSEC
  0
SECTION
  2
TABLES
  0
TABLE
  2
LAYER
 70
1
  0
LAYER
  2
0
 70
     0
 62
     7
  6
CONTINUOUS
  0
ENDTAB
  0
ENDSEC
  0
SECTION
  2
ENTITIES
  0
POLYLINE
  8
0
 62
     5
 66
     1
 10
0
 20
0
 30
0.0
 70
     1
 40
0.107136
 41
0.107136
  0
VERTEX
  8
0
 10
0.0393881
 20
0.0393338
 30
0.0
 40
0.001488
 41
0.001488
  0
VERTEX
  8
0
 10
0.0393881
 20
9.21257
 30
0.0
 40
0.001488
 41
0.001488
  0
VERTEX
  8
0
 10
7.91342
 20
9.21257
 30
0.0
 40
0.001488
 41
0.001488
  0
VERTEX
  8
0
 10
7.91342
 20
0.0393338
 30
0.0
 40
0.001488
 41
0.001488
  0
VERTEX
  8
0
 10
0.0393881
 20
0.0393338
 30
0.0
 40
0.001488
 41
0.001488
  0
SEQEND
 8
0
  0
POLYLINE
  8
0
 62
     5
 66
     1
 10
0
 20
0
 30
0.0
 70
     1
 40
0.107136
 41
0.107136
  0
VERTEX
  8
0
 10
4.96799
 20
1.09429
 30
0.0
 40
0.001488
 41
0.001488
  0
VERTEX
  8
0
 10
5.02143
 20
1.13992
 30
0.0
 40
0.001488
 41
0.001488
  0
VERTEX
  8
0
 10
5.06711
 20
1.19336
 30
0.0
 40
0.001488
 41
0.001488
  0
VERTEX
  8
0
 10
5.10379
 20
1.25331
 30
0.0
 40
0.001488
 41
0.001488
  0
VERTEX
  8
0
 10
5.12864
 20
1.31337
 30
0.0
 40
0.001488
 41
0.001488
  0
VERTEX
  8
0
 10
5.13064
 20
1.3182
 30
0.0
 40
0.001488
 41
0.001488
  0
VERTEX
  8
0
 10
5.14708
 20
1.38656
 30
0.0
 40
0.001488
 41
0.001488
  0
VERTEX
  8
0
 10
5.15261
 20
1.4566
 30
0.0
 40
0.001488
 41
0.001488
  0
VERTEX
  8
0
 10
5.14708
 20
1.52664
 30
0.0
 40
0.001488
 41
0.001488
  0
VERTEX
  8
0
 10
5.13064
 20
1.595
 30
0.0
 40
0.001488
 41
0.001488
  0
VERTEX
  8
0
 10
5.12864
 20
1.59983
 30
0.0
 40
0.001488
 41
0.001488
  0
VERTEX
  8
0
 10
5.10379
 20
1.65989
 30
0.0
 40
0.001488
 41
0.001488
  0
VERTEX
  8
0
 10
5.07781
 20
1.70236
 30
0.0
 40
0.001488
 41
0.001488
  0
VERTEX
  8
0
 10
5.06711
 20
1.71983
 30
0.0
 40
0.001488
 41
0.001488
  0
VERTEX
  8
0
 10
5.02143
 20
1.77328
 30
0.0
 40
0.001488
 41
0.001488
  0
VERTEX
  8
0
 10
4.96799
 20
1.8189
 30
0.0
 40
0.001488
 41
0.001488
  0
VERTEX
  8
0
 10
4.9081
 20
1.85562
 30
0.0
 40
0.001488
 41
0.001488
  0
VERTEX
  8
0
 10
4.84315
 20
1.88249
 30
0.0
 40
0.001488
 41
0.001488
  0
VERTEX
  8
0
 10
4.77479
 20
1.89893
 30
0.0
 40
0.001488
 41
0.001488
  0
VERTEX
  8
0
 10
4.70475
 20
1.90446
 30
0.0
 40
0.001488
 41
0.001488
  0
VERTEX
  8
0
 10
4.63471
 20
1.89893
 30
0.0
 40
0.001488
 41
0.001488
  0
VERTEX
  8
0
 10
4.56635
 20
1.88249
 30
0.0
 40
0.001488
 41
0.001488
  0
VERTEX
  8
0
 10
4.50142
 20
1.85562
 30
0.0
 40
0.001488
 41
0.001488
  0
VERTEX
  8
0
 10
4.48361
 20
1.84472
 30
0.0
 40
0.001488
 41
0.001488
  0
VERTEX
  8
0
 10
4.44151
 20
1.8189
 30
0.0
 40
0.001488
 41
0.001488
  0
VERTEX
  8
0
 10
4.38807
 20
1.77328
 30
0.0
 40
0.001488
 41
0.001488
  0
VERTEX
  8
0
 10
4.34239
 20
1.71983
 30
0.0
 40
0.001488
 41
0.001488
  0
VERTEX
  8
0
 10
4.33171
 20
1.70236
 30
0.0
 40
0.001488
 41
0.001488
  0
VERTEX
  8
0
 10
4.30572
 20
1.65989
 30
0.0
 40
0.001488
 41
0.001488
  0
VERTEX
  8
0
 10
4.27881
 20
1.595
 30
0.0
 40
0.001488
 41
0.001488
  0
VERTEX
  8
0
 10
4.26243
 20
1.52664
 30
0.0
 40
0.001488
 41
0.001488
  0
VERTEX
  8
0
 10
4.25689
 20
1.4566
 30
0.0
 40
0.001488
 41
0.001488
  0
VERTEX
  8
0
 10
4.26243
 20
1.38656
 30
0.0
 40
0.001488
 41
0.001488
  0
VERTEX
  8
0
 10
4.27881
 20
1.3182
 30
0.0
 40
0.001488
 41
0.001488
  0
VERTEX
  8
0
 10
4.30572
 20
1.25331
 30
0.0
 40
0.001488
 41
0.001488
  0
VERTEX
  8
0
 10
4.34239
 20
1.19336
 30
0.0
 40
0.001488
 41
0.001488
  0
VERTEX
  8
0
 10
4.38807
 20
1.13992
 30
0.0
 40
0.001488
 41
0.001488
  0
VERTEX
  8
0
 10
4.44151
 20
1.09429
 30
0.0
 40
0.001488
 41
0.001488
  0
VERTEX
  8
0
 10
4.48361
 20
1.06847
 30
0.0
 40
0.001488
 41
0.001488
  0
VERTEX
  8
0
 10
4.50142
 20
1.05756
 30
0.0
 40
0.001488
 41
0.001488
  0
VERTEX
  8
0
 10
4.50206
 20
1.05729
 30
0.0
 40
0.001488
 41
0.001488
  0
VERTEX
  8
0
 10
4.56635
 20
1.03071
 30
0.0
 40
0.001488
 41
0.001488
  0
VERTEX
  8
0
 10
4.63471
 20
1.01427
 30
0.0
 40
0.001488
 41
0.001488
  0
VERTEX
  8
0
 10
4.70475
 20
1.00879
 30
0.0
 40
0.001488
 41
0.001488
  0
VERTEX
  8
0
 10
4.77479
 20
1.01427
 30
0.0
 40
0.001488
 41
0.001488
  0
VERTEX
  8
0
 10
4.84315
 20
1.03071
 30
0.0
 40
0.001488
 41
0.001488
  0
VERTEX
  8
0
 10
4.90739
 20
1.05729
 30
0.0
 40
0.001488
 41
0.001488
  0
VERTEX
  8
0
 10
4.9081
 20
1.05756
 30
0.0
 40
0.001488
 41
0.001488
  0
VERTEX
  8
0
 10
4.96799
 20
1.09429
 30
0.0
 40
0.001488
 41
0.001488
  0
SEQEND
 8
0
  0
POLYLINE
  8
0
 62
     5
 66
     1
 10
0
 20
0
 30
0.0
 70
     1
 40
0.107136
 41
0.107136
  0
VERTEX
  8
0
 10
6.23156
 20
1.89893
 30
0.0
 40
0.001488
 41
0.001488
  0
VERTEX
  8
0
 10
6.16151
 20
1.90446
 30
0.0
 40
0.001488
 41
0.001488
  0
VERTEX
  8
0
 10
6.09147
 20
1.89893
 30
0.0
 40
0.001488
 41
0.001488
  0
VERTEX
  8
0
 10
6.02311
 20
1.88249
 30
0.0
 40
0.001488
 41
0.001488
  0
VERTEX
  8
0
 10
5.95817
 20
1.85562
 30
0.0
 40
0.001488
 41
0.001488
  0
VERTEX
  8
0
 10
5.89828
 20
1.8189
 30
0.0
 40
0.001488
 41
0.001488
  0
VERTEX
  8
0
 10
5.84483
 20
1.77328
 30
0.0
 40
0.001488
 41
0.001488
  0
VERTEX
  8
0
 10
5.79915
 20
1.71983
 30
0.0
 40
0.001488
 41
0.001488
  0
VERTEX
  8
0
 10
5.78847
 20
1.70236
 30
0.0
 40
0.001488
 41
0.001488
  0
VERTEX
  8
0
 10
5.77371
 20
1.67822
 30
0.0
 40
0.001488
 41
0.001488
  0
VERTEX
  8
0
 10
5.76247
 20
1.65989
 30
0.0
 40
0.001488
 41
0.001488
  0
VERTEX
  8
0
 10
5.73557
 20
1.595
 30
0.0
 40
0.001488
 41
0.001488
  0
VERTEX
  8
0
 10
5.71918
 20
1.52664
 30
0.0
 40
0.001488
 41
0.001488
  0
VERTEX
  8
0
 10
5.71365
 20
1.4566
 30
0.0
 40
0.001488
 41
0.001488
  0
VERTEX
  8
0
 10
5.71918
 20
1.38656
 30
0.0
 40
0.001488
 41
0.001488
  0
VERTEX
  8
0
 10
5.73557
 20
1.3182
 30
0.0
 40
0.001488
 41
0.001488
  0
VERTEX
  8
0
 10
5.76247
 20
1.25331
 30
0.0
 40
0.001488
 41
0.001488
  0
VERTEX
  8
0
 10
5.77371
 20
1.23497
 30
0.0
 40
0.001488
 41
0.001488
  0
VERTEX
  8
0
 10
5.79915
 20
1.19336
 30
0.0
 40
0.001488
 41
0.001488
  0
VERTEX
  8
0
 10
5.84483
 20
1.13992
 30
0.0
 40
0.001488
 41
0.001488
  0
VERTEX
  8
0
 10
5.89828
 20
1.09429
 30
0.0
 40
0.001488
 41
0.001488
  0
VERTEX
  8
0
 10
5.95817
 20
1.05756
 30
0.0
 40
0.001488
 41
0.001488
  0
VERTEX
  8
0
 10
5.95888
 20
1.05729
 30
0.0
 40
0.001488
 41
0.001488
  0
VERTEX
  8
0
 10
6.02311
 20
1.03071
 30
0.0
 40
0.001488
 41
0.001488
  0
VERTEX
  8
0
 10
6.09147
 20
1.01427
 30
0.0
 40
0.001488
 41
0.001488
  0
VERTEX
  8
0
 10
6.16151
 20
1.00879
 30
0.0
 40
0.001488
 41
0.001488
  0
VERTEX
  8
0
 10
6.23156
 20
1.01427
 30
0.0
 40
0.001488
 41
0.001488
  0
VERTEX
  8
0
 10
6.29986
 20
1.03071
 30
0.0
 40
0.001488
 41
0.001488
  0
VERTEX
  8
0
 10
6.36415
 20
1.05729
 30
0.0
 40
0.001488
 41
0.001488
  0
VERTEX
  8
0
 10
6.36481
 20
1.05756
 30
0.0
 40
0.001488
 41
0.001488
  0
VERTEX
  8
0
 10
6.41872
 20
1.0906
 30
0.0
 40
0.001488
 41
0.001488
  0
VERTEX
  8
0
 10
6.42475
 20
1.09429
 30
0.0
 40
0.001488
 41
0.001488
  0
VERTEX
  8
0
 10
6.47814
 20
1.13992
 30
0.0
 40
0.001488
 41
0.001488
  0
VERTEX
  8
0
 10
6.52382
 20
1.19336
 30
0.0
 40
0.001488
 41
0.001488
  0
VERTEX
  8
0
 10
6.56049
 20
1.25331
 30
0.0
 40
0.001488
 41
0.001488
  0
VERTEX
  8
0
 10
6.5874
 20
1.3182
 30
0.0
 40
0.001488
 41
0.001488
  0
VERTEX
  8
0
 10
6.60385
 20
1.38656
 30
0.0
 40
0.001488
 41
0.001488
  0
VERTEX
  8
0
 10
6.60932
 20
1.4566
 30
0.0
 40
0.001488
 41
0.001488
  0
VERTEX
  8
0
 10
6.60385
 20
1.52664
 30
0.0
 40
0.001488
 41
0.001488
  0
VERTEX
  8
0
 10
6.5874
 20
1.595
 30
0.0
 40
0.001488
 41
0.001488
  0
VERTEX
  8
0
 10
6.56049
 20
1.65989
 30
0.0
 40
0.001488
 41
0.001488
  0
VERTEX
  8
0
 10
6.5345
 20
1.70236
 30
0.0
 40
0.001488
 41
0.001488
  0
VERTEX
  8
0
 10
6.52382
 20
1.71983
 30
0.0
 40
0.001488
 41
0.001488
  0
VERTEX
  8
0
 10
6.47814
 20
1.77328
 30
0.0
 40
0.001488
 41
0.001488
  0
VERTEX
  8
0
 10
6.42475
 20
1.8189
 30
0.0
 40
0.001488
 41
0.001488
  0
VERTEX
  8
0
 10
6.41872
 20
1.8226
 30
0.0
 40
0.001488
 41
0.001488
  0
VERTEX
  8
0
 10
6.36481
 20
1.85562
 30
0.0
 40
0.001488
 41
0.001488
  0
VERTEX
  8
0
 10
6.29986
 20
1.88249
 30
0.0
 40
0.001488
 41
0.001488
  0
VERTEX
  8
0
 10
6.23156
 20
1.89893
 30
0.0
 40
0.001488
 41
0.001488
  0
SEQEND
 8
0
  0
POLYLINE
  8
0
 62
     5
 66
     1
 10
0
 20
0
 30
0.0
 70
     1
 40
0.107136
 41
0.107136
  0
VERTEX
  8
0
 10
5.02143
 20
2.59668
 30
0.0
 40
0.001488
 41
0.001488
  0
VERTEX
  8
0
 10
5.06711
 20
2.65013
 30
0.0
 40
0.001488
 41
0.001488
  0
VERTEX
  8
0
 10
5.10379
 20
2.71001
 30
0.0
 40
0.001488
 41
0.001488
  0
VERTEX
  8
0
 10
5.12864
 20
2.77007
 30
0.0
 40
0.001488
 41
0.001488
  0
VERTEX
  8
0
 10
5.13064
 20
2.77496
 30
0.0
 40
0.001488
 41
0.001488
  0
VERTEX
  8
0
 10
5.14708
 20
2.84332
 30
0.0
 40
0.001488
 41
0.001488
  0
VERTEX
  8
0
 10
5.15261
 20
2.91336
 30
0.0
 40
0.001488
 41
0.001488
  0
VERTEX
  8
0
 10
5.14708
 20
2.98335
 30
0.0
 40
0.001488
 41
0.001488
  0
VERTEX
  8
0
 10
5.14492
 20
2.9924
 30
0.0
 40
0.001488
 41
0.001488
  0
VERTEX
  8
0
 10
5.13064
 20
3.05171
 30
0.0
 40
0.001488
 41
0.001488
  0
VERTEX
  8
0
 10
5.12864
 20
3.05658
 30
0.0
 40
0.001488
 41
0.001488
  0
VERTEX
  8
0
 10
5.10379
 20
3.11664
 30
0.0
 40
0.001488
 41
0.001488
  0
VERTEX
  8
0
 10
5.06711
 20
3.17654
 30
0.0
 40
0.001488
 41
0.001488
  0
VERTEX
  8
0
 10
5.02143
 20
3.22999
 30
0.0
 40
0.001488
 41
0.001488
  0
VERTEX
  8
0
 10
4.96799
 20
3.27567
 30
0.0
 40
0.001488
 41
0.001488
  0
VERTEX
  8
0
 10
4.9081
 20
3.31233
 30
0.0
 40
0.001488
 41
0.001488
  0
VERTEX
  8
0
 10
4.84315
 20
3.33925
 30
0.0
 40
0.001488
 41
0.001488
  0
VERTEX
  8
0
 10
4.77479
 20
3.35562
 30
0.0
 40
0.001488
 41
0.001488
  0
VERTEX
  8
0
 10
4.70475
 20
3.36117
 30
0.0
 40
0.001488
 41
0.001488
  0
VERTEX
  8
0
 10
4.63471
 20
3.35562
 30
0.0
 40
0.001488
 41
0.001488
  0
VERTEX
  8
0
 10
4.56635
 20
3.33925
 30
0.0
 40
0.001488
 41
0.001488
  0
VERTEX
  8
0
 10
4.50142
 20
3.31233
 30
0.0
 40
0.001488
 41
0.001488
  0
VERTEX
  8
0
 10
4.48361
 20
3.30143
 30
0.0
 40
0.001488
 41
0.001488
  0
VERTEX
  8
0
 10
4.44151
 20
3.27567
 30
0.0
 40
0.001488
 41
0.001488
  0
VERTEX
  8
0
 10
4.38807
 20
3.22999
 30
0.0
 40
0.001488
 41
0.001488
  0
VERTEX
  8
0
 10
4.34239
 20
3.17654
 30
0.0
 40
0.001488
 41
0.001488
  0
VERTEX
  8
0
 10
4.30572
 20
3.11664
 30
0.0
 40
0.001488
 41
0.001488
  0
VERTEX
  8
0
 10
4.27881
 20
3.05171
 30
0.0
 40
0.001488
 41
0.001488
  0
VERTEX
  8
0
 10
4.2646
 20
2.9924
 30
0.0
 40
0.001488
 41
0.001488
  0
VERTEX
  8
0
 10
4.26243
 20
2.98335
 30
0.0
 40
0.001488
 41
0.001488
  0
VERTEX
  8
0
 10
4.25689
 20
2.91336
 30
0.0
 40
0.001488
 41
0.001488
  0
VERTEX
  8
0
 10
4.26243
 20
2.84332
 30
0.0
 40
0.001488
 41
0.001488
  0
VERTEX
  8
0
 10
4.27881
 20
2.77496
 30
0.0
 40
0.001488
 41
0.001488
  0
VERTEX
  8
0
 10
4.30572
 20
2.71001
 30
0.0
 40
0.001488
 41
0.001488
  0
VERTEX
  8
0
 10
4.34239
 20
2.65013
 30
0.0
 40
0.001488
 41
0.001488
  0
VERTEX
  8
0
 10
4.38807
 20
2.59668
 30
0.0
 40
0.001488
 41
0.001488
  0
VERTEX
  8
0
 10
4.44151
 20
2.551
 30
0.0
 40
0.001488
 41
0.001488
  0
VERTEX
  8
0
 10
4.48361
 20
2.52522
 30
0.0
 40
0.001488
 41
0.001488
  0
VERTEX
  8
0
 10
4.50142
 20
2.51432
 30
0.0
 40
0.001488
 41
0.001488
  0
VERTEX
  8
0
 10
4.56635
 20
2.48742
 30
0.0
 40
0.001488
 41
0.001488
  0
VERTEX
  8
0
 10
4.63471
 20
2.47103
 30
0.0
 40
0.001488
 41
0.001488
  0
VERTEX
  8
0
 10
4.70475
 20
2.4655
 30
0.0
 40
0.001488
 41
0.001488
  0
VERTEX
  8
0
 10
4.77479
 20
2.47103
 30
0.0
 40
0.001488
 41
0.001488
  0
VERTEX
  8
0
 10
4.84315
 20
2.48742
 30
0.0
 40
0.001488
 41
0.001488
  0
VERTEX
  8
0
 10
4.9081
 20
2.51432
 30
0.0
 40
0.001488
 41
0.001488
  0
VERTEX
  8
0
 10
4.96799
 20
2.551
 30
0.0
 40
0.001488
 41
0.001488
  0
VERTEX
  8
0
 10
5.02143
 20
2.59668
 30
0.0
 40
0.001488
 41
0.001488
  0
SEQEND
 8
0
  0
POLYLINE
  8
0
 62
     5
 66
     1
 10
0
 20
0
 30
0.0
 70
     1
 40
0.107136
 41
0.107136
  0
VERTEX
  8
0
 10
3.31803
 20
6.2691
 30
0.0
 40
0.001488
 41
0.001488
  0
VERTEX
  8
0
 10
3.24799
 20
6.27463
 30
0.0
 40
0.001488
 41
0.001488
  0
VERTEX
  8
0
 10
3.19353
 20
6.27035
 30
0.0
 40
0.001488
 41
0.001488
  0
VERTEX
  8
0
 10
3.17796
 20
6.2691
 30
0.0
 40
0.001488
 41
0.001488
  0
VERTEX
  8
0
 10
3.1096
 20
6.25271
 30
0.0
 40
0.001488
 41
0.001488
  0
VERTEX
  8
0
 10
3.04471
 20
6.22581
 30
0.0
 40
0.001488
 41
0.001488
  0
VERTEX
  8
0
 10
3.03131
 20
6.21761
 30
0.0
 40
0.001488
 41
0.001488
  0
VERTEX
  8
0
 10
2.98475
 20
6.18913
 30
0.0
 40
0.001488
 41
0.001488
  0
VERTEX
  8
0
 10
2.93132
 20
6.14344
 30
0.0
 40
0.001488
 41
0.001488
  0
VERTEX
  8
0
 10
2.88569
 20
6.09
 30
0.0
 40
0.001488
 41
0.001488
  0
VERTEX
  8
0
 10
2.84896
 20
6.03011
 30
0.0
 40
0.001488
 41
0.001488
  0
VERTEX
  8
0
 10
2.8221
 20
5.96517
 30
0.0
 40
0.001488
 41
0.001488
  0
VERTEX
  8
0
 10
2.80567
 20
5.89681
 30
0.0
 40
0.001488
 41
0.001488
  0
VERTEX
  8
0
 10
2.80018
 20
5.82682
 30
0.0
 40
0.001488
 41
0.001488
  0
VERTEX
  8
0
 10
2.80567
 20
5.75678
 30
0.0
 40
0.001488
 41
0.001488
  0
VERTEX
  8
0
 10
2.8221
 20
5.68842
 30
0.0
 40
0.001488
 41
0.001488
  0
VERTEX
  8
0
 10
2.84896
 20
5.62349
 30
0.0
 40
0.001488
 41
0.001488
  0
VERTEX
  8
0
 10
2.88015
 20
5.5726
 30
0.0
 40
0.001488
 41
0.001488
  0
VERTEX
  8
0
 10
2.88569
 20
5.56358
 30
0.0
 40
0.001488
 41
0.001488
  0
VERTEX
  8
0
 10
2.93132
 20
5.51014
 30
0.0
 40
0.001488
 41
0.001488
  0
VERTEX
  8
0
 10
2.98475
 20
5.46446
 30
0.0
 40
0.001488
 41
0.001488
  0
VERTEX
  8
0
 10
3.04471
 20
5.42779
 30
0.0
 40
0.001488
 41
0.001488
  0
VERTEX
  8
0
 10
3.1096
 20
5.40088
 30
0.0
 40
0.001488
 41
0.001488
  0
VERTEX
  8
0
 10
3.17796
 20
5.3845
 30
0.0
 40
0.001488
 41
0.001488
  0
VERTEX
  8
0
 10
3.19353
 20
5.38325
 30
0.0
 40
0.001488
 41
0.001488
  0
VERTEX
  8
0
 10
3.24799
 20
5.37896
 30
0.0
 40
0.001488
 41
0.001488
  0
VERTEX
  8
0
 10
3.31803
 20
5.3845
 30
0.0
 40
0.001488
 41
0.001488
  0
VERTEX
  8
0
 10
3.38639
 20
5.40088
 30
0.0
 40
0.001488
 41
0.001488
  0
VERTEX
  8
0
 10
3.45133
 20
5.42779
 30
0.0
 40
0.001488
 41
0.001488
  0
VERTEX
  8
0
 10
3.51129
 20
5.46446
 30
0.0
 40
0.001488
 41
0.001488
  0
VERTEX
  8
0
 10
3.56467
 20
5.51014
 30
0.0
 40
0.001488
 41
0.001488
  0
VERTEX
  8
0
 10
3.61035
 20
5.56358
 30
0.0
 40
0.001488
 41
0.001488
  0
VERTEX
  8
0
 10
3.61589
 20
5.5726
 30
0.0
 40
0.001488
 41
0.001488
  0
VERTEX
  8
0
 10
3.64703
 20
5.62349
 30
0.0
 40
0.001488
 41
0.001488
  0
VERTEX
  8
0
 10
3.67393
 20
5.68842
 30
0.0
 40
0.001488
 41
0.001488
  0
VERTEX
  8
0
 10
3.69038
 20
5.75678
 30
0.0
 40
0.001488
 41
0.001488
  0
VERTEX
  8
0
 10
3.69586
 20
5.82682
 30
0.0
 40
0.001488
 41
0.001488
  0
VERTEX
  8
0
 10
3.69038
 20
5.89681
 30
0.0
 40
0.001488
 41
0.001488
  0
VERTEX
  8
0
 10
3.67393
 20
5.96517
 30
0.0
 40
0.001488
 41
0.001488
  0
VERTEX
  8
0
 10
3.64703
 20
6.03011
 30
0.0
 40
0.001488
 41
0.001488
  0
VERTEX
  8
0
 10
3.61035
 20
6.09
 30
0.0
 40
0.001488
 41
0.001488
  0
VERTEX
  8
0
 10
3.56467
 20
6.14344
 30
0.0
 40
0.001488
 41
0.001488
  0
VERTEX
  8
0
 10
3.51129
 20
6.18913
 30
0.0
 40
0.001488
 41
0.001488
  0
VERTEX
  8
0
 10
3.46474
 20
6.21761
 30
0.0
 40
0.001488
 41
0.001488
  0
VERTEX
  8
0
 10
3.45133
 20
6.22581
 30
0.0
 40
0.001488
 41
0.001488
  0
VERTEX
  8
0
 10
3.38639
 20
6.25271
 30
0.0
 40
0.001488
 41
0.001488
  0
VERTEX
  8
0
 10
3.31803
 20
6.2691
 30
0.0
 40
0.001488
 41
0.001488
  0
SEQEND
 8
0
  0
POLYLINE
  8
0
 62
     5
 66
     1
 10
0
 20
0
 30
0.0
 70
     1
 40
0.107136
 41
0.107136
  0
VERTEX
  8
0
 10
5.84483
 20
2.59668
 30
0.0
 40
0.001488
 41
0.001488
  0
VERTEX
  8
0
 10
5.89828
 20
2.551
 30
0.0
 40
0.001488
 41
0.001488
  0
VERTEX
  8
0
 10
5.95817
 20
2.51432
 30
0.0
 40
0.001488
 41
0.001488
  0
VERTEX
  8
0
 10
6.02311
 20
2.48742
 30
0.0
 40
0.001488
 41
0.001488
  0
VERTEX
  8
0
 10
6.09147
 20
2.47103
 30
0.0
 40
0.001488
 41
0.001488
  0
VERTEX
  8
0
 10
6.16151
 20
2.4655
 30
0.0
 40
0.001488
 41
0.001488
  0
VERTEX
  8
0
 10
6.23156
 20
2.47103
 30
0.0
 40
0.001488
 41
0.001488
  0
VERTEX
  8
0
 10
6.29986
 20
2.48742
 30
0.0
 40
0.001488
 41
0.001488
  0
VERTEX
  8
0
 10
6.36481
 20
2.51432
 30
0.0
 40
0.001488
 41
0.001488
  0
VERTEX
  8
0
 10
6.41872
 20
2.54736
 30
0.0
 40
0.001488
 41
0.001488
  0
VERTEX
  8
0
 10
6.42475
 20
2.551
 30
0.0
 40
0.001488
 41
0.001488
  0
VERTEX
  8
0
 10
6.47814
 20
2.59668
 30
0.0
 40
0.001488
 41
0.001488
  0
VERTEX
  8
0
 10
6.52382
 20
2.65013
 30
0.0
 40
0.001488
 41
0.001488
  0
VERTEX
  8
0
 10
6.56049
 20
2.71001
 30
0.0
 40
0.001488
 41
0.001488
  0
VERTEX
  8
0
 10
6.5874
 20
2.77496
 30
0.0
 40
0.001488
 41
0.001488
  0
VERTEX
  8
0
 10
6.60385
 20
2.84332
 30
0.0
 40
0.001488
 41
0.001488
  0
VERTEX
  8
0
 10
6.60932
 20
2.91336
 30
0.0
 40
0.001488
 41
0.001488
  0
VERTEX
  8
0
 10
6.60385
 20
2.98335
 30
0.0
 40
0.001488
 41
0.001488
  0
VERTEX
  8
0
 10
6.60161
 20
2.9924
 30
0.0
 40
0.001488
 41
0.001488
  0
VERTEX
  8
0
 10
6.5874
 20
3.05171
 30
0.0
 40
0.001488
 41
0.001488
  0
VERTEX
  8
0
 10
6.56049
 20
3.11664
 30
0.0
 40
0.001488
 41
0.001488
  0
VERTEX
  8
0
 10
6.52382
 20
3.17654
 30
0.0
 40
0.001488
 41
0.001488
  0
VERTEX
  8
0
 10
6.47814
 20
3.22999
 30
0.0
 40
0.001488
 41
0.001488
  0
VERTEX
  8
0
 10
6.42475
 20
3.27567
 30
0.0
 40
0.001488
 41
0.001488
  0
VERTEX
  8
0
 10
6.41872
 20
3.27929
 30
0.0
 40
0.001488
 41
0.001488
  0
VERTEX
  8
0
 10
6.36481
 20
3.31233
 30
0.0
 40
0.001488
 41
0.001488
  0
VERTEX
  8
0
 10
6.29986
 20
3.33925
 30
0.0
 40
0.001488
 41
0.001488
  0
VERTEX
  8
0
 10
6.23156
 20
3.35562
 30
0.0
 40
0.001488
 41
0.001488
  0
VERTEX
  8
0
 10
6.16151
 20
3.36117
 30
0.0
 40
0.001488
 41
0.001488
  0
VERTEX
  8
0
 10
6.09147
 20
3.35562
 30
0.0
 40
0.001488
 41
0.001488
  0
VERTEX
  8
0
 10
6.02311
 20
3.33925
 30
0.0
 40
0.001488
 41
0.001488
  0
VERTEX
  8
0
 10
5.95817
 20
3.31233
 30
0.0
 40
0.001488
 41
0.001488
  0
VERTEX
  8
0
 10
5.89828
 20
3.27567
 30
0.0
 40
0.001488
 41
0.001488
  0
VERTEX
  8
0
 10
5.84483
 20
3.22999
 30
0.0
 40
0.001488
 41
0.001488
  0
VERTEX
  8
0
 10
5.79915
 20
3.17654
 30
0.0
 40
0.001488
 41
0.001488
  0
VERTEX
  8
0
 10
5.77371
 20
3.13499
 30
0.0
 40
0.001488
 41
0.001488
  0
VERTEX
  8
0
 10
5.76247
 20
3.11664
 30
0.0
 40
0.001488
 41
0.001488
  0
VERTEX
  8
0
 10
5.73557
 20
3.05171
 30
0.0
 40
0.001488
 41
0.001488
  0
VERTEX
  8
0
 10
5.72136
 20
2.9924
 30
0.0
 40
0.001488
 41
0.001488
  0
VERTEX
  8
0
 10
5.71918
 20
2.98335
 30
0.0
 40
0.001488
 41
0.001488
  0
VERTEX
  8
0
 10
5.71365
 20
2.91336
 30
0.0
 40
0.001488
 41
0.001488
  0
VERTEX
  8
0
 10
5.71918
 20
2.84332
 30
0.0
 40
0.001488
 41
0.001488
  0
VERTEX
  8
0
 10
5.73557
 20
2.77496
 30
0.0
 40
0.001488
 41
0.001488
  0
VERTEX
  8
0
 10
5.76247
 20
2.71001
 30
0.0
 40
0.001488
 41
0.001488
  0
VERTEX
  8
0
 10
5.77371
 20
2.69168
 30
0.0
 40
0.001488
 41
0.001488
  0
VERTEX
  8
0
 10
5.79915
 20
2.65013
 30
0.0
 40
0.001488
 41
0.001488
  0
VERTEX
  8
0
 10
5.84483
 20
2.59668
 30
0.0
 40
0.001488
 41
0.001488
  0
SEQEND
 8
0
  0
POLYLINE
  8
0
 62
     5
 66
     1
 10
0
 20
0
 30
0.0
 70
     1
 40
0.107136
 41
0.107136
  0
VERTEX
  8
0
 10
1.65289
 20
6.25271
 30
0.0
 40
0.001488
 41
0.001488
  0
VERTEX
  8
0
 10
1.58794
 20
6.22581
 30
0.0
 40
0.001488
 41
0.001488
  0
VERTEX
  8
0
 10
1.5746
 20
6.21761
 30
0.0
 40
0.001488
 41
0.001488
  0
VERTEX
  8
0
 10
1.52806
 20
6.18913
 30
0.0
 40
0.001488
 41
0.001488
  0
VERTEX
  8
0
 10
1.47461
 20
6.14344
 30
0.0
 40
0.001488
 41
0.001488
  0
VERTEX
  8
0
 10
1.42893
 20
6.09
 30
0.0
 40
0.001488
 41
0.001488
  0
VERTEX
  8
0
 10
1.39225
 20
6.03011
 30
0.0
 40
0.001488
 41
0.001488
  0
VERTEX
  8
0
 10
1.36534
 20
5.96517
 30
0.0
 40
0.001488
 41
0.001488
  0
VERTEX
  8
0
 10
1.34896
 20
5.89681
 30
0.0
 40
0.001488
 41
0.001488
  0
VERTEX
  8
0
 10
1.34343
 20
5.82682
 30
0.0
 40
0.001488
 41
0.001488
  0
VERTEX
  8
0
 10
1.34896
 20
5.75678
 30
0.0
 40
0.001488
 41
0.001488
  0
VERTEX
  8
0
 10
1.36534
 20
5.68842
 30
0.0
 40
0.001488
 41
0.001488
  0
VERTEX
  8
0
 10
1.39225
 20
5.62349
 30
0.0
 40
0.001488
 41
0.001488
  0
VERTEX
  8
0
 10
1.42339
 20
5.5726
 30
0.0
 40
0.001488
 41
0.001488
  0
VERTEX
  8
0
 10
1.42893
 20
5.56358
 30
0.0
 40
0.001488
 41
0.001488
  0
VERTEX
  8
0
 10
1.47461
 20
5.51014
 30
0.0
 40
0.001488
 41
0.001488
  0
VERTEX
  8
0
 10
1.52806
 20
5.46446
 30
0.0
 40
0.001488
 41
0.001488
  0
VERTEX
  8
0
 10
1.58794
 20
5.42779
 30
0.0
 40
0.001488
 41
0.001488
  0
VERTEX
  8
0
 10
1.65289
 20
5.40088
 30
0.0
 40
0.001488
 41
0.001488
  0
VERTEX
  8
0
 10
1.72125
 20
5.3845
 30
0.0
 40
0.001488
 41
0.001488
  0
VERTEX
  8
0
 10
1.79129
 20
5.37896
 30
0.0
 40
0.001488
 41
0.001488
  0
VERTEX
  8
0
 10
1.86128
 20
5.3845
 30
0.0
 40
0.001488
 41
0.001488
  0
VERTEX
  8
0
 10
1.90349
 20
5.39458
 30
0.0
 40
0.001488
 41
0.001488
  0
VERTEX
  8
0
 10
1.92964
 20
5.40088
 30
0.0
 40
0.001488
 41
0.001488
  0
VERTEX
  8
0
 10
1.99457
 20
5.42779
 30
0.0
 40
0.001488
 41
0.001488
  0
VERTEX
  8
0
 10
2.05447
 20
5.46446
 30
0.0
 40
0.001488
 41
0.001488
  0
VERTEX
  8
0
 10
2.10792
 20
5.51014
 30
0.0
 40
0.001488
 41
0.001488
  0
VERTEX
  8
0
 10
2.1536
 20
5.56358
 30
0.0
 40
0.001488
 41
0.001488
  0
VERTEX
  8
0
 10
2.15913
 20
5.5726
 30
0.0
 40
0.001488
 41
0.001488
  0
VERTEX
  8
0
 10
2.19026
 20
5.62349
 30
0.0
 40
0.001488
 41
0.001488
  0
VERTEX
  8
0
 10
2.21718
 20
5.68842
 30
0.0
 40
0.001488
 41
0.001488
  0
VERTEX
  8
0
 10
2.23356
 20
5.75678
 30
0.0
 40
0.001488
 41
0.001488
  0
VERTEX
  8
0
 10
2.2391
 20
5.82682
 30
0.0
 40
0.001488
 41
0.001488
  0
VERTEX
  8
0
 10
2.23356
 20
5.89681
 30
0.0
 40
0.001488
 41
0.001488
  0
VERTEX
  8
0
 10
2.21718
 20
5.96517
 30
0.0
 40
0.001488
 41
0.001488
  0
VERTEX
  8
0
 10
2.19026
 20
6.03011
 30
0.0
 40
0.001488
 41
0.001488
  0
VERTEX
  8
0
 10
2.1536
 20
6.09
 30
0.0
 40
0.001488
 41
0.001488
  0
VERTEX
  8
0
 10
2.10792
 20
6.14344
 30
0.0
 40
0.001488
 41
0.001488
  0
VERTEX
  8
0
 10
2.05447
 20
6.18913
 30
0.0
 40
0.001488
 41
0.001488
  0
VERTEX
  8
0
 10
2.00792
 20
6.21761
 30
0.0
 40
0.001488
 41
0.001488
  0
VERTEX
  8
0
 10
1.99457
 20
6.22581
 30
0.0
 40
0.001488
 41
0.001488
  0
VERTEX
  8
0
 10
1.92964
 20
6.25271
 30
0.0
 40
0.001488
 41
0.001488
  0
VERTEX
  8
0
 10
1.90349
 20
6.259
 30
0.0
 40
0.001488
 41
0.001488
  0
VERTEX
  8
0
 10
1.86128
 20
6.2691
 30
0.0
 40
0.001488
 41
0.001488
  0
VERTEX
  8
0
 10
1.79129
 20
6.27463
 30
0.0
 40
0.001488
 41
0.001488
  0
VERTEX
  8
0
 10
1.72125
 20
6.2691
 30
0.0
 40
0.001488
 41
0.001488
  0
VERTEX
  8
0
 10
1.65289
 20
6.25271
 30
0.0
 40
0.001488
 41
0.001488
  0
SEQEND
 8
0
  0
POLYLINE
  8
0
 62
     5
 66
     1
 10
0
 20
0
 30
0.0
 70
     1
 40
0.107136
 41
0.107136
  0
VERTEX
  8
0
 10
3.93989
 20
0.222168
 30
0.0
 40
0.001488
 41
0.001488
  0
VERTEX
  8
0
 10
3.9764
 20
0.216417
 30
0.0
 40
0.001488
 41
0.001488
  0
VERTEX
  8
0
 10
3.99983
 20
0.220107
 30
0.0
 40
0.001488
 41
0.001488
  0
VERTEX
  8
0
 10
4.01286
 20
0.222168
 30
0.0
 40
0.001488
 41
0.001488
  0
VERTEX
  8
0
 10
4.04579
 20
0.238986
 30
0.0
 40
0.001488
 41
0.001488
  0
VERTEX
  8
0
 10
4.07194
 20
0.265082
 30
0.0
 40
0.001488
 41
0.001488
  0
VERTEX
  8
0
 10
4.08871
 20
0.298014
 30
0.0
 40
0.001488
 41
0.001488
  0
VERTEX
  8
0
 10
4.09451
 20
0.334526
 30
0.0
 40
0.001488
 41
0.001488
  0
VERTEX
  8
0
 10
4.08871
 20
0.371039
 30
0.0
 40
0.001488
 41
0.001488
  0
VERTEX
  8
0
 10
4.07194
 20
0.403971
 30
0.0
 40
0.001488
 41
0.001488
  0
VERTEX
  8
0
 10
4.04579
 20
0.430122
 30
0.0
 40
0.001488
 41
0.001488
  0
VERTEX
  8
0
 10
4.01286
 20
0.446886
 30
0.0
 40
0.001488
 41
0.001488
  0
VERTEX
  8
0
 10
3.9764
 20
0.452636
 30
0.0
 40
0.001488
 41
0.001488
  0
VERTEX
  8
0
 10
3.93989
 20
0.446886
 30
0.0
 40
0.001488
 41
0.001488
  0
VERTEX
  8
0
 10
3.90696
 20
0.430122
 30
0.0
 40
0.001488
 41
0.001488
  0
VERTEX
  8
0
 10
3.88917
 20
0.412272
 30
0.0
 40
0.001488
 41
0.001488
  0
VERTEX
  8
0
 10
3.88081
 20
0.403971
 30
0.0
 40
0.001488
 41
0.001488
  0
VERTEX
  8
0
 10
3.86404
 20
0.371039
 30
0.0
 40
0.001488
 41
0.001488
  0
VERTEX
  8
0
 10
3.85829
 20
0.334526
 30
0.0
 40
0.001488
 41
0.001488
  0
VERTEX
  8
0
 10
3.86404
 20
0.298014
 30
0.0
 40
0.001488
 41
0.001488
  0
VERTEX
  8
0
 10
3.88081
 20
0.265082
 30
0.0
 40
0.001488
 41
0.001488
  0
VERTEX
  8
0
 10
3.90696
 20
0.238986
 30
0.0
 40
0.001488
 41
0.001488
  0
VERTEX
  8
0
 10
3.93989
 20
0.222168
 30
0.0
 40
0.001488
 41
0.001488
  0
SEQEND
 8
0
  0
POLYLINE
  8
0
 62
     5
 66
     1
 10
0
 20
0
 30
0.0
 70
     1
 40
0.107136
 41
0.107136
  0
VERTEX
  8
0
 10
5.10379
 20
4.16678
 30
0.0
 40
0.001488
 41
0.001488
  0
VERTEX
  8
0
 10
5.12864
 20
4.22683
 30
0.0
 40
0.001488
 41
0.001488
  0
VERTEX
  8
0
 10
5.13064
 20
4.23167
 30
0.0
 40
0.001488
 41
0.001488
  0
VERTEX
  8
0
 10
5.1429
 20
4.2825
 30
0.0
 40
0.001488
 41
0.001488
  0
VERTEX
  8
0
 10
5.14708
 20
4.30003
 30
0.0
 40
0.001488
 41
0.001488
  0
VERTEX
  8
0
 10
5.15261
 20
4.37007
 30
0.0
 40
0.001488
 41
0.001488
  0
VERTEX
  8
0
 10
5.14708
 20
4.44011
 30
0.0
 40
0.001488
 41
0.001488
  0
VERTEX
  8
0
 10
5.13064
 20
4.50846
 30
0.0
 40
0.001488
 41
0.001488
  0
VERTEX
  8
0
 10
5.12864
 20
4.51329
 30
0.0
 40
0.001488
 41
0.001488
  0
VERTEX
  8
0
 10
5.10379
 20
4.57335
 30
0.0
 40
0.001488
 41
0.001488
  0
VERTEX
  8
0
 10
5.06711
 20
4.63331
 30
0.0
 40
0.001488
 41
0.001488
  0
VERTEX
  8
0
 10
5.02143
 20
4.68674
 30
0.0
 40
0.001488
 41
0.001488
  0
VERTEX
  8
0
 10
4.96799
 20
4.73236
 30
0.0
 40
0.001488
 41
0.001488
  0
VERTEX
  8
0
 10
4.9081
 20
4.7691
 30
0.0
 40
0.001488
 41
0.001488
  0
VERTEX
  8
0
 10
4.84315
 20
4.79596
 30
0.0
 40
0.001488
 41
0.001488
  0
VERTEX
  8
0
 10
4.77479
 20
4.81239
 30
0.0
 40
0.001488
 41
0.001488
  0
VERTEX
  8
0
 10
4.70475
 20
4.81787
 30
0.0
 40
0.001488
 41
0.001488
  0
VERTEX
  8
0
 10
4.63471
 20
4.81239
 30
0.0
 40
0.001488
 41
0.001488
  0
VERTEX
  8
0
 10
4.56635
 20
4.79596
 30
0.0
 40
0.001488
 41
0.001488
  0
VERTEX
  8
0
 10
4.50142
 20
4.7691
 30
0.0
 40
0.001488
 41
0.001488
  0
VERTEX
  8
0
 10
4.48361
 20
4.75819
 30
0.0
 40
0.001488
 41
0.001488
  0
VERTEX
  8
0
 10
4.44151
 20
4.73236
 30
0.0
 40
0.001488
 41
0.001488
  0
VERTEX
  8
0
 10
4.38807
 20
4.68674
 30
0.0
 40
0.001488
 41
0.001488
  0
VERTEX
  8
0
 10
4.34239
 20
4.63331
 30
0.0
 40
0.001488
 41
0.001488
  0
VERTEX
  8
0
 10
4.30572
 20
4.57335
 30
0.0
 40
0.001488
 41
0.001488
  0
VERTEX
  8
0
 10
4.27881
 20
4.50846
 30
0.0
 40
0.001488
 41
0.001488
  0
VERTEX
  8
0
 10
4.26243
 20
4.44011
 30
0.0
 40
0.001488
 41
0.001488
  0
VERTEX
  8
0
 10
4.25689
 20
4.37007
 30
0.0
 40
0.001488
 41
0.001488
  0
VERTEX
  8
0
 10
4.26243
 20
4.30003
 30
0.0
 40
0.001488
 41
0.001488
  0
VERTEX
  8
0
 10
4.2666
 20
4.2825
 30
0.0
 40
0.001488
 41
0.001488
  0
VERTEX
  8
0
 10
4.27881
 20
4.23167
 30
0.0
 40
0.001488
 41
0.001488
  0
VERTEX
  8
0
 10
4.30572
 20
4.16678
 30
0.0
 40
0.001488
 41
0.001488
  0
VERTEX
  8
0
 10
4.34239
 20
4.10682
 30
0.0
 40
0.001488
 41
0.001488
  0
VERTEX
  8
0
 10
4.38807
 20
4.05339
 30
0.0
 40
0.001488
 41
0.001488
  0
VERTEX
  8
0
 10
4.44151
 20
4.00776
 30
0.0
 40
0.001488
 41
0.001488
  0
VERTEX
  8
0
 10
4.48361
 20
3.98193
 30
0.0
 40
0.001488
 41
0.001488
  0
VERTEX
  8
0
 10
4.50142
 20
3.97103
 30
0.0
 40
0.001488
 41
0.001488
  0
VERTEX
  8
0
 10
4.56635
 20
3.94417
 30
0.0
 40
0.001488
 41
0.001488
  0
VERTEX
  8
0
 10
4.63471
 20
3.92774
 30
0.0
 40
0.001488
 41
0.001488
  0
VERTEX
  8
0
 10
4.70475
 20
3.92225
 30
0.0
 40
0.001488
 41
0.001488
  0
VERTEX
  8
0
 10
4.77479
 20
3.92774
 30
0.0
 40
0.001488
 41
0.001488
  0
VERTEX
  8
0
 10
4.84315
 20
3.94417
 30
0.0
 40
0.001488
 41
0.001488
  0
VERTEX
  8
0
 10
4.9081
 20
3.97103
 30
0.0
 40
0.001488
 41
0.001488
  0
VERTEX
  8
0
 10
4.96799
 20
4.00776
 30
0.0
 40
0.001488
 41
0.001488
  0
VERTEX
  8
0
 10
5.02143
 20
4.05339
 30
0.0
 40
0.001488
 41
0.001488
  0
VERTEX
  8
0
 10
5.06711
 20
4.10682
 30
0.0
 40
0.001488
 41
0.001488
  0
VERTEX
  8
0
 10
5.10379
 20
4.16678
 30
0.0
 40
0.001488
 41
0.001488
  0
SEQEND
 8
0
  0
POLYLINE
  8
0
 62
     5
 66
     1
 10
0
 20
0
 30
0.0
 70
     1
 40
0.107136
 41
0.107136
  0
VERTEX
  8
0
 10
7.65474
 20
8.55729
 30
0.0
 40
0.001488
 41
0.001488
  0
VERTEX
  8
0
 10
7.61817
 20
8.56304
 30
0.0
 40
0.001488
 41
0.001488
  0
VERTEX
  8
0
 10
7.58171
 20
8.55729
 30
0.0
 40
0.001488
 41
0.001488
  0
VERTEX
  8
0
 10
7.54878
 20
8.54053
 30
0.0
 40
0.001488
 41
0.001488
  0
VERTEX
  8
0
 10
7.52263
 20
8.51437
 30
0.0
 40
0.001488
 41
0.001488
  0
VERTEX
  8
0
 10
7.50586
 20
8.4815
 30
0.0
 40
0.001488
 41
0.001488
  0
VERTEX
  8
0
 10
7.50489
 20
8.47526
 30
0.0
 40
0.001488
 41
0.001488
  0
VERTEX
  8
0
 10
7.50006
 20
8.44493
 30
0.0
 40
0.001488
 41
0.001488
  0
VERTEX
  8
0
 10
7.50586
 20
8.40847
 30
0.0
 40
0.001488
 41
0.001488
  0
VERTEX
  8
0
 10
7.52263
 20
8.37554
 30
0.0
 40
0.001488
 41
0.001488
  0
VERTEX
  8
0
 10
7.54878
 20
8.34939
 30
0.0
 40
0.001488
 41
0.001488
  0
VERTEX
  8
0
 10
7.58171
 20
8.33262
 30
0.0
 40
0.001488
 41
0.001488
  0
VERTEX
  8
0
 10
7.61817
 20
8.32682
 30
0.0
 40
0.001488
 41
0.001488
  0
VERTEX
  8
0
 10
7.65474
 20
8.33262
 30
0.0
 40
0.001488
 41
0.001488
  0
VERTEX
  8
0
 10
7.68767
 20
8.34939
 30
0.0
 40
0.001488
 41
0.001488
  0
VERTEX
  8
0
 10
7.70882
 20
8.37056
 30
0.0
 40
0.001488
 41
0.001488
  0
VERTEX
  8
0
 10
7.71376
 20
8.37554
 30
0.0
 40
0.001488
 41
0.001488
  0
VERTEX
  8
0
 10
7.73058
 20
8.40847
 30
0.0
 40
0.001488
 41
0.001488
  0
VERTEX
  8
0
 10
7.73633
 20
8.44493
 30
0.0
 40
0.001488
 41
0.001488
  0
VERTEX
  8
0
 10
7.73058
 20
8.4815
 30
0.0
 40
0.001488
 41
0.001488
  0
VERTEX
  8
0
 10
7.71376
 20
8.51437
 30
0.0
 40
0.001488
 41
0.001488
  0
VERTEX
  8
0
 10
7.70882
 20
8.51938
 30
0.0
 40
0.001488
 41
0.001488
  0
VERTEX
  8
0
 10
7.68767
 20
8.54053
 30
0.0
 40
0.001488
 41
0.001488
  0
VERTEX
  8
0
 10
7.65474
 20
8.55729
 30
0.0
 40
0.001488
 41
0.001488
  0
SEQEND
 8
0
  0
POLYLINE
  8
0
 62
     5
 66
     1
 10
0
 20
0
 30
0.0
 70
     1
 40
0.107136
 41
0.107136
  0
VERTEX
  8
0
 10
2.88569
 20
4.63331
 30
0.0
 40
0.001488
 41
0.001488
  0
VERTEX
  8
0
 10
2.84896
 20
4.57335
 30
0.0
 40
0.001488
 41
0.001488
  0
VERTEX
  8
0
 10
2.8221
 20
4.50846
 30
0.0
 40
0.001488
 41
0.001488
  0
VERTEX
  8
0
 10
2.80567
 20
4.44011
 30
0.0
 40
0.001488
 41
0.001488
  0
VERTEX
  8
0
 10
2.80018
 20
4.37007
 30
0.0
 40
0.001488
 41
0.001488
  0
VERTEX
  8
0
 10
2.80567
 20
4.30003
 30
0.0
 40
0.001488
 41
0.001488
  0
VERTEX
  8
0
 10
2.8099
 20
4.2825
 30
0.0
 40
0.001488
 41
0.001488
  0
VERTEX
  8
0
 10
2.8221
 20
4.23167
 30
0.0
 40
0.001488
 41
0.001488
  0
VERTEX
  8
0
 10
2.84896
 20
4.16678
 30
0.0
 40
0.001488
 41
0.001488
  0
VERTEX
  8
0
 10
2.88569
 20
4.10682
 30
0.0
 40
0.001488
 41
0.001488
  0
VERTEX
  8
0
 10
2.93132
 20
4.05339
 30
0.0
 40
0.001488
 41
0.001488
  0
VERTEX
  8
0
 10
2.98475
 20
4.00776
 30
0.0
 40
0.001488
 41
0.001488
  0
VERTEX
  8
0
 10
3.04471
 20
3.97103
 30
0.0
 40
0.001488
 41
0.001488
  0
VERTEX
  8
0
 10
3.1096
 20
3.94417
 30
0.0
 40
0.001488
 41
0.001488
  0
VERTEX
  8
0
 10
3.17796
 20
3.92774
 30
0.0
 40
0.001488
 41
0.001488
  0
VERTEX
  8
0
 10
3.19353
 20
3.92654
 30
0.0
 40
0.001488
 41
0.001488
  0
VERTEX
  8
0
 10
3.24799
 20
3.92225
 30
0.0
 40
0.001488
 41
0.001488
  0
VERTEX
  8
0
 10
3.31803
 20
3.92774
 30
0.0
 40
0.001488
 41
0.001488
  0
VERTEX
  8
0
 10
3.38639
 20
3.94417
 30
0.0
 40
0.001488
 41
0.001488
  0
VERTEX
  8
0
 10
3.45133
 20
3.97103
 30
0.0
 40
0.001488
 41
0.001488
  0
VERTEX
  8
0
 10
3.51129
 20
4.00776
 30
0.0
 40
0.001488
 41
0.001488
  0
VERTEX
  8
0
 10
3.56467
 20
4.05339
 30
0.0
 40
0.001488
 41
0.001488
  0
VERTEX
  8
0
 10
3.61035
 20
4.10682
 30
0.0
 40
0.001488
 41
0.001488
  0
VERTEX
  8
0
 10
3.64703
 20
4.16678
 30
0.0
 40
0.001488
 41
0.001488
  0
VERTEX
  8
0
 10
3.67393
 20
4.23167
 30
0.0
 40
0.001488
 41
0.001488
  0
VERTEX
  8
0
 10
3.68614
 20
4.2825
 30
0.0
 40
0.001488
 41
0.001488
  0
VERTEX
  8
0
 10
3.69038
 20
4.30003
 30
0.0
 40
0.001488
 41
0.001488
  0
VERTEX
  8
0
 10
3.69586
 20
4.37007
 30
0.0
 40
0.001488
 41
0.001488
  0
VERTEX
  8
0
 10
3.69038
 20
4.44011
 30
0.0
 40
0.001488
 41
0.001488
  0
VERTEX
  8
0
 10
3.67393
 20
4.50846
 30
0.0
 40
0.001488
 41
0.001488
  0
VERTEX
  8
0
 10
3.64703
 20
4.57335
 30
0.0
 40
0.001488
 41
0.001488
  0
VERTEX
  8
0
 10
3.61035
 20
4.63331
 30
0.0
 40
0.001488
 41
0.001488
  0
VERTEX
  8
0
 10
3.56467
 20
4.68674
 30
0.0
 40
0.001488
 41
0.001488
  0
VERTEX
  8
0
 10
3.51129
 20
4.73236
 30
0.0
 40
0.001488
 41
0.001488
  0
VERTEX
  8
0
 10
3.45133
 20
4.7691
 30
0.0
 40
0.001488
 41
0.001488
  0
VERTEX
  8
0
 10
3.38639
 20
4.79596
 30
0.0
 40
0.001488
 41
0.001488
  0
VERTEX
  8
0
 10
3.31803
 20
4.81239
 30
0.0
 40
0.001488
 41
0.001488
  0
VERTEX
  8
0
 10
3.24799
 20
4.81787
 30
0.0
 40
0.001488
 41
0.001488
  0
VERTEX
  8
0
 10
3.19353
 20
4.81364
 30
0.0
 40
0.001488
 41
0.001488
  0
VERTEX
  8
0
 10
3.17796
 20
4.81239
 30
0.0
 40
0.001488
 41
0.001488
  0
VERTEX
  8
0
 10
3.1096
 20
4.79596
 30
0.0
 40
0.001488
 41
0.001488
  0
VERTEX
  8
0
 10
3.04471
 20
4.7691
 30
0.0
 40
0.001488
 41
0.001488
  0
VERTEX
  8
0
 10
2.98475
 20
4.73236
 30
0.0
 40
0.001488
 41
0.001488
  0
VERTEX
  8
0
 10
2.93132
 20
4.68674
 30
0.0
 40
0.001488
 41
0.001488
  0
VERTEX
  8
0
 10
2.88569
 20
4.63331
 30
0.0
 40
0.001488
 41
0.001488
  0
SEQEND
 8
0
  0
POLYLINE
  8
0
 62
     5
 66
     1
 10
0
 20
0
 30
0.0
 70
     1
 40
0.107136
 41
0.107136
  0
VERTEX
  8
0
 10
6.29986
 20
3.94417
 30
0.0
 40
0.001488
 41
0.001488
  0
VERTEX
  8
0
 10
6.36481
 20
3.97103
 30
0.0
 40
0.001488
 41
0.001488
  0
VERTEX
  8
0
 10
6.41872
 20
4.00407
 30
0.0
 40
0.001488
 41
0.001488
  0
VERTEX
  8
0
 10
6.42475
 20
4.00776
 30
0.0
 40
0.001488
 41
0.001488
  0
VERTEX
  8
0
 10
6.47814
 20
4.05339
 30
0.0
 40
0.001488
 41
0.001488
  0
VERTEX
  8
0
 10
6.52382
 20
4.10682
 30
0.0
 40
0.001488
 41
0.001488
  0
VERTEX
  8
0
 10
6.56049
 20
4.16678
 30
0.0
 40
0.001488
 41
0.001488
  0
VERTEX
  8
0
 10
6.5874
 20
4.23167
 30
0.0
 40
0.001488
 41
0.001488
  0
VERTEX
  8
0
 10
6.59961
 20
4.2825
 30
0.0
 40
0.001488
 41
0.001488
  0
VERTEX
  8
0
 10
6.60385
 20
4.30003
 30
0.0
 40
0.001488
 41
0.001488
  0
VERTEX
  8
0
 10
6.60932
 20
4.37007
 30
0.0
 40
0.001488
 41
0.001488
  0
VERTEX
  8
0
 10
6.60385
 20
4.44011
 30
0.0
 40
0.001488
 41
0.001488
  0
VERTEX
  8
0
 10
6.5874
 20
4.50846
 30
0.0
 40
0.001488
 41
0.001488
  0
VERTEX
  8
0
 10
6.56049
 20
4.57335
 30
0.0
 40
0.001488
 41
0.001488
  0
VERTEX
  8
0
 10
6.52382
 20
4.63331
 30
0.0
 40
0.001488
 41
0.001488
  0
VERTEX
  8
0
 10
6.47814
 20
4.68674
 30
0.0
 40
0.001488
 41
0.001488
  0
VERTEX
  8
0
 10
6.42475
 20
4.73236
 30
0.0
 40
0.001488
 41
0.001488
  0
VERTEX
  8
0
 10
6.41872
 20
4.73606
 30
0.0
 40
0.001488
 41
0.001488
  0
VERTEX
  8
0
 10
6.36481
 20
4.7691
 30
0.0
 40
0.001488
 41
0.001488
  0
VERTEX
  8
0
 10
6.29986
 20
4.79596
 30
0.0
 40
0.001488
 41
0.001488
  0
VERTEX
  8
0
 10
6.23156
 20
4.81239
 30
0.0
 40
0.001488
 41
0.001488
  0
VERTEX
  8
0
 10
6.16151
 20
4.81787
 30
0.0
 40
0.001488
 41
0.001488
  0
VERTEX
  8
0
 10
6.09147
 20
4.81239
 30
0.0
 40
0.001488
 41
0.001488
  0
VERTEX
  8
0
 10
6.02311
 20
4.79596
 30
0.0
 40
0.001488
 41
0.001488
  0
VERTEX
  8
0
 10
5.95817
 20
4.7691
 30
0.0
 40
0.001488
 41
0.001488
  0
VERTEX
  8
0
 10
5.89828
 20
4.73236
 30
0.0
 40
0.001488
 41
0.001488
  0
VERTEX
  8
0
 10
5.84483
 20
4.68674
 30
0.0
 40
0.001488
 41
0.001488
  0
VERTEX
  8
0
 10
5.79915
 20
4.63331
 30
0.0
 40
0.001488
 41
0.001488
  0
VERTEX
  8
0
 10
5.77371
 20
4.59169
 30
0.0
 40
0.001488
 41
0.001488
  0
VERTEX
  8
0
 10
5.76247
 20
4.57335
 30
0.0
 40
0.001488
 41
0.001488
  0
VERTEX
  8
0
 10
5.73557
 20
4.50846
 30
0.0
 40
0.001488
 41
0.001488
  0
VERTEX
  8
0
 10
5.71918
 20
4.44011
 30
0.0
 40
0.001488
 41
0.001488
  0
VERTEX
  8
0
 10
5.71365
 20
4.37007
 30
0.0
 40
0.001488
 41
0.001488
  0
VERTEX
  8
0
 10
5.71918
 20
4.30003
 30
0.0
 40
0.001488
 41
0.001488
  0
VERTEX
  8
0
 10
5.72336
 20
4.2825
 30
0.0
 40
0.001488
 41
0.001488
  0
VERTEX
  8
0
 10
5.73557
 20
4.23167
 30
0.0
 40
0.001488
 41
0.001488
  0
VERTEX
  8
0
 10
5.76247
 20
4.16678
 30
0.0
 40
0.001488
 41
0.001488
  0
VERTEX
  8
0
 10
5.77371
 20
4.14844
 30
0.0
 40
0.001488
 41
0.001488
  0
VERTEX
  8
0
 10
5.79915
 20
4.10682
 30
0.0
 40
0.001488
 41
0.001488
  0
VERTEX
  8
0
 10
5.84483
 20
4.05339
 30
0.0
 40
0.001488
 41
0.001488
  0
VERTEX
  8
0
 10
5.89828
 20
4.00776
 30
0.0
 40
0.001488
 41
0.001488
  0
VERTEX
  8
0
 10
5.95817
 20
3.97103
 30
0.0
 40
0.001488
 41
0.001488
  0
VERTEX
  8
0
 10
6.02311
 20
3.94417
 30
0.0
 40
0.001488
 41
0.001488
  0
VERTEX
  8
0
 10
6.09147
 20
3.92774
 30
0.0
 40
0.001488
 41
0.001488
  0
VERTEX
  8
0
 10
6.16151
 20
3.92225
 30
0.0
 40
0.001488
 41
0.001488
  0
VERTEX
  8
0
 10
6.23156
 20
3.92774
 30
0.0
 40
0.001488
 41
0.001488
  0
VERTEX
  8
0
 10
6.29986
 20
3.94417
 30
0.0
 40
0.001488
 41
0.001488
  0
SEQEND
 8
0
  0
POLYLINE
  8
0
 62
     5
 66
     1
 10
0
 20
0
 30
0.0
 70
     1
 40
0.107136
 41
0.107136
  0
VERTEX
  8
0
 10
1.34343
 20
4.37007
 30
0.0
 40
0.001488
 41
0.001488
  0
VERTEX
  8
0
 10
1.34896
 20
4.30003
 30
0.0
 40
0.001488
 41
0.001488
  0
VERTEX
  8
0
 10
1.35314
 20
4.2825
 30
0.0
 40
0.001488
 41
0.001488
  0
VERTEX
  8
0
 10
1.36534
 20
4.23167
 30
0.0
 40
0.001488
 41
0.001488
  0
VERTEX
  8
0
 10
1.39225
 20
4.16678
 30
0.0
 40
0.001488
 41
0.001488
  0
VERTEX
  8
0
 10
1.42893
 20
4.10682
 30
0.0
 40
0.001488
 41
0.001488
  0
VERTEX
  8
0
 10
1.47461
 20
4.05339
 30
0.0
 40
0.001488
 41
0.001488
  0
VERTEX
  8
0
 10
1.52806
 20
4.00776
 30
0.0
 40
0.001488
 41
0.001488
  0
VERTEX
  8
0
 10
1.58794
 20
3.97103
 30
0.0
 40
0.001488
 41
0.001488
  0
VERTEX
  8
0
 10
1.65289
 20
3.94417
 30
0.0
 40
0.001488
 41
0.001488
  0
VERTEX
  8
0
 10
1.72125
 20
3.92774
 30
0.0
 40
0.001488
 41
0.001488
  0
VERTEX
  8
0
 10
1.79129
 20
3.92225
 30
0.0
 40
0.001488
 41
0.001488
  0
VERTEX
  8
0
 10
1.86128
 20
3.92774
 30
0.0
 40
0.001488
 41
0.001488
  0
VERTEX
  8
0
 10
1.90349
 20
3.93788
 30
0.0
 40
0.001488
 41
0.001488
  0
VERTEX
  8
0
 10
1.92964
 20
3.94417
 30
0.0
 40
0.001488
 41
0.001488
  0
VERTEX
  8
0
 10
1.99457
 20
3.97103
 30
0.0
 40
0.001488
 41
0.001488
  0
VERTEX
  8
0
 10
2.05447
 20
4.00776
 30
0.0
 40
0.001488
 41
0.001488
  0
VERTEX
  8
0
 10
2.10792
 20
4.05339
 30
0.0
 40
0.001488
 41
0.001488
  0
VERTEX
  8
0
 10
2.1536
 20
4.10682
 30
0.0
 40
0.001488
 41
0.001488
  0
VERTEX
  8
0
 10
2.19026
 20
4.16678
 30
0.0
 40
0.001488
 41
0.001488
  0
VERTEX
  8
0
 10
2.21718
 20
4.23167
 30
0.0
 40
0.001488
 41
0.001488
  0
VERTEX
  8
0
 10
2.22939
 20
4.2825
 30
0.0
 40
0.001488
 41
0.001488
  0
VERTEX
  8
0
 10
2.23356
 20
4.30003
 30
0.0
 40
0.001488
 41
0.001488
  0
VERTEX
  8
0
 10
2.2391
 20
4.37007
 30
0.0
 40
0.001488
 41
0.001488
  0
VERTEX
  8
0
 10
2.23356
 20
4.44011
 30
0.0
 40
0.001488
 41
0.001488
  0
VERTEX
  8
0
 10
2.21718
 20
4.50846
 30
0.0
 40
0.001488
 41
0.001488
  0
VERTEX
  8
0
 10
2.19026
 20
4.57335
 30
0.0
 40
0.001488
 41
0.001488
  0
VERTEX
  8
0
 10
2.1536
 20
4.63331
 30
0.0
 40
0.001488
 41
0.001488
  0
VERTEX
  8
0
 10
2.10792
 20
4.68674
 30
0.0
 40
0.001488
 41
0.001488
  0
VERTEX
  8
0
 10
2.05447
 20
4.73236
 30
0.0
 40
0.001488
 41
0.001488
  0
VERTEX
  8
0
 10
1.99457
 20
4.7691
 30
0.0
 40
0.001488
 41
0.001488
  0
VERTEX
  8
0
 10
1.92964
 20
4.79596
 30
0.0
 40
0.001488
 41
0.001488
  0
VERTEX
  8
0
 10
1.90349
 20
4.80225
 30
0.0
 40
0.001488
 41
0.001488
  0
VERTEX
  8
0
 10
1.86128
 20
4.81239
 30
0.0
 40
0.001488
 41
0.001488
  0
VERTEX
  8
0
 10
1.79129
 20
4.81787
 30
0.0
 40
0.001488
 41
0.001488
  0
VERTEX
  8
0
 10
1.72125
 20
4.81239
 30
0.0
 40
0.001488
 41
0.001488
  0
VERTEX
  8
0
 10
1.65289
 20
4.79596
 30
0.0
 40
0.001488
 41
0.001488
  0
VERTEX
  8
0
 10
1.58794
 20
4.7691
 30
0.0
 40
0.001488
 41
0.001488
  0
VERTEX
  8
0
 10
1.52806
 20
4.73236
 30
0.0
 40
0.001488
 41
0.001488
  0
VERTEX
  8
0
 10
1.47461
 20
4.68674
 30
0.0
 40
0.001488
 41
0.001488
  0
VERTEX
  8
0
 10
1.42893
 20
4.63331
 30
0.0
 40
0.001488
 41
0.001488
  0
VERTEX
  8
0
 10
1.39225
 20
4.57335
 30
0.0
 40
0.001488
 41
0.001488
  0
VERTEX
  8
0
 10
1.36534
 20
4.50846
 30
0.0
 40
0.001488
 41
0.001488
  0
VERTEX
  8
0
 10
1.34896
 20
4.44011
 30
0.0
 40
0.001488
 41
0.001488
  0
VERTEX
  8
0
 10
1.34343
 20
4.37007
 30
0.0
 40
0.001488
 41
0.001488
  0
SEQEND
 8
0
  0
POLYLINE
  8
0
 62
     5
 66
     1
 10
0
 20
0
 30
0.0
 70
     1
 40
0.107136
 41
0.107136
  0
VERTEX
  8
0
 10
5.10379
 20
5.62349
 30
0.0
 40
0.001488
 41
0.001488
  0
VERTEX
  8
0
 10
5.12864
 20
5.68354
 30
0.0
 40
0.001488
 41
0.001488
  0
VERTEX
  8
0
 10
5.13064
 20
5.68842
 30
0.0
 40
0.001488
 41
0.001488
  0
VERTEX
  8
0
 10
5.14708
 20
5.75678
 30
0.0
 40
0.001488
 41
0.001488
  0
VERTEX
  8
0
 10
5.15261
 20
5.82682
 30
0.0
 40
0.001488
 41
0.001488
  0
VERTEX
  8
0
 10
5.14708
 20
5.89681
 30
0.0
 40
0.001488
 41
0.001488
  0
VERTEX
  8
0
 10
5.13064
 20
5.96517
 30
0.0
 40
0.001488
 41
0.001488
  0
VERTEX
  8
0
 10
5.12864
 20
5.97006
 30
0.0
 40
0.001488
 41
0.001488
  0
VERTEX
  8
0
 10
5.10379
 20
6.03011
 30
0.0
 40
0.001488
 41
0.001488
  0
VERTEX
  8
0
 10
5.06711
 20
6.09
 30
0.0
 40
0.001488
 41
0.001488
  0
VERTEX
  8
0
 10
5.02143
 20
6.14344
 30
0.0
 40
0.001488
 41
0.001488
  0
VERTEX
  8
0
 10
4.96799
 20
6.18913
 30
0.0
 40
0.001488
 41
0.001488
  0
VERTEX
  8
0
 10
4.92144
 20
6.21761
 30
0.0
 40
0.001488
 41
0.001488
  0
VERTEX
  8
0
 10
4.9081
 20
6.22581
 30
0.0
 40
0.001488
 41
0.001488
  0
VERTEX
  8
0
 10
4.84315
 20
6.25271
 30
0.0
 40
0.001488
 41
0.001488
  0
VERTEX
  8
0
 10
4.77479
 20
6.2691
 30
0.0
 40
0.001488
 41
0.001488
  0
VERTEX
  8
0
 10
4.70475
 20
6.27463
 30
0.0
 40
0.001488
 41
0.001488
  0
VERTEX
  8
0
 10
4.63471
 20
6.2691
 30
0.0
 40
0.001488
 41
0.001488
  0
VERTEX
  8
0
 10
4.56635
 20
6.25271
 30
0.0
 40
0.001488
 41
0.001488
  0
VERTEX
  8
0
 10
4.50142
 20
6.22581
 30
0.0
 40
0.001488
 41
0.001488
  0
VERTEX
  8
0
 10
4.48807
 20
6.21761
 30
0.0
 40
0.001488
 41
0.001488
  0
VERTEX
  8
0
 10
4.48361
 20
6.2149
 30
0.0
 40
0.001488
 41
0.001488
  0
VERTEX
  8
0
 10
4.44151
 20
6.18913
 30
0.0
 40
0.001488
 41
0.001488
  0
VERTEX
  8
0
 10
4.38807
 20
6.14344
 30
0.0
 40
0.001488
 41
0.001488
  0
VERTEX
  8
0
 10
4.34239
 20
6.09
 30
0.0
 40
0.001488
 41
0.001488
  0
VERTEX
  8
0
 10
4.30572
 20
6.03011
 30
0.0
 40
0.001488
 41
0.001488
  0
VERTEX
  8
0
 10
4.27881
 20
5.96517
 30
0.0
 40
0.001488
 41
0.001488
  0
VERTEX
  8
0
 10
4.26243
 20
5.89681
 30
0.0
 40
0.001488
 41
0.001488
  0
VERTEX
  8
0
 10
4.25689
 20
5.82682
 30
0.0
 40
0.001488
 41
0.001488
  0
VERTEX
  8
0
 10
4.26243
 20
5.75678
 30
0.0
 40
0.001488
 41
0.001488
  0
VERTEX
  8
0
 10
4.27881
 20
5.68842
 30
0.0
 40
0.001488
 41
0.001488
  0
VERTEX
  8
0
 10
4.30572
 20
5.62349
 30
0.0
 40
0.001488
 41
0.001488
  0
VERTEX
  8
0
 10
4.33686
 20
5.5726
 30
0.0
 40
0.001488
 41
0.001488
  0
VERTEX
  8
0
 10
4.34239
 20
5.56358
 30
0.0
 40
0.001488
 41
0.001488
  0
VERTEX
  8
0
 10
4.38807
 20
5.51014
 30
0.0
 40
0.001488
 41
0.001488
  0
VERTEX
  8
0
 10
4.44151
 20
5.46446
 30
0.0
 40
0.001488
 41
0.001488
  0
VERTEX
  8
0
 10
4.48361
 20
5.43869
 30
0.0
 40
0.001488
 41
0.001488
  0
VERTEX
  8
0
 10
4.50142
 20
5.42779
 30
0.0
 40
0.001488
 41
0.001488
  0
VERTEX
  8
0
 10
4.56635
 20
5.40088
 30
0.0
 40
0.001488
 41
0.001488
  0
VERTEX
  8
0
 10
4.63471
 20
5.3845
 30
0.0
 40
0.001488
 41
0.001488
  0
VERTEX
  8
0
 10
4.70475
 20
5.37896
 30
0.0
 40
0.001488
 41
0.001488
  0
VERTEX
  8
0
 10
4.77479
 20
5.3845
 30
0.0
 40
0.001488
 41
0.001488
  0
VERTEX
  8
0
 10
4.84315
 20
5.40088
 30
0.0
 40
0.001488
 41
0.001488
  0
VERTEX
  8
0
 10
4.9081
 20
5.42779
 30
0.0
 40
0.001488
 41
0.001488
  0
VERTEX
  8
0
 10
4.96799
 20
5.46446
 30
0.0
 40
0.001488
 41
0.001488
  0
VERTEX
  8
0
 10
5.02143
 20
5.51014
 30
0.0
 40
0.001488
 41
0.001488
  0
VERTEX
  8
0
 10
5.06711
 20
5.56358
 30
0.0
 40
0.001488
 41
0.001488
  0
VERTEX
  8
0
 10
5.0726
 20
5.5726
 30
0.0
 40
0.001488
 41
0.001488
  0
VERTEX
  8
0
 10
5.10379
 20
5.62349
 30
0.0
 40
0.001488
 41
0.001488
  0
SEQEND
 8
0
  0
POLYLINE
  8
0
 62
     5
 66
     1
 10
0
 20
0
 30
0.0
 70
     1
 40
0.107136
 41
0.107136
  0
VERTEX
  8
0
 10
0.222222
 20
8.4815
 30
0.0
 40
0.001488
 41
0.001488
  0
VERTEX
  8
0
 10
0.216417
 20
8.44493
 30
0.0
 40
0.001488
 41
0.001488
  0
VERTEX
  8
0
 10
0.222222
 20
8.40847
 30
0.0
 40
0.001488
 41
0.001488
  0
VERTEX
  8
0
 10
0.238986
 20
8.37554
 30
0.0
 40
0.001488
 41
0.001488
  0
VERTEX
  8
0
 10
0.265136
 20
8.34939
 30
0.0
 40
0.001488
 41
0.001488
  0
VERTEX
  8
0
 10
0.290853
 20
8.33626
 30
0.0
 40
0.001488
 41
0.001488
  0
VERTEX
  8
0
 10
0.298014
 20
8.33262
 30
0.0
 40
0.001488
 41
0.001488
  0
VERTEX
  8
0
 10
0.334581
 20
8.32682
 30
0.0
 40
0.001488
 41
0.001488
  0
VERTEX
  8
0
 10
0.371039
 20
8.33262
 30
0.0
 40
0.001488
 41
0.001488
  0
VERTEX
  8
0
 10
0.403971
 20
8.34939
 30
0.0
 40
0.001488
 41
0.001488
  0
VERTEX
  8
0
 10
0.430122
 20
8.37554
 30
0.0
 40
0.001488
 41
0.001488
  0
VERTEX
  8
0
 10
0.446886
 20
8.40847
 30
0.0
 40
0.001488
 41
0.001488
  0
VERTEX
  8
0
 10
0.452692
 20
8.44493
 30
0.0
 40
0.001488
 41
0.001488
  0
VERTEX
  8
0
 10
0.446886
 20
8.4815
 30
0.0
 40
0.001488
 41
0.001488
  0
VERTEX
  8
0
 10
0.430122
 20
8.51437
 30
0.0
 40
0.001488
 41
0.001488
  0
VERTEX
  8
0
 10
0.403971
 20
8.54053
 30
0.0
 40
0.001488
 41
0.001488
  0
VERTEX
  8
0
 10
0.371039
 20
8.55729
 30
0.0
 40
0.001488
 41
0.001488
  0
VERTEX
  8
0
 10
0.334581
 20
8.56304
 30
0.0
 40
0.001488
 41
0.001488
  0
VERTEX
  8
0
 10
0.298014
 20
8.55729
 30
0.0
 40
0.001488
 41
0.001488
  0
VERTEX
  8
0
 10
0.290853
 20
8.55365
 30
0.0
 40
0.001488
 41
0.001488
  0
VERTEX
  8
0
 10
0.265136
 20
8.54053
 30
0.0
 40
0.001488
 41
0.001488
  0
VERTEX
  8
0
 10
0.238986
 20
8.51437
 30
0.0
 40
0.001488
 41
0.001488
  0
VERTEX
  8
0
 10
0.222222
 20
8.4815
 30
0.0
 40
0.001488
 41
0.001488
  0
SEQEND
 8
0
  0
POLYLINE
  8
0
 62
     5
 66
     1
 10
0
 20
0
 30
0.0
 70
     1
 40
0.107136
 41
0.107136
  0
VERTEX
  8
0
 10
3.24799
 20
3.36117
 30
0.0
 40
0.001488
 41
0.001488
  0
VERTEX
  8
0
 10
3.19353
 20
3.35688
 30
0.0
 40
0.001488
 41
0.001488
  0
VERTEX
  8
0
 10
3.17796
 20
3.35562
 30
0.0
 40
0.001488
 41
0.001488
  0
VERTEX
  8
0
 10
3.1096
 20
3.33925
 30
0.0
 40
0.001488
 41
0.001488
  0
VERTEX
  8
0
 10
3.04471
 20
3.31233
 30
0.0
 40
0.001488
 41
0.001488
  0
VERTEX
  8
0
 10
2.98475
 20
3.27567
 30
0.0
 40
0.001488
 41
0.001488
  0
VERTEX
  8
0
 10
2.93132
 20
3.22999
 30
0.0
 40
0.001488
 41
0.001488
  0
VERTEX
  8
0
 10
2.88569
 20
3.17654
 30
0.0
 40
0.001488
 41
0.001488
  0
VERTEX
  8
0
 10
2.84896
 20
3.11664
 30
0.0
 40
0.001488
 41
0.001488
  0
VERTEX
  8
0
 10
2.8221
 20
3.05171
 30
0.0
 40
0.001488
 41
0.001488
  0
VERTEX
  8
0
 10
2.80783
 20
2.9924
 30
0.0
 40
0.001488
 41
0.001488
  0
VERTEX
  8
0
 10
2.80567
 20
2.98335
 30
0.0
 40
0.001488
 41
0.001488
  0
VERTEX
  8
0
 10
2.80018
 20
2.91336
 30
0.0
 40
0.001488
 41
0.001488
  0
VERTEX
  8
0
 10
2.80567
 20
2.84332
 30
0.0
 40
0.001488
 41
0.001488
  0
VERTEX
  8
0
 10
2.8221
 20
2.77496
 30
0.0
 40
0.001488
 41
0.001488
  0
VERTEX
  8
0
 10
2.84896
 20
2.71001
 30
0.0
 40
0.001488
 41
0.001488
  0
VERTEX
  8
0
 10
2.88569
 20
2.65013
 30
0.0
 40
0.001488
 41
0.001488
  0
VERTEX
  8
0
 10
2.93132
 20
2.59668
 30
0.0
 40
0.001488
 41
0.001488
  0
VERTEX
  8
0
 10
2.98475
 20
2.551
 30
0.0
 40
0.001488
 41
0.001488
  0
VERTEX
  8
0
 10
3.04471
 20
2.51432
 30
0.0
 40
0.001488
 41
0.001488
  0
VERTEX
  8
0
 10
3.1096
 20
2.48742
 30
0.0
 40
0.001488
 41
0.001488
  0
VERTEX
  8
0
 10
3.17796
 20
2.47103
 30
0.0
 40
0.001488
 41
0.001488
  0
VERTEX
  8
0
 10
3.19353
 20
2.46978
 30
0.0
 40
0.001488
 41
0.001488
  0
VERTEX
  8
0
 10
3.24799
 20
2.4655
 30
0.0
 40
0.001488
 41
0.001488
  0
VERTEX
  8
0
 10
3.31803
 20
2.47103
 30
0.0
 40
0.001488
 41
0.001488
  0
VERTEX
  8
0
 10
3.38639
 20
2.48742
 30
0.0
 40
0.001488
 41
0.001488
  0
VERTEX
  8
0
 10
3.45133
 20
2.51432
 30
0.0
 40
0.001488
 41
0.001488
  0
VERTEX
  8
0
 10
3.51129
 20
2.551
 30
0.0
 40
0.001488
 41
0.001488
  0
VERTEX
  8
0
 10
3.56467
 20
2.59668
 30
0.0
 40
0.001488
 41
0.001488
  0
VERTEX
  8
0
 10
3.61035
 20
2.65013
 30
0.0
 40
0.001488
 41
0.001488
  0
VERTEX
  8
0
 10
3.64703
 20
2.71001
 30
0.0
 40
0.001488
 41
0.001488
  0
VERTEX
  8
0
 10
3.67393
 20
2.77496
 30
0.0
 40
0.001488
 41
0.001488
  0
VERTEX
  8
0
 10
3.69038
 20
2.84332
 30
0.0
 40
0.001488
 41
0.001488
  0
VERTEX
  8
0
 10
3.69586
 20
2.91336
 30
0.0
 40
0.001488
 41
0.001488
  0
VERTEX
  8
0
 10
3.69038
 20
2.98335
 30
0.0
 40
0.001488
 41
0.001488
  0
VERTEX
  8
0
 10
3.68821
 20
2.9924
 30
0.0
 40
0.001488
 41
0.001488
  0
VERTEX
  8
0
 10
3.67393
 20
3.05171
 30
0.0
 40
0.001488
 41
0.001488
  0
VERTEX
  8
0
 10
3.64703
 20
3.11664
 30
0.0
 40
0.001488
 41
0.001488
  0
VERTEX
  8
0
 10
3.61035
 20
3.17654
 30
0.0
 40
0.001488
 41
0.001488
  0
VERTEX
  8
0
 10
3.56467
 20
3.22999
 30
0.0
 40
0.001488
 41
0.001488
  0
VERTEX
  8
0
 10
3.51129
 20
3.27567
 30
0.0
 40
0.001488
 41
0.001488
  0
VERTEX
  8
0
 10
3.45133
 20
3.31233
 30
0.0
 40
0.001488
 41
0.001488
  0
VERTEX
  8
0
 10
3.38639
 20
3.33925
 30
0.0
 40
0.001488
 41
0.001488
  0
VERTEX
  8
0
 10
3.31803
 20
3.35562
 30
0.0
 40
0.001488
 41
0.001488
  0
VERTEX
  8
0
 10
3.24799
 20
3.36117
 30
0.0
 40
0.001488
 41
0.001488
  0
SEQEND
 8
0
  0
POLYLINE
  8
0
 62
     5
 66
     1
 10
0
 20
0
 30
0.0
 70
     1
 40
0.107136
 41
0.107136
  0
VERTEX
  8
0
 10
5.71918
 20
5.89681
 30
0.0
 40
0.001488
 41
0.001488
  0
VERTEX
  8
0
 10
5.71365
 20
5.82682
 30
0.0
 40
0.001488
 41
0.001488
  0
VERTEX
  8
0
 10
5.71918
 20
5.75678
 30
0.0
 40
0.001488
 41
0.001488
  0
VERTEX
  8
0
 10
5.73557
 20
5.68842
 30
0.0
 40
0.001488
 41
0.001488
  0
VERTEX
  8
0
 10
5.76247
 20
5.62349
 30
0.0
 40
0.001488
 41
0.001488
  0
VERTEX
  8
0
 10
5.77371
 20
5.60514
 30
0.0
 40
0.001488
 41
0.001488
  0
VERTEX
  8
0
 10
5.79368
 20
5.5726
 30
0.0
 40
0.001488
 41
0.001488
  0
VERTEX
  8
0
 10
5.79915
 20
5.56358
 30
0.0
 40
0.001488
 41
0.001488
  0
VERTEX
  8
0
 10
5.84483
 20
5.51014
 30
0.0
 40
0.001488
 41
0.001488
  0
VERTEX
  8
0
 10
5.89828
 20
5.46446
 30
0.0
 40
0.001488
 41
0.001488
  0
VERTEX
  8
0
 10
5.95817
 20
5.42779
 30
0.0
 40
0.001488
 41
0.001488
  0
VERTEX
  8
0
 10
6.02311
 20
5.40088
 30
0.0
 40
0.001488
 41
0.001488
  0
VERTEX
  8
0
 10
6.09147
 20
5.3845
 30
0.0
 40
0.001488
 41
0.001488
  0
VERTEX
  8
0
 10
6.16151
 20
5.37896
 30
0.0
 40
0.001488
 41
0.001488
  0
VERTEX
  8
0
 10
6.23156
 20
5.3845
 30
0.0
 40
0.001488
 41
0.001488
  0
VERTEX
  8
0
 10
6.29986
 20
5.40088
 30
0.0
 40
0.001488
 41
0.001488
  0
VERTEX
  8
0
 10
6.36481
 20
5.42779
 30
0.0
 40
0.001488
 41
0.001488
  0
VERTEX
  8
0
 10
6.41872
 20
5.46083
 30
0.0
 40
0.001488
 41
0.001488
  0
VERTEX
  8
0
 10
6.42475
 20
5.46446
 30
0.0
 40
0.001488
 41
0.001488
  0
VERTEX
  8
0
 10
6.47814
 20
5.51014
 30
0.0
 40
0.001488
 41
0.001488
  0
VERTEX
  8
0
 10
6.52382
 20
5.56358
 30
0.0
 40
0.001488
 41
0.001488
  0
VERTEX
  8
0
 10
6.52935
 20
5.5726
 30
0.0
 40
0.001488
 41
0.001488
  0
VERTEX
  8
0
 10
6.56049
 20
5.62349
 30
0.0
 40
0.001488
 41
0.001488
  0
VERTEX
  8
0
 10
6.5874
 20
5.68842
 30
0.0
 40
0.001488
 41
0.001488
  0
VERTEX
  8
0
 10
6.60385
 20
5.75678
 30
0.0
 40
0.001488
 41
0.001488
  0
VERTEX
  8
0
 10
6.60932
 20
5.82682
 30
0.0
 40
0.001488
 41
0.001488
  0
VERTEX
  8
0
 10
6.60385
 20
5.89681
 30
0.0
 40
0.001488
 41
0.001488
  0
VERTEX
  8
0
 10
6.5874
 20
5.96517
 30
0.0
 40
0.001488
 41
0.001488
  0
VERTEX
  8
0
 10
6.56049
 20
6.03011
 30
0.0
 40
0.001488
 41
0.001488
  0
VERTEX
  8
0
 10
6.52382
 20
6.09
 30
0.0
 40
0.001488
 41
0.001488
  0
VERTEX
  8
0
 10
6.47814
 20
6.14344
 30
0.0
 40
0.001488
 41
0.001488
  0
VERTEX
  8
0
 10
6.42475
 20
6.18913
 30
0.0
 40
0.001488
 41
0.001488
  0
VERTEX
  8
0
 10
6.41872
 20
6.19276
 30
0.0
 40
0.001488
 41
0.001488
  0
VERTEX
  8
0
 10
6.37819
 20
6.21761
 30
0.0
 40
0.001488
 41
0.001488
  0
VERTEX
  8
0
 10
6.36481
 20
6.22581
 30
0.0
 40
0.001488
 41
0.001488
  0
VERTEX
  8
0
 10
6.29986
 20
6.25271
 30
0.0
 40
0.001488
 41
0.001488
  0
VERTEX
  8
0
 10
6.23156
 20
6.2691
 30
0.0
 40
0.001488
 41
0.001488
  0
VERTEX
  8
0
 10
6.16151
 20
6.27463
 30
0.0
 40
0.001488
 41
0.001488
  0
VERTEX
  8
0
 10
6.09147
 20
6.2691
 30
0.0
 40
0.001488
 41
0.001488
  0
VERTEX
  8
0
 10
6.02311
 20
6.25271
 30
0.0
 40
0.001488
 41
0.001488
  0
VERTEX
  8
0
 10
5.95817
 20
6.22581
 30
0.0
 40
0.001488
 41
0.001488
  0
VERTEX
  8
0
 10
5.94482
 20
6.21761
 30
0.0
 40
0.001488
 41
0.001488
  0
VERTEX
  8
0
 10
5.89828
 20
6.18913
 30
0.0
 40
0.001488
 41
0.001488
  0
VERTEX
  8
0
 10
5.84483
 20
6.14344
 30
0.0
 40
0.001488
 41
0.001488
  0
VERTEX
  8
0
 10
5.79915
 20
6.09
 30
0.0
 40
0.001488
 41
0.001488
  0
VERTEX
  8
0
 10
5.77371
 20
6.04844
 30
0.0
 40
0.001488
 41
0.001488
  0
VERTEX
  8
0
 10
5.76247
 20
6.03011
 30
0.0
 40
0.001488
 41
0.001488
  0
VERTEX
  8
0
 10
5.73557
 20
5.96517
 30
0.0
 40
0.001488
 41
0.001488
  0
VERTEX
  8
0
 10
5.71918
 20
5.89681
 30
0.0
 40
0.001488
 41
0.001488
  0
SEQEND
 8
0
  0
POLYLINE
  8
0
 62
     5
 66
     1
 10
0
 20
0
 30
0.0
 70
     1
 40
0.107136
 41
0.107136
  0
VERTEX
  8
0
 10
7.71376
 20
1.19135
 30
0.0
 40
0.001488
 41
0.001488
  0
VERTEX
  8
0
 10
7.70882
 20
1.19634
 30
0.0
 40
0.001488
 41
0.001488
  0
VERTEX
  8
0
 10
7.68767
 20
1.2175
 30
0.0
 40
0.001488
 41
0.001488
  0
VERTEX
  8
0
 10
7.65474
 20
1.23427
 30
0.0
 40
0.001488
 41
0.001488
  0
VERTEX
  8
0
 10
7.61817
 20
1.24007
 30
0.0
 40
0.001488
 41
0.001488
  0
VERTEX
  8
0
 10
7.58171
 20
1.23427
 30
0.0
 40
0.001488
 41
0.001488
  0
VERTEX
  8
0
 10
7.54878
 20
1.2175
 30
0.0
 40
0.001488
 41
0.001488
  0
VERTEX
  8
0
 10
7.52263
 20
1.19135
 30
0.0
 40
0.001488
 41
0.001488
  0
VERTEX
  8
0
 10
7.50586
 20
1.15848
 30
0.0
 40
0.001488
 41
0.001488
  0
VERTEX
  8
0
 10
7.50006
 20
1.12196
 30
0.0
 40
0.001488
 41
0.001488
  0
VERTEX
  8
0
 10
7.50586
 20
1.08545
 30
0.0
 40
0.001488
 41
0.001488
  0
VERTEX
  8
0
 10
7.52024
 20
1.05729
 30
0.0
 40
0.001488
 41
0.001488
  0
VERTEX
  8
0
 10
7.52263
 20
1.05252
 30
0.0
 40
0.001488
 41
0.001488
  0
VERTEX
  8
0
 10
7.54878
 20
1.02642
 30
0.0
 40
0.001488
 41
0.001488
  0
VERTEX
  8
0
 10
7.58171
 20
1.00966
 30
0.0
 40
0.001488
 41
0.001488
  0
VERTEX
  8
0
 10
7.61817
 20
1.00385
 30
0.0
 40
0.001488
 41
0.001488
  0
VERTEX
  8
0
 10
7.65474
 20
1.00966
 30
0.0
 40
0.001488
 41
0.001488
  0
VERTEX
  8
0
 10
7.68767
 20
1.02642
 30
0.0
 40
0.001488
 41
0.001488
  0
VERTEX
  8
0
 10
7.71376
 20
1.05252
 30
0.0
 40
0.001488
 41
0.001488
  0
VERTEX
  8
0
 10
7.73058
 20
1.08545
 30
0.0
 40
0.001488
 41
0.001488
  0
VERTEX
  8
0
 10
7.73633
 20
1.12196
 30
0.0
 40
0.001488
 41
0.001488
  0
VERTEX
  8
0
 10
7.73058
 20
1.15848
 30
0.0
 40
0.001488
 41
0.001488
  0
VERTEX
  8
0
 10
7.71376
 20
1.19135
 30
0.0
 40
0.001488
 41
0.001488
  0
SEQEND
 8
0
  0
POLYLINE
  8
0
 62
     5
 66
     1
 10
0
 20
0
 30
0.0
 70
     1
 40
0.107136
 41
0.107136
  0
VERTEX
  8
0
 10
1.36534
 20
3.05171
 30
0.0
 40
0.001488
 41
0.001488
  0
VERTEX
  8
0
 10
1.35113
 20
2.9924
 30
0.0
 40
0.001488
 41
0.001488
  0
VERTEX
  8
0
 10
1.34896
 20
2.98335
 30
0.0
 40
0.001488
 41
0.001488
  0
VERTEX
  8
0
 10
1.34343
 20
2.91336
 30
0.0
 40
0.001488
 41
0.001488
  0
VERTEX
  8
0
 10
1.34896
 20
2.84332
 30
0.0
 40
0.001488
 41
0.001488
  0
VERTEX
  8
0
 10
1.36534
 20
2.77496
 30
0.0
 40
0.001488
 41
0.001488
  0
VERTEX
  8
0
 10
1.39225
 20
2.71001
 30
0.0
 40
0.001488
 41
0.001488
  0
VERTEX
  8
0
 10
1.42893
 20
2.65013
 30
0.0
 40
0.001488
 41
0.001488
  0
VERTEX
  8
0
 10
1.47461
 20
2.59668
 30
0.0
 40
0.001488
 41
0.001488
  0
VERTEX
  8
0
 10
1.52806
 20
2.551
 30
0.0
 40
0.001488
 41
0.001488
  0
VERTEX
  8
0
 10
1.58794
 20
2.51432
 30
0.0
 40
0.001488
 41
0.001488
  0
VERTEX
  8
0
 10
1.65289
 20
2.48742
 30
0.0
 40
0.001488
 41
0.001488
  0
VERTEX
  8
0
 10
1.72125
 20
2.47103
 30
0.0
 40
0.001488
 41
0.001488
  0
VERTEX
  8
0
 10
1.79129
 20
2.4655
 30
0.0
 40
0.001488
 41
0.001488
  0
VERTEX
  8
0
 10
1.86128
 20
2.47103
 30
0.0
 40
0.001488
 41
0.001488
  0
VERTEX
  8
0
 10
1.90349
 20
2.48113
 30
0.0
 40
0.001488
 41
0.001488
  0
VERTEX
  8
0
 10
1.92964
 20
2.48742
 30
0.0
 40
0.001488
 41
0.001488
  0
VERTEX
  8
0
 10
1.99457
 20
2.51432
 30
0.0
 40
0.001488
 41
0.001488
  0
VERTEX
  8
0
 10
2.05447
 20
2.551
 30
0.0
 40
0.001488
 41
0.001488
  0
VERTEX
  8
0
 10
2.10792
 20
2.59668
 30
0.0
 40
0.001488
 41
0.001488
  0
VERTEX
  8
0
 10
2.1536
 20
2.65013
 30
0.0
 40
0.001488
 41
0.001488
  0
VERTEX
  8
0
 10
2.19026
 20
2.71001
 30
0.0
 40
0.001488
 41
0.001488
  0
VERTEX
  8
0
 10
2.21718
 20
2.77496
 30
0.0
 40
0.001488
 41
0.001488
  0
VERTEX
  8
0
 10
2.23356
 20
2.84332
 30
0.0
 40
0.001488
 41
0.001488
  0
VERTEX
  8
0
 10
2.2391
 20
2.91336
 30
0.0
 40
0.001488
 41
0.001488
  0
VERTEX
  8
0
 10
2.23356
 20
2.98335
 30
0.0
 40
0.001488
 41
0.001488
  0
VERTEX
  8
0
 10
2.23139
 20
2.9924
 30
0.0
 40
0.001488
 41
0.001488
  0
VERTEX
  8
0
 10
2.21718
 20
3.05171
 30
0.0
 40
0.001488
 41
0.001488
  0
VERTEX
  8
0
 10
2.19026
 20
3.11664
 30
0.0
 40
0.001488
 41
0.001488
  0
VERTEX
  8
0
 10
2.1536
 20
3.17654
 30
0.0
 40
0.001488
 41
0.001488
  0
VERTEX
  8
0
 10
2.10792
 20
3.22999
 30
0.0
 40
0.001488
 41
0.001488
  0
VERTEX
  8
0
 10
2.05447
 20
3.27567
 30
0.0
 40
0.001488
 41
0.001488
  0
VERTEX
  8
0
 10
1.99457
 20
3.31233
 30
0.0
 40
0.001488
 41
0.001488
  0
VERTEX
  8
0
 10
1.92964
 20
3.33925
 30
0.0
 40
0.001488
 41
0.001488
  0
VERTEX
  8
0
 10
1.90349
 20
3.34554
 30
0.0
 40
0.001488
 41
0.001488
  0
VERTEX
  8
0
 10
1.86128
 20
3.35562
 30
0.0
 40
0.001488
 41
0.001488
  0
VERTEX
  8
0
 10
1.79129
 20
3.36117
 30
0.0
 40
0.001488
 41
0.001488
  0
VERTEX
  8
0
 10
1.72125
 20
3.35562
 30
0.0
 40
0.001488
 41
0.001488
  0
VERTEX
  8
0
 10
1.65289
 20
3.33925
 30
0.0
 40
0.001488
 41
0.001488
  0
VERTEX
  8
0
 10
1.58794
 20
3.31233
 30
0.0
 40
0.001488
 41
0.001488
  0
VERTEX
  8
0
 10
1.52806
 20
3.27567
 30
0.0
 40
0.001488
 41
0.001488
  0
VERTEX
  8
0
 10
1.47461
 20
3.22999
 30
0.0
 40
0.001488
 41
0.001488
  0
VERTEX
  8
0
 10
1.42893
 20
3.17654
 30
0.0
 40
0.001488
 41
0.001488
  0
VERTEX
  8
0
 10
1.39225
 20
3.11664
 30
0.0
 40
0.001488
 41
0.001488
  0
VERTEX
  8
0
 10
1.36534
 20
3.05171
 30
0.0
 40
0.001488
 41
0.001488
  0
SEQEND
 8
0
  0
POLYLINE
  8
0
 62
     5
 66
     1
 10
0
 20
0
 30
0.0
 70
     1
 40
0.107136
 41
0.107136
  0
VERTEX
  8
0
 10
0.222222
 20
1.15848
 30
0.0
 40
0.001488
 41
0.001488
  0
VERTEX
  8
0
 10
0.216417
 20
1.12196
 30
0.0
 40
0.001488
 41
0.001488
  0
VERTEX
  8
0
 10
0.222222
 20
1.08545
 30
0.0
 40
0.001488
 41
0.001488
  0
VERTEX
  8
0
 10
0.238986
 20
1.05252
 30
0.0
 40
0.001488
 41
0.001488
  0
VERTEX
  8
0
 10
0.265136
 20
1.02642
 30
0.0
 40
0.001488
 41
0.001488
  0
VERTEX
  8
0
 10
0.290853
 20
1.01329
 30
0.0
 40
0.001488
 41
0.001488
  0
VERTEX
  8
0
 10
0.298014
 20
1.00966
 30
0.0
 40
0.001488
 41
0.001488
  0
VERTEX
  8
0
 10
0.334581
 20
1.00385
 30
0.0
 40
0.001488
 41
0.001488
  0
VERTEX
  8
0
 10
0.371039
 20
1.00966
 30
0.0
 40
0.001488
 41
0.001488
  0
VERTEX
  8
0
 10
0.403971
 20
1.02642
 30
0.0
 40
0.001488
 41
0.001488
  0
VERTEX
  8
0
 10
0.430122
 20
1.05252
 30
0.0
 40
0.001488
 41
0.001488
  0
VERTEX
  8
0
 10
0.446886
 20
1.08545
 30
0.0
 40
0.001488
 41
0.001488
  0
VERTEX
  8
0
 10
0.452692
 20
1.12196
 30
0.0
 40
0.001488
 41
0.001488
  0
VERTEX
  8
0
 10
0.446886
 20
1.15848
 30
0.0
 40
0.001488
 41
0.001488
  0
VERTEX
  8
0
 10
0.430122
 20
1.19135
 30
0.0
 40
0.001488
 41
0.001488
  0
VERTEX
  8
0
 10
0.403971
 20
1.2175
 30
0.0
 40
0.001488
 41
0.001488
  0
VERTEX
  8
0
 10
0.371039
 20
1.23427
 30
0.0
 40
0.001488
 41
0.001488
  0
VERTEX
  8
0
 10
0.334581
 20
1.24007
 30
0.0
 40
0.001488
 41
0.001488
  0
VERTEX
  8
0
 10
0.298014
 20
1.23427
 30
0.0
 40
0.001488
 41
0.001488
  0
VERTEX
  8
0
 10
0.290853
 20
1.23063
 30
0.0
 40
0.001488
 41
0.001488
  0
VERTEX
  8
0
 10
0.265136
 20
1.2175
 30
0.0
 40
0.001488
 41
0.001488
  0
VERTEX
  8
0
 10
0.238986
 20
1.19135
 30
0.0
 40
0.001488
 41
0.001488
  0
VERTEX
  8
0
 10
0.222222
 20
1.15848
 30
0.0
 40
0.001488
 41
0.001488
  0
SEQEND
 8
0
  0
POLYLINE
  8
0
 62
     5
 66
     1
 10
0
 20
0
 30
0.0
 70
     1
 40
0.107136
 41
0.107136
  0
VERTEX
  8
0
 10
2.51964
 20
7.15067
 30
0.0
 40
0.001488
 41
0.001488
  0
VERTEX
  8
0
 10
2.5485
 20
7.15294
 30
0.0
 40
0.001488
 41
0.001488
  0
VERTEX
  8
0
 10
2.58968
 20
7.15614
 30
0.0
 40
0.001488
 41
0.001488
  0
VERTEX
  8
0
 10
2.65804
 20
7.17258
 30
0.0
 40
0.001488
 41
0.001488
  0
VERTEX
  8
0
 10
2.72293
 20
7.19949
 30
0.0
 40
0.001488
 41
0.001488
  0
VERTEX
  8
0
 10
2.78288
 20
7.23617
 30
0.0
 40
0.001488
 41
0.001488
  0
VERTEX
  8
0
 10
2.83632
 20
7.28185
 30
0.0
 40
0.001488
 41
0.001488
  0
VERTEX
  8
0
 10
2.88194
 20
7.33529
 30
0.0
 40
0.001488
 41
0.001488
  0
VERTEX
  8
0
 10
2.91868
 20
7.39518
 30
0.0
 40
0.001488
 41
0.001488
  0
VERTEX
  8
0
 10
2.94553
 20
7.46013
 30
0.0
 40
0.001488
 41
0.001488
  0
VERTEX
  8
0
 10
2.95697
 20
7.50771
 30
0.0
 40
0.001488
 41
0.001488
  0
VERTEX
  8
0
 10
2.96197
 20
7.52843
 30
0.0
 40
0.001488
 41
0.001488
  0
VERTEX
  8
0
 10
2.9675
 20
7.59847
 30
0.0
 40
0.001488
 41
0.001488
  0
VERTEX
  8
0
 10
2.96197
 20
7.66851
 30
0.0
 40
0.001488
 41
0.001488
  0
VERTEX
  8
0
 10
2.94553
 20
7.73687
 30
0.0
 40
0.001488
 41
0.001488
  0
VERTEX
  8
0
 10
2.91868
 20
7.80181
 30
0.0
 40
0.001488
 41
0.001488
  0
VERTEX
  8
0
 10
2.88194
 20
7.86171
 30
0.0
 40
0.001488
 41
0.001488
  0
VERTEX
  8
0
 10
2.83632
 20
7.91515
 30
0.0
 40
0.001488
 41
0.001488
  0
VERTEX
  8
0
 10
2.78288
 20
7.96083
 30
0.0
 40
0.001488
 41
0.001488
  0
VERTEX
  8
0
 10
2.72293
 20
7.9975
 30
0.0
 40
0.001488
 41
0.001488
  0
VERTEX
  8
0
 10
2.65804
 20
8.02442
 30
0.0
 40
0.001488
 41
0.001488
  0
VERTEX
  8
0
 10
2.58968
 20
8.04081
 30
0.0
 40
0.001488
 41
0.001488
  0
VERTEX
  8
0
 10
2.5485
 20
8.04406
 30
0.0
 40
0.001488
 41
0.001488
  0
VERTEX
  8
0
 10
2.51964
 20
8.04633
 30
0.0
 40
0.001488
 41
0.001488
  0
VERTEX
  8
0
 10
2.4496
 20
8.04081
 30
0.0
 40
0.001488
 41
0.001488
  0
VERTEX
  8
0
 10
2.38124
 20
8.02442
 30
0.0
 40
0.001488
 41
0.001488
  0
VERTEX
  8
0
 10
2.31635
 20
7.9975
 30
0.0
 40
0.001488
 41
0.001488
  0
VERTEX
  8
0
 10
2.2564
 20
7.96083
 30
0.0
 40
0.001488
 41
0.001488
  0
VERTEX
  8
0
 10
2.20296
 20
7.91515
 30
0.0
 40
0.001488
 41
0.001488
  0
VERTEX
  8
0
 10
2.15728
 20
7.86171
 30
0.0
 40
0.001488
 41
0.001488
  0
VERTEX
  8
0
 10
2.12061
 20
7.80181
 30
0.0
 40
0.001488
 41
0.001488
  0
VERTEX
  8
0
 10
2.09369
 20
7.73687
 30
0.0
 40
0.001488
 41
0.001488
  0
VERTEX
  8
0
 10
2.07726
 20
7.66851
 30
0.0
 40
0.001488
 41
0.001488
  0
VERTEX
  8
0
 10
2.07178
 20
7.59847
 30
0.0
 40
0.001488
 41
0.001488
  0
VERTEX
  8
0
 10
2.07726
 20
7.52843
 30
0.0
 40
0.001488
 41
0.001488
  0
VERTEX
  8
0
 10
2.08225
 20
7.50771
 30
0.0
 40
0.001488
 41
0.001488
  0
VERTEX
  8
0
 10
2.09369
 20
7.46013
 30
0.0
 40
0.001488
 41
0.001488
  0
VERTEX
  8
0
 10
2.12061
 20
7.39518
 30
0.0
 40
0.001488
 41
0.001488
  0
VERTEX
  8
0
 10
2.15728
 20
7.33529
 30
0.0
 40
0.001488
 41
0.001488
  0
VERTEX
  8
0
 10
2.20296
 20
7.28185
 30
0.0
 40
0.001488
 41
0.001488
  0
VERTEX
  8
0
 10
2.2564
 20
7.23617
 30
0.0
 40
0.001488
 41
0.001488
  0
VERTEX
  8
0
 10
2.31635
 20
7.19949
 30
0.0
 40
0.001488
 41
0.001488
  0
VERTEX
  8
0
 10
2.38124
 20
7.17258
 30
0.0
 40
0.001488
 41
0.001488
  0
VERTEX
  8
0
 10
2.4496
 20
7.15614
 30
0.0
 40
0.001488
 41
0.001488
  0
VERTEX
  8
0
 10
2.51964
 20
7.15067
 30
0.0
 40
0.001488
 41
0.001488
  0
SEQEND
 8
0
  0
POLYLINE
  8
0
 62
     5
 66
     1
 10
0
 20
0
 30
0.0
 70
     1
 40
0.107136
 41
0.107136
  0
VERTEX
  8
0
 10
2.84896
 20
1.25331
 30
0.0
 40
0.001488
 41
0.001488
  0
VERTEX
  8
0
 10
2.88569
 20
1.19336
 30
0.0
 40
0.001488
 41
0.001488
  0
VERTEX
  8
0
 10
2.93132
 20
1.13992
 30
0.0
 40
0.001488
 41
0.001488
  0
VERTEX
  8
0
 10
2.98475
 20
1.09429
 30
0.0
 40
0.001488
 41
0.001488
  0
VERTEX
  8
0
 10
3.04471
 20
1.05756
 30
0.0
 40
0.001488
 41
0.001488
  0
VERTEX
  8
0
 10
3.04536
 20
1.05729
 30
0.0
 40
0.001488
 41
0.001488
  0
VERTEX
  8
0
 10
3.1096
 20
1.03071
 30
0.0
 40
0.001488
 41
0.001488
  0
VERTEX
  8
0
 10
3.17796
 20
1.01427
 30
0.0
 40
0.001488
 41
0.001488
  0
VERTEX
  8
0
 10
3.19353
 20
1.01307
 30
0.0
 40
0.001488
 41
0.001488
  0
VERTEX
  8
0
 10
3.24799
 20
1.00879
 30
0.0
 40
0.001488
 41
0.001488
  0
VERTEX
  8
0
 10
3.31803
 20
1.01427
 30
0.0
 40
0.001488
 41
0.001488
  0
VERTEX
  8
0
 10
3.38639
 20
1.03071
 30
0.0
 40
0.001488
 41
0.001488
  0
VERTEX
  8
0
 10
3.45068
 20
1.05729
 30
0.0
 40
0.001488
 41
0.001488
  0
VERTEX
  8
0
 10
3.45133
 20
1.05756
 30
0.0
 40
0.001488
 41
0.001488
  0
VERTEX
  8
0
 10
3.51129
 20
1.09429
 30
0.0
 40
0.001488
 41
0.001488
  0
VERTEX
  8
0
 10
3.56467
 20
1.13992
 30
0.0
 40
0.001488
 41
0.001488
  0
VERTEX
  8
0
 10
3.61035
 20
1.19336
 30
0.0
 40
0.001488
 41
0.001488
  0
VERTEX
  8
0
 10
3.64703
 20
1.25331
 30
0.0
 40
0.001488
 41
0.001488
  0
VERTEX
  8
0
 10
3.67393
 20
1.3182
 30
0.0
 40
0.001488
 41
0.001488
  0
VERTEX
  8
0
 10
3.69038
 20
1.38656
 30
0.0
 40
0.001488
 41
0.001488
  0
VERTEX
  8
0
 10
3.69586
 20
1.4566
 30
0.0
 40
0.001488
 41
0.001488
  0
VERTEX
  8
0
 10
3.69038
 20
1.52664
 30
0.0
 40
0.001488
 41
0.001488
  0
VERTEX
  8
0
 10
3.67393
 20
1.595
 30
0.0
 40
0.001488
 41
0.001488
  0
VERTEX
  8
0
 10
3.64703
 20
1.65989
 30
0.0
 40
0.001488
 41
0.001488
  0
VERTEX
  8
0
 10
3.62104
 20
1.70236
 30
0.0
 40
0.001488
 41
0.001488
  0
VERTEX
  8
0
 10
3.61035
 20
1.71983
 30
0.0
 40
0.001488
 41
0.001488
  0
VERTEX
  8
0
 10
3.56467
 20
1.77328
 30
0.0
 40
0.001488
 41
0.001488
  0
VERTEX
  8
0
 10
3.51129
 20
1.8189
 30
0.0
 40
0.001488
 41
0.001488
  0
VERTEX
  8
0
 10
3.45133
 20
1.85562
 30
0.0
 40
0.001488
 41
0.001488
  0
VERTEX
  8
0
 10
3.38639
 20
1.88249
 30
0.0
 40
0.001488
 41
0.001488
  0
VERTEX
  8
0
 10
3.31803
 20
1.89893
 30
0.0
 40
0.001488
 41
0.001488
  0
VERTEX
  8
0
 10
3.24799
 20
1.90446
 30
0.0
 40
0.001488
 41
0.001488
  0
VERTEX
  8
0
 10
3.19353
 20
1.90018
 30
0.0
 40
0.001488
 41
0.001488
  0
VERTEX
  8
0
 10
3.17796
 20
1.89893
 30
0.0
 40
0.001488
 41
0.001488
  0
VERTEX
  8
0
 10
3.1096
 20
1.88249
 30
0.0
 40
0.001488
 41
0.001488
  0
VERTEX
  8
0
 10
3.04471
 20
1.85562
 30
0.0
 40
0.001488
 41
0.001488
  0
VERTEX
  8
0
 10
2.98475
 20
1.8189
 30
0.0
 40
0.001488
 41
0.001488
  0
VERTEX
  8
0
 10
2.93132
 20
1.77328
 30
0.0
 40
0.001488
 41
0.001488
  0
VERTEX
  8
0
 10
2.88569
 20
1.71983
 30
0.0
 40
0.001488
 41
0.001488
  0
VERTEX
  8
0
 10
2.87494
 20
1.70236
 30
0.0
 40
0.001488
 41
0.001488
  0
VERTEX
  8
0
 10
2.84896
 20
1.65989
 30
0.0
 40
0.001488
 41
0.001488
  0
VERTEX
  8
0
 10
2.8221
 20
1.595
 30
0.0
 40
0.001488
 41
0.001488
  0
VERTEX
  8
0
 10
2.80567
 20
1.52664
 30
0.0
 40
0.001488
 41
0.001488
  0
VERTEX
  8
0
 10
2.80018
 20
1.4566
 30
0.0
 40
0.001488
 41
0.001488
  0
VERTEX
  8
0
 10
2.80567
 20
1.38656
 30
0.0
 40
0.001488
 41
0.001488
  0
VERTEX
  8
0
 10
2.8221
 20
1.3182
 30
0.0
 40
0.001488
 41
0.001488
  0
VERTEX
  8
0
 10
2.84896
 20
1.25331
 30
0.0
 40
0.001488
 41
0.001488
  0
SEQEND
 8
0
  0
POLYLINE
  8
0
 62
     5
 66
     1
 10
0
 20
0
 30
0.0
 70
     1
 40
0.107136
 41
0.107136
  0
VERTEX
  8
0
 10
1.72125
 20
1.01427
 30
0.0
 40
0.001488
 41
0.001488
  0
VERTEX
  8
0
 10
1.79129
 20
1.00879
 30
0.0
 40
0.001488
 41
0.001488
  0
VERTEX
  8
0
 10
1.86128
 20
1.01427
 30
0.0
 40
0.001488
 41
0.001488
  0
VERTEX
  8
0
 10
1.90349
 20
1.02441
 30
0.0
 40
0.001488
 41
0.001488
  0
VERTEX
  8
0
 10
1.92964
 20
1.03071
 30
0.0
 40
0.001488
 41
0.001488
  0
VERTEX
  8
0
 10
1.99393
 20
1.05729
 30
0.0
 40
0.001488
 41
0.001488
  0
VERTEX
  8
0
 10
1.99457
 20
1.05756
 30
0.0
 40
0.001488
 41
0.001488
  0
VERTEX
  8
0
 10
2.05447
 20
1.09429
 30
0.0
 40
0.001488
 41
0.001488
  0
VERTEX
  8
0
 10
2.10792
 20
1.13992
 30
0.0
 40
0.001488
 41
0.001488
  0
VERTEX
  8
0
 10
2.1536
 20
1.19336
 30
0.0
 40
0.001488
 41
0.001488
  0
VERTEX
  8
0
 10
2.19026
 20
1.25331
 30
0.0
 40
0.001488
 41
0.001488
  0
VERTEX
  8
0
 10
2.21718
 20
1.3182
 30
0.0
 40
0.001488
 41
0.001488
  0
VERTEX
  8
0
 10
2.23356
 20
1.38656
 30
0.0
 40
0.001488
 41
0.001488
  0
VERTEX
  8
0
 10
2.2391
 20
1.4566
 30
0.0
 40
0.001488
 41
0.001488
  0
VERTEX
  8
0
 10
2.23356
 20
1.52664
 30
0.0
 40
0.001488
 41
0.001488
  0
VERTEX
  8
0
 10
2.21718
 20
1.595
 30
0.0
 40
0.001488
 41
0.001488
  0
VERTEX
  8
0
 10
2.19026
 20
1.65989
 30
0.0
 40
0.001488
 41
0.001488
  0
VERTEX
  8
0
 10
2.16428
 20
1.70236
 30
0.0
 40
0.001488
 41
0.001488
  0
VERTEX
  8
0
 10
2.1536
 20
1.71983
 30
0.0
 40
0.001488
 41
0.001488
  0
VERTEX
  8
0
 10
2.10792
 20
1.77328
 30
0.0
 40
0.001488
 41
0.001488
  0
VERTEX
  8
0
 10
2.05447
 20
1.8189
 30
0.0
 40
0.001488
 41
0.001488
  0
VERTEX
  8
0
 10
1.99457
 20
1.85562
 30
0.0
 40
0.001488
 41
0.001488
  0
VERTEX
  8
0
 10
1.92964
 20
1.88249
 30
0.0
 40
0.001488
 41
0.001488
  0
VERTEX
  8
0
 10
1.90349
 20
1.88878
 30
0.0
 40
0.001488
 41
0.001488
  0
VERTEX
  8
0
 10
1.86128
 20
1.89893
 30
0.0
 40
0.001488
 41
0.001488
  0
VERTEX
  8
0
 10
1.79129
 20
1.90446
 30
0.0
 40
0.001488
 41
0.001488
  0
VERTEX
  8
0
 10
1.72125
 20
1.89893
 30
0.0
 40
0.001488
 41
0.001488
  0
VERTEX
  8
0
 10
1.65289
 20
1.88249
 30
0.0
 40
0.001488
 41
0.001488
  0
VERTEX
  8
0
 10
1.58794
 20
1.85562
 30
0.0
 40
0.001488
 41
0.001488
  0
VERTEX
  8
0
 10
1.52806
 20
1.8189
 30
0.0
 40
0.001488
 41
0.001488
  0
VERTEX
  8
0
 10
1.47461
 20
1.77328
 30
0.0
 40
0.001488
 41
0.001488
  0
VERTEX
  8
0
 10
1.42893
 20
1.71983
 30
0.0
 40
0.001488
 41
0.001488
  0
VERTEX
  8
0
 10
1.41824
 20
1.70236
 30
0.0
 40
0.001488
 41
0.001488
  0
VERTEX
  8
0
 10
1.39225
 20
1.65989
 30
0.0
 40
0.001488
 41
0.001488
  0
VERTEX
  8
0
 10
1.36534
 20
1.595
 30
0.0
 40
0.001488
 41
0.001488
  0
VERTEX
  8
0
 10
1.34896
 20
1.52664
 30
0.0
 40
0.001488
 41
0.001488
  0
VERTEX
  8
0
 10
1.34343
 20
1.4566
 30
0.0
 40
0.001488
 41
0.001488
  0
VERTEX
  8
0
 10
1.34896
 20
1.38656
 30
0.0
 40
0.001488
 41
0.001488
  0
VERTEX
  8
0
 10
1.36534
 20
1.3182
 30
0.0
 40
0.001488
 41
0.001488
  0
VERTEX
  8
0
 10
1.39225
 20
1.25331
 30
0.0
 40
0.001488
 41
0.001488
  0
VERTEX
  8
0
 10
1.42893
 20
1.19336
 30
0.0
 40
0.001488
 41
0.001488
  0
VERTEX
  8
0
 10
1.47461
 20
1.13992
 30
0.0
 40
0.001488
 41
0.001488
  0
VERTEX
  8
0
 10
1.52806
 20
1.09429
 30
0.0
 40
0.001488
 41
0.001488
  0
VERTEX
  8
0
 10
1.58794
 20
1.05756
 30
0.0
 40
0.001488
 41
0.001488
  0
VERTEX
  8
0
 10
1.5886
 20
1.05729
 30
0.0
 40
0.001488
 41
0.001488
  0
VERTEX
  8
0
 10
1.65289
 20
1.03071
 30
0.0
 40
0.001488
 41
0.001488
  0
VERTEX
  8
0
 10
1.72125
 20
1.01427
 30
0.0
 40
0.001488
 41
0.001488
  0
SEQEND
 8
0
  0
POLYLINE
  8
0
 62
     5
 66
     1
 10
0
 20
0
 30
0.0
 70
     1
 40
0.107136
 41
0.107136
  0
VERTEX
  8
0
 10
5.11649
 20
7.28185
 30
0.0
 40
0.001488
 41
0.001488
  0
VERTEX
  8
0
 10
5.12864
 20
7.27138
 30
0.0
 40
0.001488
 41
0.001488
  0
VERTEX
  8
0
 10
5.16986
 20
7.23617
 30
0.0
 40
0.001488
 41
0.001488
  0
VERTEX
  8
0
 10
5.22982
 20
7.19949
 30
0.0
 40
0.001488
 41
0.001488
  0
VERTEX
  8
0
 10
5.29471
 20
7.17258
 30
0.0
 40
0.001488
 41
0.001488
  0
VERTEX
  8
0
 10
5.36307
 20
7.15614
 30
0.0
 40
0.001488
 41
0.001488
  0
VERTEX
  8
0
 10
5.43311
 20
7.15067
 30
0.0
 40
0.001488
 41
0.001488
  0
VERTEX
  8
0
 10
5.50315
 20
7.15614
 30
0.0
 40
0.001488
 41
0.001488
  0
VERTEX
  8
0
 10
5.5715
 20
7.17258
 30
0.0
 40
0.001488
 41
0.001488
  0
VERTEX
  8
0
 10
5.63639
 20
7.19949
 30
0.0
 40
0.001488
 41
0.001488
  0
VERTEX
  8
0
 10
5.6964
 20
7.23617
 30
0.0
 40
0.001488
 41
0.001488
  0
VERTEX
  8
0
 10
5.74978
 20
7.28185
 30
0.0
 40
0.001488
 41
0.001488
  0
VERTEX
  8
0
 10
5.77371
 20
7.30979
 30
0.0
 40
0.001488
 41
0.001488
  0
VERTEX
  8
0
 10
5.79546
 20
7.33529
 30
0.0
 40
0.001488
 41
0.001488
  0
VERTEX
  8
0
 10
5.83214
 20
7.39518
 30
0.0
 40
0.001488
 41
0.001488
  0
VERTEX
  8
0
 10
5.85906
 20
7.46013
 30
0.0
 40
0.001488
 41
0.001488
  0
VERTEX
  8
0
 10
5.8705
 20
7.50771
 30
0.0
 40
0.001488
 41
0.001488
  0
VERTEX
  8
0
 10
5.87549
 20
7.52843
 30
0.0
 40
0.001488
 41
0.001488
  0
VERTEX
  8
0
 10
5.88097
 20
7.59847
 30
0.0
 40
0.001488
 41
0.001488
  0
VERTEX
  8
0
 10
5.87549
 20
7.66851
 30
0.0
 40
0.001488
 41
0.001488
  0
VERTEX
  8
0
 10
5.85906
 20
7.73687
 30
0.0
 40
0.001488
 41
0.001488
  0
VERTEX
  8
0
 10
5.83214
 20
7.80181
 30
0.0
 40
0.001488
 41
0.001488
  0
VERTEX
  8
0
 10
5.79546
 20
7.86171
 30
0.0
 40
0.001488
 41
0.001488
  0
VERTEX
  8
0
 10
5.77371
 20
7.88721
 30
0.0
 40
0.001488
 41
0.001488
  0
VERTEX
  8
0
 10
5.74978
 20
7.91515
 30
0.0
 40
0.001488
 41
0.001488
  0
VERTEX
  8
0
 10
5.6964
 20
7.96083
 30
0.0
 40
0.001488
 41
0.001488
  0
VERTEX
  8
0
 10
5.63639
 20
7.9975
 30
0.0
 40
0.001488
 41
0.001488
  0
VERTEX
  8
0
 10
5.5715
 20
8.02442
 30
0.0
 40
0.001488
 41
0.001488
  0
VERTEX
  8
0
 10
5.50315
 20
8.04081
 30
0.0
 40
0.001488
 41
0.001488
  0
VERTEX
  8
0
 10
5.43311
 20
8.04633
 30
0.0
 40
0.001488
 41
0.001488
  0
VERTEX
  8
0
 10
5.36307
 20
8.04081
 30
0.0
 40
0.001488
 41
0.001488
  0
VERTEX
  8
0
 10
5.29471
 20
8.02442
 30
0.0
 40
0.001488
 41
0.001488
  0
VERTEX
  8
0
 10
5.22982
 20
7.9975
 30
0.0
 40
0.001488
 41
0.001488
  0
VERTEX
  8
0
 10
5.16986
 20
7.96083
 30
0.0
 40
0.001488
 41
0.001488
  0
VERTEX
  8
0
 10
5.12864
 20
7.92557
 30
0.0
 40
0.001488
 41
0.001488
  0
VERTEX
  8
0
 10
5.11649
 20
7.91515
 30
0.0
 40
0.001488
 41
0.001488
  0
VERTEX
  8
0
 10
5.07081
 20
7.86171
 30
0.0
 40
0.001488
 41
0.001488
  0
VERTEX
  8
0
 10
5.03407
 20
7.80181
 30
0.0
 40
0.001488
 41
0.001488
  0
VERTEX
  8
0
 10
5.00722
 20
7.73687
 30
0.0
 40
0.001488
 41
0.001488
  0
VERTEX
  8
0
 10
4.99078
 20
7.66851
 30
0.0
 40
0.001488
 41
0.001488
  0
VERTEX
  8
0
 10
4.98529
 20
7.59847
 30
0.0
 40
0.001488
 41
0.001488
  0
VERTEX
  8
0
 10
4.99078
 20
7.52843
 30
0.0
 40
0.001488
 41
0.001488
  0
VERTEX
  8
0
 10
4.99576
 20
7.50771
 30
0.0
 40
0.001488
 41
0.001488
  0
VERTEX
  8
0
 10
5.00722
 20
7.46013
 30
0.0
 40
0.001488
 41
0.001488
  0
VERTEX
  8
0
 10
5.03407
 20
7.39518
 30
0.0
 40
0.001488
 41
0.001488
  0
VERTEX
  8
0
 10
5.07081
 20
7.33529
 30
0.0
 40
0.001488
 41
0.001488
  0
VERTEX
  8
0
 10
5.11649
 20
7.28185
 30
0.0
 40
0.001488
 41
0.001488
  0
SEQEND
 8
0
  0
ENDSEC
  0
EOF
