  0
SECTION
  2
HEADER
  9
$ACADVER
  1
AC1009
  9
$EXTMIN
 10
0.0
 20
0.0
 30
0.0
  9
$EXTMAX
 10
1000.0
 20
1000.0
 30
0.0
  9
$FILLMODE
 70
 0
  9
$SPLFRAME
 70
 1
  0
ENDSEC
  0
SECTION
  2
TABLES
  0
TABLE
  2
LAYER
 70
1
  0
LAYER
  2
0
 70
     0
 62
     7
  6
CONTINUOUS
  0
ENDTAB
  0
ENDSEC
  0
SECTION
  2
ENTITIES
  0
POLYLINE
  8
0
 62
     5
 66
     1
 10
0
 20
0
 30
0.0
 70
     1
 40
0.107136
 41
0.107136
  0
VERTEX
  8
0
 10
7.91342
 20
0.0393338
 30
0.0
 40
0.001488
 41
0.001488
  0
VERTEX
  8
0
 10
0.0393881
 20
0.0393338
 30
0.0
 40
0.001488
 41
0.001488
  0
VERTEX
  8
0
 10
0.0393881
 20
13.1102
 30
0.0
 40
0.001488
 41
0.001488
  0
VERTEX
  8
0
 10
7.91342
 20
13.1102
 30
0.0
 40
0.001488
 41
0.001488
  0
VERTEX
  8
0
 10
7.91342
 20
0.0393338
 30
0.0
 40
0.001488
 41
0.001488
  0
SEQEND
 8
0
  0
POLYLINE
  8
0
 62
     5
 66
     1
 10
0
 20
0
 30
0.0
 70
     1
 40
0.107136
 41
0.107136
  0
VERTEX
  8
0
 10
0.430122
 20
6.36751
 30
0.0
 40
0.001488
 41
0.001488
  0
VERTEX
  8
0
 10
0.445367
 20
6.39751
 30
0.0
 40
0.001488
 41
0.001488
  0
VERTEX
  8
0
 10
0.446886
 20
6.40044
 30
0.0
 40
0.001488
 41
0.001488
  0
VERTEX
  8
0
 10
0.452692
 20
6.43696
 30
0.0
 40
0.001488
 41
0.001488
  0
VERTEX
  8
0
 10
0.446886
 20
6.47353
 30
0.0
 40
0.001488
 41
0.001488
  0
VERTEX
  8
0
 10
0.430122
 20
6.50646
 30
0.0
 40
0.001488
 41
0.001488
  0
VERTEX
  8
0
 10
0.403971
 20
6.53267
 30
0.0
 40
0.001488
 41
0.001488
  0
VERTEX
  8
0
 10
0.371039
 20
6.54949
 30
0.0
 40
0.001488
 41
0.001488
  0
VERTEX
  8
0
 10
0.334581
 20
6.55528
 30
0.0
 40
0.001488
 41
0.001488
  0
VERTEX
  8
0
 10
0.298014
 20
6.54949
 30
0.0
 40
0.001488
 41
0.001488
  0
VERTEX
  8
0
 10
0.265136
 20
6.53267
 30
0.0
 40
0.001488
 41
0.001488
  0
VERTEX
  8
0
 10
0.238986
 20
6.50646
 30
0.0
 40
0.001488
 41
0.001488
  0
VERTEX
  8
0
 10
0.222222
 20
6.47353
 30
0.0
 40
0.001488
 41
0.001488
  0
VERTEX
  8
0
 10
0.216417
 20
6.43696
 30
0.0
 40
0.001488
 41
0.001488
  0
VERTEX
  8
0
 10
0.222222
 20
6.40044
 30
0.0
 40
0.001488
 41
0.001488
  0
VERTEX
  8
0
 10
0.223742
 20
6.39751
 30
0.0
 40
0.001488
 41
0.001488
  0
VERTEX
  8
0
 10
0.238986
 20
6.36751
 30
0.0
 40
0.001488
 41
0.001488
  0
VERTEX
  8
0
 10
0.265136
 20
6.34142
 30
0.0
 40
0.001488
 41
0.001488
  0
VERTEX
  8
0
 10
0.298014
 20
6.3246
 30
0.0
 40
0.001488
 41
0.001488
  0
VERTEX
  8
0
 10
0.334581
 20
6.31885
 30
0.0
 40
0.001488
 41
0.001488
  0
VERTEX
  8
0
 10
0.371039
 20
6.3246
 30
0.0
 40
0.001488
 41
0.001488
  0
VERTEX
  8
0
 10
0.403971
 20
6.34142
 30
0.0
 40
0.001488
 41
0.001488
  0
VERTEX
  8
0
 10
0.430122
 20
6.36751
 30
0.0
 40
0.001488
 41
0.001488
  0
SEQEND
 8
0
  0
POLYLINE
  8
0
 62
     5
 66
     1
 10
0
 20
0
 30
0.0
 70
     1
 40
0.107136
 41
0.107136
  0
VERTEX
  8
0
 10
0.371039
 20
0.958931
 30
0.0
 40
0.001488
 41
0.001488
  0
VERTEX
  8
0
 10
0.334581
 20
0.964681
 30
0.0
 40
0.001488
 41
0.001488
  0
VERTEX
  8
0
 10
0.298014
 20
0.958931
 30
0.0
 40
0.001488
 41
0.001488
  0
VERTEX
  8
0
 10
0.265136
 20
0.942111
 30
0.0
 40
0.001488
 41
0.001488
  0
VERTEX
  8
0
 10
0.238986
 20
0.915961
 30
0.0
 40
0.001488
 41
0.001488
  0
VERTEX
  8
0
 10
0.238336
 20
0.91466
 30
0.0
 40
0.001488
 41
0.001488
  0
VERTEX
  8
0
 10
0.222222
 20
0.883029
 30
0.0
 40
0.001488
 41
0.001488
  0
VERTEX
  8
0
 10
0.216417
 20
0.846463
 30
0.0
 40
0.001488
 41
0.001488
  0
VERTEX
  8
0
 10
0.222222
 20
0.80995
 30
0.0
 40
0.001488
 41
0.001488
  0
VERTEX
  8
0
 10
0.238986
 20
0.777018
 30
0.0
 40
0.001488
 41
0.001488
  0
VERTEX
  8
0
 10
0.265136
 20
0.750868
 30
0.0
 40
0.001488
 41
0.001488
  0
VERTEX
  8
0
 10
0.298014
 20
0.73405
 30
0.0
 40
0.001488
 41
0.001488
  0
VERTEX
  8
0
 10
0.334581
 20
0.72819
 30
0.0
 40
0.001488
 41
0.001488
  0
VERTEX
  8
0
 10
0.371039
 20
0.73405
 30
0.0
 40
0.001488
 41
0.001488
  0
VERTEX
  8
0
 10
0.403971
 20
0.750868
 30
0.0
 40
0.001488
 41
0.001488
  0
VERTEX
  8
0
 10
0.430122
 20
0.777018
 30
0.0
 40
0.001488
 41
0.001488
  0
VERTEX
  8
0
 10
0.446886
 20
0.80995
 30
0.0
 40
0.001488
 41
0.001488
  0
VERTEX
  8
0
 10
0.452692
 20
0.846463
 30
0.0
 40
0.001488
 41
0.001488
  0
VERTEX
  8
0
 10
0.446886
 20
0.883029
 30
0.0
 40
0.001488
 41
0.001488
  0
VERTEX
  8
0
 10
0.430772
 20
0.91466
 30
0.0
 40
0.001488
 41
0.001488
  0
VERTEX
  8
0
 10
0.430122
 20
0.915961
 30
0.0
 40
0.001488
 41
0.001488
  0
VERTEX
  8
0
 10
0.403971
 20
0.942111
 30
0.0
 40
0.001488
 41
0.001488
  0
VERTEX
  8
0
 10
0.371039
 20
0.958931
 30
0.0
 40
0.001488
 41
0.001488
  0
SEQEND
 8
0
  0
POLYLINE
  8
0
 62
     5
 66
     1
 10
0
 20
0
 30
0.0
 70
     1
 40
0.107136
 41
0.107136
  0
VERTEX
  8
0
 10
3.86393
 20
12.8515
 30
0.0
 40
0.001488
 41
0.001488
  0
VERTEX
  8
0
 10
3.85813
 20
12.8149
 30
0.0
 40
0.001488
 41
0.001488
  0
VERTEX
  8
0
 10
3.86393
 20
12.7784
 30
0.0
 40
0.001488
 41
0.001488
  0
VERTEX
  8
0
 10
3.88075
 20
12.7454
 30
0.0
 40
0.001488
 41
0.001488
  0
VERTEX
  8
0
 10
3.9069
 20
12.7193
 30
0.0
 40
0.001488
 41
0.001488
  0
VERTEX
  8
0
 10
3.93983
 20
12.7025
 30
0.0
 40
0.001488
 41
0.001488
  0
VERTEX
  8
0
 10
3.9764
 20
12.6968
 30
0.0
 40
0.001488
 41
0.001488
  0
VERTEX
  8
0
 10
3.99983
 20
12.7005
 30
0.0
 40
0.001488
 41
0.001488
  0
VERTEX
  8
0
 10
4.01292
 20
12.7025
 30
0.0
 40
0.001488
 41
0.001488
  0
VERTEX
  8
0
 10
4.04585
 20
12.7193
 30
0.0
 40
0.001488
 41
0.001488
  0
VERTEX
  8
0
 10
4.072
 20
12.7454
 30
0.0
 40
0.001488
 41
0.001488
  0
VERTEX
  8
0
 10
4.08882
 20
12.7784
 30
0.0
 40
0.001488
 41
0.001488
  0
VERTEX
  8
0
 10
4.09462
 20
12.8149
 30
0.0
 40
0.001488
 41
0.001488
  0
VERTEX
  8
0
 10
4.08882
 20
12.8515
 30
0.0
 40
0.001488
 41
0.001488
  0
VERTEX
  8
0
 10
4.072
 20
12.8845
 30
0.0
 40
0.001488
 41
0.001488
  0
VERTEX
  8
0
 10
4.04585
 20
12.9106
 30
0.0
 40
0.001488
 41
0.001488
  0
VERTEX
  8
0
 10
4.01292
 20
12.9274
 30
0.0
 40
0.001488
 41
0.001488
  0
VERTEX
  8
0
 10
3.99983
 20
12.9294
 30
0.0
 40
0.001488
 41
0.001488
  0
VERTEX
  8
0
 10
3.9764
 20
12.9332
 30
0.0
 40
0.001488
 41
0.001488
  0
VERTEX
  8
0
 10
3.93983
 20
12.9274
 30
0.0
 40
0.001488
 41
0.001488
  0
VERTEX
  8
0
 10
3.9069
 20
12.9106
 30
0.0
 40
0.001488
 41
0.001488
  0
VERTEX
  8
0
 10
3.88075
 20
12.8845
 30
0.0
 40
0.001488
 41
0.001488
  0
VERTEX
  8
0
 10
3.86393
 20
12.8515
 30
0.0
 40
0.001488
 41
0.001488
  0
SEQEND
 8
0
  0
POLYLINE
  8
0
 62
     5
 66
     1
 10
0
 20
0
 30
0.0
 70
     1
 40
0.107136
 41
0.107136
  0
VERTEX
  8
0
 10
7.5816
 20
11.9151
 30
0.0
 40
0.001488
 41
0.001488
  0
VERTEX
  8
0
 10
7.61811
 20
11.9094
 30
0.0
 40
0.001488
 41
0.001488
  0
VERTEX
  8
0
 10
7.65462
 20
11.9151
 30
0.0
 40
0.001488
 41
0.001488
  0
VERTEX
  8
0
 10
7.68761
 20
11.932
 30
0.0
 40
0.001488
 41
0.001488
  0
VERTEX
  8
0
 10
7.71376
 20
11.9581
 30
0.0
 40
0.001488
 41
0.001488
  0
VERTEX
  8
0
 10
7.73058
 20
11.991
 30
0.0
 40
0.001488
 41
0.001488
  0
VERTEX
  8
0
 10
7.73633
 20
12.0276
 30
0.0
 40
0.001488
 41
0.001488
  0
VERTEX
  8
0
 10
7.7341
 20
12.0416
 30
0.0
 40
0.001488
 41
0.001488
  0
VERTEX
  8
0
 10
7.73058
 20
12.0641
 30
0.0
 40
0.001488
 41
0.001488
  0
VERTEX
  8
0
 10
7.71376
 20
12.0971
 30
0.0
 40
0.001488
 41
0.001488
  0
VERTEX
  8
0
 10
7.68761
 20
12.1232
 30
0.0
 40
0.001488
 41
0.001488
  0
VERTEX
  8
0
 10
7.65462
 20
12.14
 30
0.0
 40
0.001488
 41
0.001488
  0
VERTEX
  8
0
 10
7.61811
 20
12.1458
 30
0.0
 40
0.001488
 41
0.001488
  0
VERTEX
  8
0
 10
7.5816
 20
12.14
 30
0.0
 40
0.001488
 41
0.001488
  0
VERTEX
  8
0
 10
7.54861
 20
12.1232
 30
0.0
 40
0.001488
 41
0.001488
  0
VERTEX
  8
0
 10
7.52246
 20
12.0971
 30
0.0
 40
0.001488
 41
0.001488
  0
VERTEX
  8
0
 10
7.50564
 20
12.0641
 30
0.0
 40
0.001488
 41
0.001488
  0
VERTEX
  8
0
 10
7.50211
 20
12.0416
 30
0.0
 40
0.001488
 41
0.001488
  0
VERTEX
  8
0
 10
7.49994
 20
12.0276
 30
0.0
 40
0.001488
 41
0.001488
  0
VERTEX
  8
0
 10
7.50564
 20
11.991
 30
0.0
 40
0.001488
 41
0.001488
  0
VERTEX
  8
0
 10
7.52246
 20
11.9581
 30
0.0
 40
0.001488
 41
0.001488
  0
VERTEX
  8
0
 10
7.54861
 20
11.932
 30
0.0
 40
0.001488
 41
0.001488
  0
VERTEX
  8
0
 10
7.5816
 20
11.9151
 30
0.0
 40
0.001488
 41
0.001488
  0
SEQEND
 8
0
  0
POLYLINE
  8
0
 62
     5
 66
     1
 10
0
 20
0
 30
0.0
 70
     1
 40
0.107136
 41
0.107136
  0
VERTEX
  8
0
 10
7.65474
 20
0.958931
 30
0.0
 40
0.001488
 41
0.001488
  0
VERTEX
  8
0
 10
7.61817
 20
0.964681
 30
0.0
 40
0.001488
 41
0.001488
  0
VERTEX
  8
0
 10
7.58171
 20
0.958931
 30
0.0
 40
0.001488
 41
0.001488
  0
VERTEX
  8
0
 10
7.54878
 20
0.942111
 30
0.0
 40
0.001488
 41
0.001488
  0
VERTEX
  8
0
 10
7.52263
 20
0.915961
 30
0.0
 40
0.001488
 41
0.001488
  0
VERTEX
  8
0
 10
7.52197
 20
0.91466
 30
0.0
 40
0.001488
 41
0.001488
  0
VERTEX
  8
0
 10
7.50586
 20
0.883029
 30
0.0
 40
0.001488
 41
0.001488
  0
VERTEX
  8
0
 10
7.50006
 20
0.846463
 30
0.0
 40
0.001488
 41
0.001488
  0
VERTEX
  8
0
 10
7.50586
 20
0.80995
 30
0.0
 40
0.001488
 41
0.001488
  0
VERTEX
  8
0
 10
7.52263
 20
0.777018
 30
0.0
 40
0.001488
 41
0.001488
  0
VERTEX
  8
0
 10
7.54878
 20
0.750868
 30
0.0
 40
0.001488
 41
0.001488
  0
VERTEX
  8
0
 10
7.58171
 20
0.73405
 30
0.0
 40
0.001488
 41
0.001488
  0
VERTEX
  8
0
 10
7.61817
 20
0.72819
 30
0.0
 40
0.001488
 41
0.001488
  0
VERTEX
  8
0
 10
7.65474
 20
0.73405
 30
0.0
 40
0.001488
 41
0.001488
  0
VERTEX
  8
0
 10
7.68767
 20
0.750868
 30
0.0
 40
0.001488
 41
0.001488
  0
VERTEX
  8
0
 10
7.71376
 20
0.777018
 30
0.0
 40
0.001488
 41
0.001488
  0
VERTEX
  8
0
 10
7.73058
 20
0.80995
 30
0.0
 40
0.001488
 41
0.001488
  0
VERTEX
  8
0
 10
7.73633
 20
0.846463
 30
0.0
 40
0.001488
 41
0.001488
  0
VERTEX
  8
0
 10
7.73058
 20
0.883029
 30
0.0
 40
0.001488
 41
0.001488
  0
VERTEX
  8
0
 10
7.71446
 20
0.91466
 30
0.0
 40
0.001488
 41
0.001488
  0
VERTEX
  8
0
 10
7.71376
 20
0.915961
 30
0.0
 40
0.001488
 41
0.001488
  0
VERTEX
  8
0
 10
7.68767
 20
0.942111
 30
0.0
 40
0.001488
 41
0.001488
  0
VERTEX
  8
0
 10
7.65474
 20
0.958931
 30
0.0
 40
0.001488
 41
0.001488
  0
SEQEND
 8
0
  0
POLYLINE
  8
0
 62
     5
 66
     1
 10
0
 20
0
 30
0.0
 70
     1
 40
0.107136
 41
0.107136
  0
VERTEX
  8
0
 10
0.447103
 20
11.991
 30
0.0
 40
0.001488
 41
0.001488
  0
VERTEX
  8
0
 10
0.452203
 20
12.0152
 30
0.0
 40
0.001488
 41
0.001488
  0
VERTEX
  8
0
 10
0.452203
 20
12.0399
 30
0.0
 40
0.001488
 41
0.001488
  0
VERTEX
  8
0
 10
0.451878
 20
12.0416
 30
0.0
 40
0.001488
 41
0.001488
  0
VERTEX
  8
0
 10
0.447103
 20
12.0641
 30
0.0
 40
0.001488
 41
0.001488
  0
VERTEX
  8
0
 10
0.437011
 20
12.0867
 30
0.0
 40
0.001488
 41
0.001488
  0
VERTEX
  8
0
 10
0.422472
 20
12.1066
 30
0.0
 40
0.001488
 41
0.001488
  0
VERTEX
  8
0
 10
0.404135
 20
12.1232
 30
0.0
 40
0.001488
 41
0.001488
  0
VERTEX
  8
0
 10
0.382704
 20
12.1355
 30
0.0
 40
0.001488
 41
0.001488
  0
VERTEX
  8
0
 10
0.359213
 20
12.1432
 30
0.0
 40
0.001488
 41
0.001488
  0
VERTEX
  8
0
 10
0.334636
 20
12.1458
 30
0.0
 40
0.001488
 41
0.001488
  0
VERTEX
  8
0
 10
0.310058
 20
12.1432
 30
0.0
 40
0.001488
 41
0.001488
  0
VERTEX
  8
0
 10
0.286567
 20
12.1355
 30
0.0
 40
0.001488
 41
0.001488
  0
VERTEX
  8
0
 10
0.265136
 20
12.1232
 30
0.0
 40
0.001488
 41
0.001488
  0
VERTEX
  8
0
 10
0.246799
 20
12.1066
 30
0.0
 40
0.001488
 41
0.001488
  0
VERTEX
  8
0
 10
0.23226
 20
12.0867
 30
0.0
 40
0.001488
 41
0.001488
  0
VERTEX
  8
0
 10
0.222222
 20
12.0641
 30
0.0
 40
0.001488
 41
0.001488
  0
VERTEX
  8
0
 10
0.217449
 20
12.0416
 30
0.0
 40
0.001488
 41
0.001488
  0
VERTEX
  8
0
 10
0.217068
 20
12.0399
 30
0.0
 40
0.001488
 41
0.001488
  0
VERTEX
  8
0
 10
0.217068
 20
12.0152
 30
0.0
 40
0.001488
 41
0.001488
  0
VERTEX
  8
0
 10
0.222222
 20
11.991
 30
0.0
 40
0.001488
 41
0.001488
  0
VERTEX
  8
0
 10
0.23226
 20
11.9685
 30
0.0
 40
0.001488
 41
0.001488
  0
VERTEX
  8
0
 10
0.246799
 20
11.9485
 30
0.0
 40
0.001488
 41
0.001488
  0
VERTEX
  8
0
 10
0.265136
 20
11.932
 30
0.0
 40
0.001488
 41
0.001488
  0
VERTEX
  8
0
 10
0.286567
 20
11.9195
 30
0.0
 40
0.001488
 41
0.001488
  0
VERTEX
  8
0
 10
0.290853
 20
11.9182
 30
0.0
 40
0.001488
 41
0.001488
  0
VERTEX
  8
0
 10
0.310058
 20
11.9119
 30
0.0
 40
0.001488
 41
0.001488
  0
VERTEX
  8
0
 10
0.334636
 20
11.9094
 30
0.0
 40
0.001488
 41
0.001488
  0
VERTEX
  8
0
 10
0.359213
 20
11.9119
 30
0.0
 40
0.001488
 41
0.001488
  0
VERTEX
  8
0
 10
0.382704
 20
11.9195
 30
0.0
 40
0.001488
 41
0.001488
  0
VERTEX
  8
0
 10
0.404135
 20
11.932
 30
0.0
 40
0.001488
 41
0.001488
  0
VERTEX
  8
0
 10
0.422472
 20
11.9485
 30
0.0
 40
0.001488
 41
0.001488
  0
VERTEX
  8
0
 10
0.437011
 20
11.9685
 30
0.0
 40
0.001488
 41
0.001488
  0
VERTEX
  8
0
 10
0.447103
 20
11.991
 30
0.0
 40
0.001488
 41
0.001488
  0
SEQEND
 8
0
  0
POLYLINE
  8
0
 62
     5
 66
     1
 10
0
 20
0
 30
0.0
 70
     1
 40
0.107136
 41
0.107136
  0
VERTEX
  8
0
 10
2.32275
 20
11.8899
 30
0.0
 40
0.001488
 41
0.001488
  0
VERTEX
  8
0
 10
1.47624
 20
11.8899
 30
0.0
 40
0.001488
 41
0.001488
  0
VERTEX
  8
0
 10
1.47624
 20
7.95281
 30
0.0
 40
0.001488
 41
0.001488
  0
VERTEX
  8
0
 10
2.32275
 20
0.984158
 30
0.0
 40
0.001488
 41
0.001488
  0
VERTEX
  8
0
 10
2.32275
 20
0.984212
 30
0.0
 40
0.001488
 41
0.001488
  0
VERTEX
  8
0
 10
5.62999
 20
0.984212
 30
0.0
 40
0.001488
 41
0.001488
  0
VERTEX
  8
0
 10
6.278
 20
6.31885
 30
0.0
 40
0.001488
 41
0.001488
  0
VERTEX
  8
0
 10
6.47646
 20
7.95281
 30
0.0
 40
0.001488
 41
0.001488
  0
VERTEX
  8
0
 10
6.47646
 20
11.8899
 30
0.0
 40
0.001488
 41
0.001488
  0
VERTEX
  8
0
 10
2.32275
 20
11.8899
 30
0.0
 40
0.001488
 41
0.001488
  0
SEQEND
 8
0
  0
POLYLINE
  8
0
 62
     5
 66
     1
 10
0
 20
0
 30
0.0
 70
     1
 40
0.107136
 41
0.107136
  0
VERTEX
  8
0
 10
7.71376
 20
6.36751
 30
0.0
 40
0.001488
 41
0.001488
  0
VERTEX
  8
0
 10
7.729
 20
6.39751
 30
0.0
 40
0.001488
 41
0.001488
  0
VERTEX
  8
0
 10
7.73058
 20
6.40044
 30
0.0
 40
0.001488
 41
0.001488
  0
VERTEX
  8
0
 10
7.73633
 20
6.43696
 30
0.0
 40
0.001488
 41
0.001488
  0
VERTEX
  8
0
 10
7.73058
 20
6.47353
 30
0.0
 40
0.001488
 41
0.001488
  0
VERTEX
  8
0
 10
7.71376
 20
6.50646
 30
0.0
 40
0.001488
 41
0.001488
  0
VERTEX
  8
0
 10
7.68767
 20
6.53267
 30
0.0
 40
0.001488
 41
0.001488
  0
VERTEX
  8
0
 10
7.65474
 20
6.54949
 30
0.0
 40
0.001488
 41
0.001488
  0
VERTEX
  8
0
 10
7.61817
 20
6.55528
 30
0.0
 40
0.001488
 41
0.001488
  0
VERTEX
  8
0
 10
7.58171
 20
6.54949
 30
0.0
 40
0.001488
 41
0.001488
  0
VERTEX
  8
0
 10
7.54878
 20
6.53267
 30
0.0
 40
0.001488
 41
0.001488
  0
VERTEX
  8
0
 10
7.52263
 20
6.50646
 30
0.0
 40
0.001488
 41
0.001488
  0
VERTEX
  8
0
 10
7.50586
 20
6.47353
 30
0.0
 40
0.001488
 41
0.001488
  0
VERTEX
  8
0
 10
7.50006
 20
6.43696
 30
0.0
 40
0.001488
 41
0.001488
  0
VERTEX
  8
0
 10
7.50586
 20
6.40044
 30
0.0
 40
0.001488
 41
0.001488
  0
VERTEX
  8
0
 10
7.50738
 20
6.39751
 30
0.0
 40
0.001488
 41
0.001488
  0
VERTEX
  8
0
 10
7.52263
 20
6.36751
 30
0.0
 40
0.001488
 41
0.001488
  0
VERTEX
  8
0
 10
7.54878
 20
6.34142
 30
0.0
 40
0.001488
 41
0.001488
  0
VERTEX
  8
0
 10
7.58171
 20
6.3246
 30
0.0
 40
0.001488
 41
0.001488
  0
VERTEX
  8
0
 10
7.61817
 20
6.31885
 30
0.0
 40
0.001488
 41
0.001488
  0
VERTEX
  8
0
 10
7.65474
 20
6.3246
 30
0.0
 40
0.001488
 41
0.001488
  0
VERTEX
  8
0
 10
7.68767
 20
6.34142
 30
0.0
 40
0.001488
 41
0.001488
  0
VERTEX
  8
0
 10
7.71376
 20
6.36751
 30
0.0
 40
0.001488
 41
0.001488
  0
SEQEND
 8
0
  0
ENDSEC
  0
EOF
