  0
SECTION
  2
HEADER
  9
$ACADVER
  1
AC1009
  9
$EXTMIN
 10
0.0
 20
0.0
 30
0.0
  9
$EXTMAX
 10
1000.0
 20
1000.0
 30
0.0
  9
$FILLMODE
 70
 0
  9
$SPLFRAME
 70
 1
  0
ENDSEC
  0
SECTION
  2
TABLES
  0
TABLE
  2
LAYER
 70
1
  0
LAYER
  2
0
 70
     0
 62
     7
  6
CONTINUOUS
  0
ENDTAB
  0
ENDSEC
  0
SECTION
  2
ENTITIES
  0
POLYLINE
  8
0
 62
     5
 66
     1
 10
0
 20
0
 30
0.0
 70
     1
 40
0.107136
 41
0.107136
  0
VERTEX
  8
0
 10
3.48415
 20
19.8426
 30
0.0
 40
0.001488
 41
0.001488
  0
VERTEX
  8
0
 10
1.27941
 20
19.8426
 30
0.0
 40
0.001488
 41
0.001488
  0
VERTEX
  8
0
 10
1.27941
 20
14.6456
 30
0.0
 40
0.001488
 41
0.001488
  0
VERTEX
  8
0
 10
3.48415
 20
14.6456
 30
0.0
 40
0.001488
 41
0.001488
  0
VERTEX
  8
0
 10
3.48415
 20
6.3781
 30
0.0
 40
0.001488
 41
0.001488
  0
VERTEX
  8
0
 10
2.69678
 20
6.3781
 30
0.0
 40
0.001488
 41
0.001488
  0
VERTEX
  8
0
 10
2.69678
 20
5.51188
 30
0.0
 40
0.001488
 41
0.001488
  0
VERTEX
  8
0
 10
2.12592
 20
5.51188
 30
0.0
 40
0.001488
 41
0.001488
  0
VERTEX
  8
0
 10
2.12592
 20
4.33062
 30
0.0
 40
0.001488
 41
0.001488
  0
VERTEX
  8
0
 10
2.69678
 20
4.33062
 30
0.0
 40
0.001488
 41
0.001488
  0
VERTEX
  8
0
 10
2.69678
 20
0.0393881
 30
0.0
 40
0.001488
 41
0.001488
  0
VERTEX
  8
0
 10
0.0393881
 20
0.0393881
 30
0.0
 40
0.001488
 41
0.001488
  0
VERTEX
  8
0
 10
0.0393881
 20
22.2835
 30
0.0
 40
0.001488
 41
0.001488
  0
VERTEX
  8
0
 10
3.48415
 20
22.2835
 30
0.0
 40
0.001488
 41
0.001488
  0
VERTEX
  8
0
 10
3.48415
 20
19.8426
 30
0.0
 40
0.001488
 41
0.001488
  0
SEQEND
 8
0
  0
POLYLINE
  8
0
 62
     5
 66
     1
 10
0
 20
0
 30
0.0
 70
     1
 40
0.107136
 41
0.107136
  0
VERTEX
  8
0
 10
0.4528
 20
1.12196
 30
0.0
 40
0.001488
 41
0.001488
  0
VERTEX
  8
0
 10
0.452854
 20
1.12202
 30
0.0
 40
0.001488
 41
0.001488
  0
VERTEX
  8
0
 10
0.447049
 20
1.15864
 30
0.0
 40
0.001488
 41
0.001488
  0
VERTEX
  8
0
 10
0.446994
 20
1.15869
 30
0.0
 40
0.001488
 41
0.001488
  0
VERTEX
  8
0
 10
0.430285
 20
1.19157
 30
0.0
 40
0.001488
 41
0.001488
  0
VERTEX
  8
0
 10
0.404135
 20
1.21772
 30
0.0
 40
0.001488
 41
0.001488
  0
VERTEX
  8
0
 10
0.403754
 20
1.21788
 30
0.0
 40
0.001488
 41
0.001488
  0
VERTEX
  8
0
 10
0.371203
 20
1.23448
 30
0.0
 40
0.001488
 41
0.001488
  0
VERTEX
  8
0
 10
0.370714
 20
1.23454
 30
0.0
 40
0.001488
 41
0.001488
  0
VERTEX
  8
0
 10
0.363172
 20
1.23573
 30
0.0
 40
0.001488
 41
0.001488
  0
VERTEX
  8
0
 10
0.335883
 20
1.24002
 30
0.0
 40
0.001488
 41
0.001488
  0
VERTEX
  8
0
 10
0.334636
 20
1.24029
 30
0.0
 40
0.001488
 41
0.001488
  0
VERTEX
  8
0
 10
0.333388
 20
1.24002
 30
0.0
 40
0.001488
 41
0.001488
  0
VERTEX
  8
0
 10
0.298122
 20
1.23448
 30
0.0
 40
0.001488
 41
0.001488
  0
VERTEX
  8
0
 10
0.297689
 20
1.23421
 30
0.0
 40
0.001488
 41
0.001488
  0
VERTEX
  8
0
 10
0.265136
 20
1.21772
 30
0.0
 40
0.001488
 41
0.001488
  0
VERTEX
  8
0
 10
0.264757
 20
1.21723
 30
0.0
 40
0.001488
 41
0.001488
  0
VERTEX
  8
0
 10
0.23904
 20
1.19157
 30
0.0
 40
0.001488
 41
0.001488
  0
VERTEX
  8
0
 10
0.238878
 20
1.19119
 30
0.0
 40
0.001488
 41
0.001488
  0
VERTEX
  8
0
 10
0.222222
 20
1.15864
 30
0.0
 40
0.001488
 41
0.001488
  0
VERTEX
  8
0
 10
0.222168
 20
1.15831
 30
0.0
 40
0.001488
 41
0.001488
  0
VERTEX
  8
0
 10
0.216417
 20
1.12202
 30
0.0
 40
0.001488
 41
0.001488
  0
VERTEX
  8
0
 10
0.216417
 20
1.12191
 30
0.0
 40
0.001488
 41
0.001488
  0
VERTEX
  8
0
 10
0.222222
 20
1.08539
 30
0.0
 40
0.001488
 41
0.001488
  0
VERTEX
  8
0
 10
0.23904
 20
1.05252
 30
0.0
 40
0.001488
 41
0.001488
  0
VERTEX
  8
0
 10
0.265136
 20
1.02637
 30
0.0
 40
0.001488
 41
0.001488
  0
VERTEX
  8
0
 10
0.298122
 20
1.0096
 30
0.0
 40
0.001488
 41
0.001488
  0
VERTEX
  8
0
 10
0.334636
 20
1.0038
 30
0.0
 40
0.001488
 41
0.001488
  0
VERTEX
  8
0
 10
0.363172
 20
1.0083
 30
0.0
 40
0.001488
 41
0.001488
  0
VERTEX
  8
0
 10
0.371203
 20
1.0096
 30
0.0
 40
0.001488
 41
0.001488
  0
VERTEX
  8
0
 10
0.404135
 20
1.02637
 30
0.0
 40
0.001488
 41
0.001488
  0
VERTEX
  8
0
 10
0.430285
 20
1.05252
 30
0.0
 40
0.001488
 41
0.001488
  0
VERTEX
  8
0
 10
0.447049
 20
1.08539
 30
0.0
 40
0.001488
 41
0.001488
  0
VERTEX
  8
0
 10
0.452854
 20
1.12191
 30
0.0
 40
0.001488
 41
0.001488
  0
VERTEX
  8
0
 10
0.4528
 20
1.12196
 30
0.0
 40
0.001488
 41
0.001488
  0
SEQEND
 8
0
  0
POLYLINE
  8
0
 62
     5
 66
     1
 10
0
 20
0
 30
0.0
 70
     1
 40
0.107136
 41
0.107136
  0
VERTEX
  8
0
 10
1.18392
 20
21.8757
 30
0.0
 40
0.001488
 41
0.001488
  0
VERTEX
  8
0
 10
1.22049
 20
21.87
 30
0.0
 40
0.001488
 41
0.001488
  0
VERTEX
  8
0
 10
1.257
 20
21.8757
 30
0.0
 40
0.001488
 41
0.001488
  0
VERTEX
  8
0
 10
1.28998
 20
21.8926
 30
0.0
 40
0.001488
 41
0.001488
  0
VERTEX
  8
0
 10
1.31608
 20
21.9186
 30
0.0
 40
0.001488
 41
0.001488
  0
VERTEX
  8
0
 10
1.3329
 20
21.9517
 30
0.0
 40
0.001488
 41
0.001488
  0
VERTEX
  8
0
 10
1.3387
 20
21.9882
 30
0.0
 40
0.001488
 41
0.001488
  0
VERTEX
  8
0
 10
1.3335
 20
22.0211
 30
0.0
 40
0.001488
 41
0.001488
  0
VERTEX
  8
0
 10
1.3329
 20
22.0247
 30
0.0
 40
0.001488
 41
0.001488
  0
VERTEX
  8
0
 10
1.31608
 20
22.0576
 30
0.0
 40
0.001488
 41
0.001488
  0
VERTEX
  8
0
 10
1.28998
 20
22.0838
 30
0.0
 40
0.001488
 41
0.001488
  0
VERTEX
  8
0
 10
1.257
 20
22.1006
 30
0.0
 40
0.001488
 41
0.001488
  0
VERTEX
  8
0
 10
1.22049
 20
22.1064
 30
0.0
 40
0.001488
 41
0.001488
  0
VERTEX
  8
0
 10
1.18392
 20
22.1006
 30
0.0
 40
0.001488
 41
0.001488
  0
VERTEX
  8
0
 10
1.15099
 20
22.0838
 30
0.0
 40
0.001488
 41
0.001488
  0
VERTEX
  8
0
 10
1.1416
 20
22.0744
 30
0.0
 40
0.001488
 41
0.001488
  0
VERTEX
  8
0
 10
1.12484
 20
22.0576
 30
0.0
 40
0.001488
 41
0.001488
  0
VERTEX
  8
0
 10
1.10802
 20
22.0247
 30
0.0
 40
0.001488
 41
0.001488
  0
VERTEX
  8
0
 10
1.10748
 20
22.0211
 30
0.0
 40
0.001488
 41
0.001488
  0
VERTEX
  8
0
 10
1.10227
 20
21.9882
 30
0.0
 40
0.001488
 41
0.001488
  0
VERTEX
  8
0
 10
1.10802
 20
21.9517
 30
0.0
 40
0.001488
 41
0.001488
  0
VERTEX
  8
0
 10
1.12484
 20
21.9186
 30
0.0
 40
0.001488
 41
0.001488
  0
VERTEX
  8
0
 10
1.15099
 20
21.8926
 30
0.0
 40
0.001488
 41
0.001488
  0
VERTEX
  8
0
 10
1.18392
 20
21.8757
 30
0.0
 40
0.001488
 41
0.001488
  0
SEQEND
 8
0
  0
POLYLINE
  8
0
 62
     5
 66
     1
 10
0
 20
0
 30
0.0
 70
     1
 40
0.107136
 41
0.107136
  0
VERTEX
  8
0
 10
1.90662
 20
0.404135
 30
0.0
 40
0.001488
 41
0.001488
  0
VERTEX
  8
0
 10
1.88053
 20
0.430231
 30
0.0
 40
0.001488
 41
0.001488
  0
VERTEX
  8
0
 10
1.84754
 20
0.446994
 30
0.0
 40
0.001488
 41
0.001488
  0
VERTEX
  8
0
 10
1.81104
 20
0.4528
 30
0.0
 40
0.001488
 41
0.001488
  0
VERTEX
  8
0
 10
1.77447
 20
0.446994
 30
0.0
 40
0.001488
 41
0.001488
  0
VERTEX
  8
0
 10
1.74154
 20
0.430231
 30
0.0
 40
0.001488
 41
0.001488
  0
VERTEX
  8
0
 10
1.72353
 20
0.412272
 30
0.0
 40
0.001488
 41
0.001488
  0
VERTEX
  8
0
 10
1.71539
 20
0.404135
 30
0.0
 40
0.001488
 41
0.001488
  0
VERTEX
  8
0
 10
1.69857
 20
0.371149
 30
0.0
 40
0.001488
 41
0.001488
  0
VERTEX
  8
0
 10
1.69282
 20
0.33469
 30
0.0
 40
0.001488
 41
0.001488
  0
VERTEX
  8
0
 10
1.69857
 20
0.298122
 30
0.0
 40
0.001488
 41
0.001488
  0
VERTEX
  8
0
 10
1.71539
 20
0.265192
 30
0.0
 40
0.001488
 41
0.001488
  0
VERTEX
  8
0
 10
1.74154
 20
0.23904
 30
0.0
 40
0.001488
 41
0.001488
  0
VERTEX
  8
0
 10
1.77447
 20
0.222222
 30
0.0
 40
0.001488
 41
0.001488
  0
VERTEX
  8
0
 10
1.81104
 20
0.216471
 30
0.0
 40
0.001488
 41
0.001488
  0
VERTEX
  8
0
 10
1.81451
 20
0.217014
 30
0.0
 40
0.001488
 41
0.001488
  0
VERTEX
  8
0
 10
1.84754
 20
0.222222
 30
0.0
 40
0.001488
 41
0.001488
  0
VERTEX
  8
0
 10
1.88053
 20
0.23904
 30
0.0
 40
0.001488
 41
0.001488
  0
VERTEX
  8
0
 10
1.90662
 20
0.265192
 30
0.0
 40
0.001488
 41
0.001488
  0
VERTEX
  8
0
 10
1.92344
 20
0.298122
 30
0.0
 40
0.001488
 41
0.001488
  0
VERTEX
  8
0
 10
1.92925
 20
0.33469
 30
0.0
 40
0.001488
 41
0.001488
  0
VERTEX
  8
0
 10
1.92344
 20
0.371149
 30
0.0
 40
0.001488
 41
0.001488
  0
VERTEX
  8
0
 10
1.90662
 20
0.404135
 30
0.0
 40
0.001488
 41
0.001488
  0
SEQEND
 8
0
  0
POLYLINE
  8
0
 62
     5
 66
     1
 10
0
 20
0
 30
0.0
 70
     1
 40
0.107136
 41
0.107136
  0
VERTEX
  8
0
 10
0.298122
 20
11.049
 30
0.0
 40
0.001488
 41
0.001488
  0
VERTEX
  8
0
 10
0.334636
 20
11.0433
 30
0.0
 40
0.001488
 41
0.001488
  0
VERTEX
  8
0
 10
0.363172
 20
11.0478
 30
0.0
 40
0.001488
 41
0.001488
  0
VERTEX
  8
0
 10
0.371203
 20
11.049
 30
0.0
 40
0.001488
 41
0.001488
  0
VERTEX
  8
0
 10
0.404135
 20
11.0659
 30
0.0
 40
0.001488
 41
0.001488
  0
VERTEX
  8
0
 10
0.430285
 20
11.092
 30
0.0
 40
0.001488
 41
0.001488
  0
VERTEX
  8
0
 10
0.447049
 20
11.1249
 30
0.0
 40
0.001488
 41
0.001488
  0
VERTEX
  8
0
 10
0.452854
 20
11.1615
 30
0.0
 40
0.001488
 41
0.001488
  0
VERTEX
  8
0
 10
0.447049
 20
11.1979
 30
0.0
 40
0.001488
 41
0.001488
  0
VERTEX
  8
0
 10
0.430285
 20
11.2308
 30
0.0
 40
0.001488
 41
0.001488
  0
VERTEX
  8
0
 10
0.404135
 20
11.257
 30
0.0
 40
0.001488
 41
0.001488
  0
VERTEX
  8
0
 10
0.371203
 20
11.2738
 30
0.0
 40
0.001488
 41
0.001488
  0
VERTEX
  8
0
 10
0.363172
 20
11.2751
 30
0.0
 40
0.001488
 41
0.001488
  0
VERTEX
  8
0
 10
0.334636
 20
11.2796
 30
0.0
 40
0.001488
 41
0.001488
  0
VERTEX
  8
0
 10
0.298122
 20
11.2738
 30
0.0
 40
0.001488
 41
0.001488
  0
VERTEX
  8
0
 10
0.265136
 20
11.257
 30
0.0
 40
0.001488
 41
0.001488
  0
VERTEX
  8
0
 10
0.23904
 20
11.2308
 30
0.0
 40
0.001488
 41
0.001488
  0
VERTEX
  8
0
 10
0.222222
 20
11.1979
 30
0.0
 40
0.001488
 41
0.001488
  0
VERTEX
  8
0
 10
0.216417
 20
11.1615
 30
0.0
 40
0.001488
 41
0.001488
  0
VERTEX
  8
0
 10
0.222222
 20
11.1249
 30
0.0
 40
0.001488
 41
0.001488
  0
VERTEX
  8
0
 10
0.23904
 20
11.092
 30
0.0
 40
0.001488
 41
0.001488
  0
VERTEX
  8
0
 10
0.265136
 20
11.0659
 30
0.0
 40
0.001488
 41
0.001488
  0
VERTEX
  8
0
 10
0.298122
 20
11.049
 30
0.0
 40
0.001488
 41
0.001488
  0
SEQEND
 8
0
  0
POLYLINE
  8
0
 62
     5
 66
     1
 10
0
 20
0
 30
0.0
 70
     1
 40
0.107136
 41
0.107136
  0
VERTEX
  8
0
 10
2.63357
 20
22.0247
 30
0.0
 40
0.001488
 41
0.001488
  0
VERTEX
  8
0
 10
2.63303
 20
22.0211
 30
0.0
 40
0.001488
 41
0.001488
  0
VERTEX
  8
0
 10
2.62782
 20
21.9882
 30
0.0
 40
0.001488
 41
0.001488
  0
VERTEX
  8
0
 10
2.63357
 20
21.9517
 30
0.0
 40
0.001488
 41
0.001488
  0
VERTEX
  8
0
 10
2.65039
 20
21.9186
 30
0.0
 40
0.001488
 41
0.001488
  0
VERTEX
  8
0
 10
2.67654
 20
21.8926
 30
0.0
 40
0.001488
 41
0.001488
  0
VERTEX
  8
0
 10
2.69678
 20
21.8822
 30
0.0
 40
0.001488
 41
0.001488
  0
VERTEX
  8
0
 10
2.70947
 20
21.8757
 30
0.0
 40
0.001488
 41
0.001488
  0
VERTEX
  8
0
 10
2.71664
 20
21.8746
 30
0.0
 40
0.001488
 41
0.001488
  0
VERTEX
  8
0
 10
2.74604
 20
21.87
 30
0.0
 40
0.001488
 41
0.001488
  0
VERTEX
  8
0
 10
2.7825
 20
21.8757
 30
0.0
 40
0.001488
 41
0.001488
  0
VERTEX
  8
0
 10
2.81549
 20
21.8926
 30
0.0
 40
0.001488
 41
0.001488
  0
VERTEX
  8
0
 10
2.84164
 20
21.9186
 30
0.0
 40
0.001488
 41
0.001488
  0
VERTEX
  8
0
 10
2.8584
 20
21.9517
 30
0.0
 40
0.001488
 41
0.001488
  0
VERTEX
  8
0
 10
2.86421
 20
21.9882
 30
0.0
 40
0.001488
 41
0.001488
  0
VERTEX
  8
0
 10
2.859
 20
22.0211
 30
0.0
 40
0.001488
 41
0.001488
  0
VERTEX
  8
0
 10
2.8584
 20
22.0247
 30
0.0
 40
0.001488
 41
0.001488
  0
VERTEX
  8
0
 10
2.84164
 20
22.0576
 30
0.0
 40
0.001488
 41
0.001488
  0
VERTEX
  8
0
 10
2.81549
 20
22.0838
 30
0.0
 40
0.001488
 41
0.001488
  0
VERTEX
  8
0
 10
2.7825
 20
22.1006
 30
0.0
 40
0.001488
 41
0.001488
  0
VERTEX
  8
0
 10
2.74604
 20
22.1064
 30
0.0
 40
0.001488
 41
0.001488
  0
VERTEX
  8
0
 10
2.71664
 20
22.1017
 30
0.0
 40
0.001488
 41
0.001488
  0
VERTEX
  8
0
 10
2.70947
 20
22.1006
 30
0.0
 40
0.001488
 41
0.001488
  0
VERTEX
  8
0
 10
2.69678
 20
22.094
 30
0.0
 40
0.001488
 41
0.001488
  0
VERTEX
  8
0
 10
2.67654
 20
22.0838
 30
0.0
 40
0.001488
 41
0.001488
  0
VERTEX
  8
0
 10
2.65039
 20
22.0576
 30
0.0
 40
0.001488
 41
0.001488
  0
VERTEX
  8
0
 10
2.63357
 20
22.0247
 30
0.0
 40
0.001488
 41
0.001488
  0
SEQEND
 8
0
  0
POLYLINE
  8
0
 62
     5
 66
     1
 10
0
 20
0
 30
0.0
 70
     1
 40
0.107136
 41
0.107136
  0
VERTEX
  8
0
 10
2.83469
 20
21.26
 30
0.0
 40
0.001488
 41
0.001488
  0
VERTEX
  8
0
 10
1.1416
 20
21.26
 30
0.0
 40
0.001488
 41
0.001488
  0
VERTEX
  8
0
 10
1.1416
 20
20.1968
 30
0.0
 40
0.001488
 41
0.001488
  0
VERTEX
  8
0
 10
2.83469
 20
20.1968
 30
0.0
 40
0.001488
 41
0.001488
  0
VERTEX
  8
0
 10
3.03157
 20
20.3936
 30
0.0
 40
0.001488
 41
0.001488
  0
VERTEX
  8
0
 10
3.03157
 20
21.0631
 30
0.0
 40
0.001488
 41
0.001488
  0
VERTEX
  8
0
 10
2.83469
 20
21.26
 30
0.0
 40
0.001488
 41
0.001488
  0
SEQEND
 8
0
  0
POLYLINE
  8
0
 62
     5
 66
     1
 10
0
 20
0
 30
0.0
 70
     1
 40
0.107136
 41
0.107136
  0
VERTEX
  8
0
 10
0.363172
 20
21.3144
 30
0.0
 40
0.001488
 41
0.001488
  0
VERTEX
  8
0
 10
0.334636
 20
21.319
 30
0.0
 40
0.001488
 41
0.001488
  0
VERTEX
  8
0
 10
0.298122
 20
21.3132
 30
0.0
 40
0.001488
 41
0.001488
  0
VERTEX
  8
0
 10
0.265136
 20
21.2964
 30
0.0
 40
0.001488
 41
0.001488
  0
VERTEX
  8
0
 10
0.23904
 20
21.2703
 30
0.0
 40
0.001488
 41
0.001488
  0
VERTEX
  8
0
 10
0.222222
 20
21.2374
 30
0.0
 40
0.001488
 41
0.001488
  0
VERTEX
  8
0
 10
0.216417
 20
21.2008
 30
0.0
 40
0.001488
 41
0.001488
  0
VERTEX
  8
0
 10
0.222222
 20
21.1644
 30
0.0
 40
0.001488
 41
0.001488
  0
VERTEX
  8
0
 10
0.23904
 20
21.1315
 30
0.0
 40
0.001488
 41
0.001488
  0
VERTEX
  8
0
 10
0.265136
 20
21.1054
 30
0.0
 40
0.001488
 41
0.001488
  0
VERTEX
  8
0
 10
0.298122
 20
21.0886
 30
0.0
 40
0.001488
 41
0.001488
  0
VERTEX
  8
0
 10
0.334636
 20
21.0828
 30
0.0
 40
0.001488
 41
0.001488
  0
VERTEX
  8
0
 10
0.363172
 20
21.0872
 30
0.0
 40
0.001488
 41
0.001488
  0
VERTEX
  8
0
 10
0.371203
 20
21.0886
 30
0.0
 40
0.001488
 41
0.001488
  0
VERTEX
  8
0
 10
0.404135
 20
21.1054
 30
0.0
 40
0.001488
 41
0.001488
  0
VERTEX
  8
0
 10
0.430285
 20
21.1315
 30
0.0
 40
0.001488
 41
0.001488
  0
VERTEX
  8
0
 10
0.447049
 20
21.1644
 30
0.0
 40
0.001488
 41
0.001488
  0
VERTEX
  8
0
 10
0.452854
 20
21.2008
 30
0.0
 40
0.001488
 41
0.001488
  0
VERTEX
  8
0
 10
0.447049
 20
21.2374
 30
0.0
 40
0.001488
 41
0.001488
  0
VERTEX
  8
0
 10
0.430285
 20
21.2703
 30
0.0
 40
0.001488
 41
0.001488
  0
VERTEX
  8
0
 10
0.404135
 20
21.2964
 30
0.0
 40
0.001488
 41
0.001488
  0
VERTEX
  8
0
 10
0.371203
 20
21.3132
 30
0.0
 40
0.001488
 41
0.001488
  0
VERTEX
  8
0
 10
0.363172
 20
21.3144
 30
0.0
 40
0.001488
 41
0.001488
  0
SEQEND
 8
0
  0
ENDSEC
  0
EOF
