  0
SECTION
  2
HEADER
  9
$ACADVER
  1
AC1009
  9
$EXTMIN
 10
0.0
 20
0.0
 30
0.0
  9
$EXTMAX
 10
1000.0
 20
1000.0
 30
0.0
  9
$FILLMODE
 70
 0
  9
$SPLFRAME
 70
 1
  0
ENDSEC
  0
SECTION
  2
TABLES
  0
TABLE
  2
LAYER
 70
1
  0
LAYER
  2
0
 70
     0
 62
     7
  6
CONTINUOUS
  0
ENDTAB
  0
ENDSEC
  0
SECTION
  2
ENTITIES
  0
POLYLINE
  8
0
 62
     5
 66
     1
 10
0
 20
0
 30
0.0
 70
     1
 40
0.107136
 41
0.107136
  0
VERTEX
  8
0
 10
0.0393881
 20
0.0393881
 30
0.0
 40
0.001488
 41
0.001488
  0
VERTEX
  8
0
 10
0.0393881
 20
22.2835
 30
0.0
 40
0.001488
 41
0.001488
  0
VERTEX
  8
0
 10
7.91342
 20
22.2835
 30
0.0
 40
0.001488
 41
0.001488
  0
VERTEX
  8
0
 10
7.91342
 20
0.0393881
 30
0.0
 40
0.001488
 41
0.001488
  0
VERTEX
  8
0
 10
0.0393881
 20
0.0393881
 30
0.0
 40
0.001488
 41
0.001488
  0
SEQEND
 8
0
  0
POLYLINE
  8
0
 62
     5
 66
     1
 10
0
 20
0
 30
0.0
 70
     1
 40
0.107136
 41
0.107136
  0
VERTEX
  8
0
 10
0.298068
 20
21.3132
 30
0.0
 40
0.001488
 41
0.001488
  0
VERTEX
  8
0
 10
0.265136
 20
21.2964
 30
0.0
 40
0.001488
 41
0.001488
  0
VERTEX
  8
0
 10
0.23904
 20
21.2703
 30
0.0
 40
0.001488
 41
0.001488
  0
VERTEX
  8
0
 10
0.222222
 20
21.2374
 30
0.0
 40
0.001488
 41
0.001488
  0
VERTEX
  8
0
 10
0.216471
 20
21.2008
 30
0.0
 40
0.001488
 41
0.001488
  0
VERTEX
  8
0
 10
0.222222
 20
21.1644
 30
0.0
 40
0.001488
 41
0.001488
  0
VERTEX
  8
0
 10
0.23904
 20
21.1315
 30
0.0
 40
0.001488
 41
0.001488
  0
VERTEX
  8
0
 10
0.265136
 20
21.1054
 30
0.0
 40
0.001488
 41
0.001488
  0
VERTEX
  8
0
 10
0.298068
 20
21.0886
 30
0.0
 40
0.001488
 41
0.001488
  0
VERTEX
  8
0
 10
0.334581
 20
21.0828
 30
0.0
 40
0.001488
 41
0.001488
  0
VERTEX
  8
0
 10
0.371039
 20
21.0886
 30
0.0
 40
0.001488
 41
0.001488
  0
VERTEX
  8
0
 10
0.389703
 20
21.0979
 30
0.0
 40
0.001488
 41
0.001488
  0
VERTEX
  8
0
 10
0.403971
 20
21.1054
 30
0.0
 40
0.001488
 41
0.001488
  0
VERTEX
  8
0
 10
0.430122
 20
21.1315
 30
0.0
 40
0.001488
 41
0.001488
  0
VERTEX
  8
0
 10
0.446886
 20
21.1644
 30
0.0
 40
0.001488
 41
0.001488
  0
VERTEX
  8
0
 10
0.452692
 20
21.2008
 30
0.0
 40
0.001488
 41
0.001488
  0
VERTEX
  8
0
 10
0.446886
 20
21.2374
 30
0.0
 40
0.001488
 41
0.001488
  0
VERTEX
  8
0
 10
0.430122
 20
21.2703
 30
0.0
 40
0.001488
 41
0.001488
  0
VERTEX
  8
0
 10
0.403971
 20
21.2964
 30
0.0
 40
0.001488
 41
0.001488
  0
VERTEX
  8
0
 10
0.389703
 20
21.3036
 30
0.0
 40
0.001488
 41
0.001488
  0
VERTEX
  8
0
 10
0.371039
 20
21.3132
 30
0.0
 40
0.001488
 41
0.001488
  0
VERTEX
  8
0
 10
0.334581
 20
21.319
 30
0.0
 40
0.001488
 41
0.001488
  0
VERTEX
  8
0
 10
0.298068
 20
21.3132
 30
0.0
 40
0.001488
 41
0.001488
  0
SEQEND
 8
0
  0
POLYLINE
  8
0
 62
     5
 66
     1
 10
0
 20
0
 30
0.0
 70
     1
 40
0.107136
 41
0.107136
  0
VERTEX
  8
0
 10
3.86404
 20
0.371039
 30
0.0
 40
0.001488
 41
0.001488
  0
VERTEX
  8
0
 10
3.85829
 20
0.334581
 30
0.0
 40
0.001488
 41
0.001488
  0
VERTEX
  8
0
 10
3.86404
 20
0.298068
 30
0.0
 40
0.001488
 41
0.001488
  0
VERTEX
  8
0
 10
3.88081
 20
0.265136
 30
0.0
 40
0.001488
 41
0.001488
  0
VERTEX
  8
0
 10
3.90696
 20
0.238986
 30
0.0
 40
0.001488
 41
0.001488
  0
VERTEX
  8
0
 10
3.93739
 20
0.223469
 30
0.0
 40
0.001488
 41
0.001488
  0
VERTEX
  8
0
 10
3.93989
 20
0.222222
 30
0.0
 40
0.001488
 41
0.001488
  0
VERTEX
  8
0
 10
3.9764
 20
0.216471
 30
0.0
 40
0.001488
 41
0.001488
  0
VERTEX
  8
0
 10
4.01286
 20
0.222222
 30
0.0
 40
0.001488
 41
0.001488
  0
VERTEX
  8
0
 10
4.04579
 20
0.238986
 30
0.0
 40
0.001488
 41
0.001488
  0
VERTEX
  8
0
 10
4.07194
 20
0.265136
 30
0.0
 40
0.001488
 41
0.001488
  0
VERTEX
  8
0
 10
4.08871
 20
0.298068
 30
0.0
 40
0.001488
 41
0.001488
  0
VERTEX
  8
0
 10
4.09451
 20
0.334581
 30
0.0
 40
0.001488
 41
0.001488
  0
VERTEX
  8
0
 10
4.08871
 20
0.371039
 30
0.0
 40
0.001488
 41
0.001488
  0
VERTEX
  8
0
 10
4.07194
 20
0.403971
 30
0.0
 40
0.001488
 41
0.001488
  0
VERTEX
  8
0
 10
4.04579
 20
0.430122
 30
0.0
 40
0.001488
 41
0.001488
  0
VERTEX
  8
0
 10
4.01286
 20
0.446886
 30
0.0
 40
0.001488
 41
0.001488
  0
VERTEX
  8
0
 10
3.9764
 20
0.452692
 30
0.0
 40
0.001488
 41
0.001488
  0
VERTEX
  8
0
 10
3.93989
 20
0.446886
 30
0.0
 40
0.001488
 41
0.001488
  0
VERTEX
  8
0
 10
3.90696
 20
0.430122
 30
0.0
 40
0.001488
 41
0.001488
  0
VERTEX
  8
0
 10
3.88081
 20
0.403971
 30
0.0
 40
0.001488
 41
0.001488
  0
VERTEX
  8
0
 10
3.86404
 20
0.371039
 30
0.0
 40
0.001488
 41
0.001488
  0
SEQEND
 8
0
  0
POLYLINE
  8
0
 62
     5
 66
     1
 10
0
 20
0
 30
0.0
 70
     1
 40
0.107136
 41
0.107136
  0
VERTEX
  8
0
 10
3.8635
 20
22.0211
 30
0.0
 40
0.001488
 41
0.001488
  0
VERTEX
  8
0
 10
3.85829
 20
21.9882
 30
0.0
 40
0.001488
 41
0.001488
  0
VERTEX
  8
0
 10
3.86404
 20
21.9518
 30
0.0
 40
0.001488
 41
0.001488
  0
VERTEX
  8
0
 10
3.88081
 20
21.9189
 30
0.0
 40
0.001488
 41
0.001488
  0
VERTEX
  8
0
 10
3.90696
 20
21.8926
 30
0.0
 40
0.001488
 41
0.001488
  0
VERTEX
  8
0
 10
3.93989
 20
21.876
 30
0.0
 40
0.001488
 41
0.001488
  0
VERTEX
  8
0
 10
3.9764
 20
21.8701
 30
0.0
 40
0.001488
 41
0.001488
  0
VERTEX
  8
0
 10
4.01286
 20
21.876
 30
0.0
 40
0.001488
 41
0.001488
  0
VERTEX
  8
0
 10
4.04579
 20
21.8926
 30
0.0
 40
0.001488
 41
0.001488
  0
VERTEX
  8
0
 10
4.07194
 20
21.9189
 30
0.0
 40
0.001488
 41
0.001488
  0
VERTEX
  8
0
 10
4.08871
 20
21.9518
 30
0.0
 40
0.001488
 41
0.001488
  0
VERTEX
  8
0
 10
4.09451
 20
21.9882
 30
0.0
 40
0.001488
 41
0.001488
  0
VERTEX
  8
0
 10
4.08931
 20
22.0211
 30
0.0
 40
0.001488
 41
0.001488
  0
VERTEX
  8
0
 10
4.08871
 20
22.0247
 30
0.0
 40
0.001488
 41
0.001488
  0
VERTEX
  8
0
 10
4.07194
 20
22.0576
 30
0.0
 40
0.001488
 41
0.001488
  0
VERTEX
  8
0
 10
4.04579
 20
22.0838
 30
0.0
 40
0.001488
 41
0.001488
  0
VERTEX
  8
0
 10
4.01286
 20
22.1006
 30
0.0
 40
0.001488
 41
0.001488
  0
VERTEX
  8
0
 10
3.9764
 20
22.1064
 30
0.0
 40
0.001488
 41
0.001488
  0
VERTEX
  8
0
 10
3.93989
 20
22.1006
 30
0.0
 40
0.001488
 41
0.001488
  0
VERTEX
  8
0
 10
3.90696
 20
22.0838
 30
0.0
 40
0.001488
 41
0.001488
  0
VERTEX
  8
0
 10
3.88081
 20
22.0576
 30
0.0
 40
0.001488
 41
0.001488
  0
VERTEX
  8
0
 10
3.86404
 20
22.0247
 30
0.0
 40
0.001488
 41
0.001488
  0
VERTEX
  8
0
 10
3.8635
 20
22.0211
 30
0.0
 40
0.001488
 41
0.001488
  0
SEQEND
 8
0
  0
POLYLINE
  8
0
 62
     5
 66
     1
 10
0
 20
0
 30
0.0
 70
     1
 40
0.107136
 41
0.107136
  0
VERTEX
  8
0
 10
7.52263
 20
11.2308
 30
0.0
 40
0.001488
 41
0.001488
  0
VERTEX
  8
0
 10
7.51546
 20
11.2167
 30
0.0
 40
0.001488
 41
0.001488
  0
VERTEX
  8
0
 10
7.50586
 20
11.1979
 30
0.0
 40
0.001488
 41
0.001488
  0
VERTEX
  8
0
 10
7.50006
 20
11.1615
 30
0.0
 40
0.001488
 41
0.001488
  0
VERTEX
  8
0
 10
7.50586
 20
11.1249
 30
0.0
 40
0.001488
 41
0.001488
  0
VERTEX
  8
0
 10
7.52263
 20
11.092
 30
0.0
 40
0.001488
 41
0.001488
  0
VERTEX
  8
0
 10
7.54878
 20
11.0659
 30
0.0
 40
0.001488
 41
0.001488
  0
VERTEX
  8
0
 10
7.56922
 20
11.0554
 30
0.0
 40
0.001488
 41
0.001488
  0
VERTEX
  8
0
 10
7.58171
 20
11.049
 30
0.0
 40
0.001488
 41
0.001488
  0
VERTEX
  8
0
 10
7.61817
 20
11.0433
 30
0.0
 40
0.001488
 41
0.001488
  0
VERTEX
  8
0
 10
7.65468
 20
11.049
 30
0.0
 40
0.001488
 41
0.001488
  0
VERTEX
  8
0
 10
7.6671
 20
11.0554
 30
0.0
 40
0.001488
 41
0.001488
  0
VERTEX
  8
0
 10
7.68761
 20
11.0659
 30
0.0
 40
0.001488
 41
0.001488
  0
VERTEX
  8
0
 10
7.71376
 20
11.092
 30
0.0
 40
0.001488
 41
0.001488
  0
VERTEX
  8
0
 10
7.73058
 20
11.1249
 30
0.0
 40
0.001488
 41
0.001488
  0
VERTEX
  8
0
 10
7.73633
 20
11.1615
 30
0.0
 40
0.001488
 41
0.001488
  0
VERTEX
  8
0
 10
7.73058
 20
11.1979
 30
0.0
 40
0.001488
 41
0.001488
  0
VERTEX
  8
0
 10
7.72097
 20
11.2167
 30
0.0
 40
0.001488
 41
0.001488
  0
VERTEX
  8
0
 10
7.71376
 20
11.2308
 30
0.0
 40
0.001488
 41
0.001488
  0
VERTEX
  8
0
 10
7.68761
 20
11.257
 30
0.0
 40
0.001488
 41
0.001488
  0
VERTEX
  8
0
 10
7.65468
 20
11.2738
 30
0.0
 40
0.001488
 41
0.001488
  0
VERTEX
  8
0
 10
7.61817
 20
11.2796
 30
0.0
 40
0.001488
 41
0.001488
  0
VERTEX
  8
0
 10
7.58171
 20
11.2738
 30
0.0
 40
0.001488
 41
0.001488
  0
VERTEX
  8
0
 10
7.54878
 20
11.257
 30
0.0
 40
0.001488
 41
0.001488
  0
VERTEX
  8
0
 10
7.52263
 20
11.2308
 30
0.0
 40
0.001488
 41
0.001488
  0
SEQEND
 8
0
  0
POLYLINE
  8
0
 62
     5
 66
     1
 10
0
 20
0
 30
0.0
 70
     1
 40
0.107136
 41
0.107136
  0
VERTEX
  8
0
 10
7.61817
 20
21.0828
 30
0.0
 40
0.001488
 41
0.001488
  0
VERTEX
  8
0
 10
7.65468
 20
21.0886
 30
0.0
 40
0.001488
 41
0.001488
  0
VERTEX
  8
0
 10
7.68761
 20
21.1054
 30
0.0
 40
0.001488
 41
0.001488
  0
VERTEX
  8
0
 10
7.71376
 20
21.1315
 30
0.0
 40
0.001488
 41
0.001488
  0
VERTEX
  8
0
 10
7.73058
 20
21.1644
 30
0.0
 40
0.001488
 41
0.001488
  0
VERTEX
  8
0
 10
7.73633
 20
21.2008
 30
0.0
 40
0.001488
 41
0.001488
  0
VERTEX
  8
0
 10
7.7341
 20
21.2149
 30
0.0
 40
0.001488
 41
0.001488
  0
VERTEX
  8
0
 10
7.73058
 20
21.2374
 30
0.0
 40
0.001488
 41
0.001488
  0
VERTEX
  8
0
 10
7.71376
 20
21.2703
 30
0.0
 40
0.001488
 41
0.001488
  0
VERTEX
  8
0
 10
7.68761
 20
21.2964
 30
0.0
 40
0.001488
 41
0.001488
  0
VERTEX
  8
0
 10
7.65468
 20
21.3132
 30
0.0
 40
0.001488
 41
0.001488
  0
VERTEX
  8
0
 10
7.61817
 20
21.319
 30
0.0
 40
0.001488
 41
0.001488
  0
VERTEX
  8
0
 10
7.58171
 20
21.3132
 30
0.0
 40
0.001488
 41
0.001488
  0
VERTEX
  8
0
 10
7.54878
 20
21.2964
 30
0.0
 40
0.001488
 41
0.001488
  0
VERTEX
  8
0
 10
7.52263
 20
21.2703
 30
0.0
 40
0.001488
 41
0.001488
  0
VERTEX
  8
0
 10
7.50586
 20
21.2374
 30
0.0
 40
0.001488
 41
0.001488
  0
VERTEX
  8
0
 10
7.50228
 20
21.2149
 30
0.0
 40
0.001488
 41
0.001488
  0
VERTEX
  8
0
 10
7.50006
 20
21.2008
 30
0.0
 40
0.001488
 41
0.001488
  0
VERTEX
  8
0
 10
7.50586
 20
21.1644
 30
0.0
 40
0.001488
 41
0.001488
  0
VERTEX
  8
0
 10
7.52263
 20
21.1315
 30
0.0
 40
0.001488
 41
0.001488
  0
VERTEX
  8
0
 10
7.54878
 20
21.1054
 30
0.0
 40
0.001488
 41
0.001488
  0
VERTEX
  8
0
 10
7.58171
 20
21.0886
 30
0.0
 40
0.001488
 41
0.001488
  0
VERTEX
  8
0
 10
7.61817
 20
21.0828
 30
0.0
 40
0.001488
 41
0.001488
  0
SEQEND
 8
0
  0
POLYLINE
  8
0
 62
     5
 66
     1
 10
0
 20
0
 30
0.0
 70
     1
 40
0.107136
 41
0.107136
  0
VERTEX
  8
0
 10
0.265136
 20
11.0659
 30
0.0
 40
0.001488
 41
0.001488
  0
VERTEX
  8
0
 10
0.285644
 20
11.0554
 30
0.0
 40
0.001488
 41
0.001488
  0
VERTEX
  8
0
 10
0.298068
 20
11.049
 30
0.0
 40
0.001488
 41
0.001488
  0
VERTEX
  8
0
 10
0.334581
 20
11.0433
 30
0.0
 40
0.001488
 41
0.001488
  0
VERTEX
  8
0
 10
0.371039
 20
11.049
 30
0.0
 40
0.001488
 41
0.001488
  0
VERTEX
  8
0
 10
0.383518
 20
11.0554
 30
0.0
 40
0.001488
 41
0.001488
  0
VERTEX
  8
0
 10
0.389703
 20
11.0586
 30
0.0
 40
0.001488
 41
0.001488
  0
VERTEX
  8
0
 10
0.403971
 20
11.0659
 30
0.0
 40
0.001488
 41
0.001488
  0
VERTEX
  8
0
 10
0.430122
 20
11.092
 30
0.0
 40
0.001488
 41
0.001488
  0
VERTEX
  8
0
 10
0.446886
 20
11.1249
 30
0.0
 40
0.001488
 41
0.001488
  0
VERTEX
  8
0
 10
0.452692
 20
11.1615
 30
0.0
 40
0.001488
 41
0.001488
  0
VERTEX
  8
0
 10
0.446886
 20
11.1979
 30
0.0
 40
0.001488
 41
0.001488
  0
VERTEX
  8
0
 10
0.430122
 20
11.2308
 30
0.0
 40
0.001488
 41
0.001488
  0
VERTEX
  8
0
 10
0.403971
 20
11.257
 30
0.0
 40
0.001488
 41
0.001488
  0
VERTEX
  8
0
 10
0.389703
 20
11.2642
 30
0.0
 40
0.001488
 41
0.001488
  0
VERTEX
  8
0
 10
0.371039
 20
11.2738
 30
0.0
 40
0.001488
 41
0.001488
  0
VERTEX
  8
0
 10
0.334581
 20
11.2796
 30
0.0
 40
0.001488
 41
0.001488
  0
VERTEX
  8
0
 10
0.298068
 20
11.2738
 30
0.0
 40
0.001488
 41
0.001488
  0
VERTEX
  8
0
 10
0.265136
 20
11.257
 30
0.0
 40
0.001488
 41
0.001488
  0
VERTEX
  8
0
 10
0.23904
 20
11.2308
 30
0.0
 40
0.001488
 41
0.001488
  0
VERTEX
  8
0
 10
0.222222
 20
11.1979
 30
0.0
 40
0.001488
 41
0.001488
  0
VERTEX
  8
0
 10
0.216471
 20
11.1615
 30
0.0
 40
0.001488
 41
0.001488
  0
VERTEX
  8
0
 10
0.222222
 20
11.1249
 30
0.0
 40
0.001488
 41
0.001488
  0
VERTEX
  8
0
 10
0.23904
 20
11.092
 30
0.0
 40
0.001488
 41
0.001488
  0
VERTEX
  8
0
 10
0.265136
 20
11.0659
 30
0.0
 40
0.001488
 41
0.001488
  0
SEQEND
 8
0
  0
POLYLINE
  8
0
 62
     5
 66
     1
 10
0
 20
0
 30
0.0
 70
     1
 40
0.107136
 41
0.107136
  0
VERTEX
  8
0
 10
0.432563
 20
1.05735
 30
0.0
 40
0.001488
 41
0.001488
  0
VERTEX
  8
0
 10
0.446886
 20
1.08545
 30
0.0
 40
0.001488
 41
0.001488
  0
VERTEX
  8
0
 10
0.452692
 20
1.12196
 30
0.0
 40
0.001488
 41
0.001488
  0
VERTEX
  8
0
 10
0.446886
 20
1.15842
 30
0.0
 40
0.001488
 41
0.001488
  0
VERTEX
  8
0
 10
0.430122
 20
1.19135
 30
0.0
 40
0.001488
 41
0.001488
  0
VERTEX
  8
0
 10
0.403971
 20
1.2175
 30
0.0
 40
0.001488
 41
0.001488
  0
VERTEX
  8
0
 10
0.371039
 20
1.23427
 30
0.0
 40
0.001488
 41
0.001488
  0
VERTEX
  8
0
 10
0.334581
 20
1.24007
 30
0.0
 40
0.001488
 41
0.001488
  0
VERTEX
  8
0
 10
0.298068
 20
1.23427
 30
0.0
 40
0.001488
 41
0.001488
  0
VERTEX
  8
0
 10
0.265136
 20
1.2175
 30
0.0
 40
0.001488
 41
0.001488
  0
VERTEX
  8
0
 10
0.23904
 20
1.19135
 30
0.0
 40
0.001488
 41
0.001488
  0
VERTEX
  8
0
 10
0.222222
 20
1.15842
 30
0.0
 40
0.001488
 41
0.001488
  0
VERTEX
  8
0
 10
0.216471
 20
1.12196
 30
0.0
 40
0.001488
 41
0.001488
  0
VERTEX
  8
0
 10
0.222222
 20
1.08545
 30
0.0
 40
0.001488
 41
0.001488
  0
VERTEX
  8
0
 10
0.2366
 20
1.05735
 30
0.0
 40
0.001488
 41
0.001488
  0
VERTEX
  8
0
 10
0.23904
 20
1.05252
 30
0.0
 40
0.001488
 41
0.001488
  0
VERTEX
  8
0
 10
0.265136
 20
1.02637
 30
0.0
 40
0.001488
 41
0.001488
  0
VERTEX
  8
0
 10
0.298068
 20
1.0096
 30
0.0
 40
0.001488
 41
0.001488
  0
VERTEX
  8
0
 10
0.334581
 20
1.00385
 30
0.0
 40
0.001488
 41
0.001488
  0
VERTEX
  8
0
 10
0.371039
 20
1.0096
 30
0.0
 40
0.001488
 41
0.001488
  0
VERTEX
  8
0
 10
0.403971
 20
1.02637
 30
0.0
 40
0.001488
 41
0.001488
  0
VERTEX
  8
0
 10
0.430122
 20
1.05252
 30
0.0
 40
0.001488
 41
0.001488
  0
VERTEX
  8
0
 10
0.432563
 20
1.05735
 30
0.0
 40
0.001488
 41
0.001488
  0
SEQEND
 8
0
  0
POLYLINE
  8
0
 62
     5
 66
     1
 10
0
 20
0
 30
0.0
 70
     1
 40
0.107136
 41
0.107136
  0
VERTEX
  8
0
 10
7.50586
 20
1.08545
 30
0.0
 40
0.001488
 41
0.001488
  0
VERTEX
  8
0
 10
7.52024
 20
1.05735
 30
0.0
 40
0.001488
 41
0.001488
  0
VERTEX
  8
0
 10
7.52263
 20
1.05252
 30
0.0
 40
0.001488
 41
0.001488
  0
VERTEX
  8
0
 10
7.54878
 20
1.02637
 30
0.0
 40
0.001488
 41
0.001488
  0
VERTEX
  8
0
 10
7.58171
 20
1.0096
 30
0.0
 40
0.001488
 41
0.001488
  0
VERTEX
  8
0
 10
7.61817
 20
1.00385
 30
0.0
 40
0.001488
 41
0.001488
  0
VERTEX
  8
0
 10
7.65468
 20
1.0096
 30
0.0
 40
0.001488
 41
0.001488
  0
VERTEX
  8
0
 10
7.68761
 20
1.02637
 30
0.0
 40
0.001488
 41
0.001488
  0
VERTEX
  8
0
 10
7.71376
 20
1.05252
 30
0.0
 40
0.001488
 41
0.001488
  0
VERTEX
  8
0
 10
7.71619
 20
1.05735
 30
0.0
 40
0.001488
 41
0.001488
  0
VERTEX
  8
0
 10
7.73058
 20
1.08545
 30
0.0
 40
0.001488
 41
0.001488
  0
VERTEX
  8
0
 10
7.73633
 20
1.12196
 30
0.0
 40
0.001488
 41
0.001488
  0
VERTEX
  8
0
 10
7.73058
 20
1.15842
 30
0.0
 40
0.001488
 41
0.001488
  0
VERTEX
  8
0
 10
7.71376
 20
1.19135
 30
0.0
 40
0.001488
 41
0.001488
  0
VERTEX
  8
0
 10
7.68761
 20
1.2175
 30
0.0
 40
0.001488
 41
0.001488
  0
VERTEX
  8
0
 10
7.65468
 20
1.23427
 30
0.0
 40
0.001488
 41
0.001488
  0
VERTEX
  8
0
 10
7.61817
 20
1.24007
 30
0.0
 40
0.001488
 41
0.001488
  0
VERTEX
  8
0
 10
7.58171
 20
1.23427
 30
0.0
 40
0.001488
 41
0.001488
  0
VERTEX
  8
0
 10
7.54878
 20
1.2175
 30
0.0
 40
0.001488
 41
0.001488
  0
VERTEX
  8
0
 10
7.52263
 20
1.19135
 30
0.0
 40
0.001488
 41
0.001488
  0
VERTEX
  8
0
 10
7.50586
 20
1.15842
 30
0.0
 40
0.001488
 41
0.001488
  0
VERTEX
  8
0
 10
7.50006
 20
1.12196
 30
0.0
 40
0.001488
 41
0.001488
  0
VERTEX
  8
0
 10
7.50586
 20
1.08545
 30
0.0
 40
0.001488
 41
0.001488
  0
SEQEND
 8
0
  0
ENDSEC
  0
EOF
