  0
SECTION
  2
HEADER
  9
$ACADVER
  1
AC1009
  9
$EXTMIN
 10
0.0
 20
0.0
 30
0.0
  9
$EXTMAX
 10
1000.0
 20
1000.0
 30
0.0
  9
$FILLMODE
 70
 0
  9
$SPLFRAME
 70
 1
  0
ENDSEC
  0
SECTION
  2
TABLES
  0
TABLE
  2
LAYER
 70
1
  0
LAYER
  2
0
 70
     0
 62
     7
  6
CONTINUOUS
  0
ENDTAB
  0
ENDSEC
  0
SECTION
  2
ENTITIES
  0
POLYLINE
  8
0
 62
     5
 66
     1
 10
0
 20
0
 30
0.0
 70
     1
 40
0.107136
 41
0.107136
  0
VERTEX
  8
0
 10
0.0393881
 20
0.0393881
 30
0.0
 40
0.001488
 41
0.001488
  0
VERTEX
  8
0
 10
0.0393881
 20
22.2835
 30
0.0
 40
0.001488
 41
0.001488
  0
VERTEX
  8
0
 10
6.53543
 20
22.2835
 30
0.0
 40
0.001488
 41
0.001488
  0
VERTEX
  8
0
 10
6.53543
 20
0.0393881
 30
0.0
 40
0.001488
 41
0.001488
  0
VERTEX
  8
0
 10
0.0393881
 20
0.0393881
 30
0.0
 40
0.001488
 41
0.001488
  0
SEQEND
 8
0
  0
POLYLINE
  8
0
 62
     5
 66
     1
 10
0
 20
0
 30
0.0
 70
     1
 40
0.107136
 41
0.107136
  0
VERTEX
  8
0
 10
6.3526
 20
11.1249
 30
0.0
 40
0.001488
 41
0.001488
  0
VERTEX
  8
0
 10
6.35835
 20
11.1615
 30
0.0
 40
0.001488
 41
0.001488
  0
VERTEX
  8
0
 10
6.3526
 20
11.1979
 30
0.0
 40
0.001488
 41
0.001488
  0
VERTEX
  8
0
 10
6.33583
 20
11.2308
 30
0.0
 40
0.001488
 41
0.001488
  0
VERTEX
  8
0
 10
6.30968
 20
11.257
 30
0.0
 40
0.001488
 41
0.001488
  0
VERTEX
  8
0
 10
6.27675
 20
11.2738
 30
0.0
 40
0.001488
 41
0.001488
  0
VERTEX
  8
0
 10
6.26535
 20
11.2756
 30
0.0
 40
0.001488
 41
0.001488
  0
VERTEX
  8
0
 10
6.24024
 20
11.2796
 30
0.0
 40
0.001488
 41
0.001488
  0
VERTEX
  8
0
 10
6.20372
 20
11.2738
 30
0.0
 40
0.001488
 41
0.001488
  0
VERTEX
  8
0
 10
6.17085
 20
11.257
 30
0.0
 40
0.001488
 41
0.001488
  0
VERTEX
  8
0
 10
6.14469
 20
11.2308
 30
0.0
 40
0.001488
 41
0.001488
  0
VERTEX
  8
0
 10
6.12793
 20
11.1979
 30
0.0
 40
0.001488
 41
0.001488
  0
VERTEX
  8
0
 10
6.12213
 20
11.1615
 30
0.0
 40
0.001488
 41
0.001488
  0
VERTEX
  8
0
 10
6.12793
 20
11.1249
 30
0.0
 40
0.001488
 41
0.001488
  0
VERTEX
  8
0
 10
6.14469
 20
11.092
 30
0.0
 40
0.001488
 41
0.001488
  0
VERTEX
  8
0
 10
6.17085
 20
11.0659
 30
0.0
 40
0.001488
 41
0.001488
  0
VERTEX
  8
0
 10
6.19129
 20
11.0554
 30
0.0
 40
0.001488
 41
0.001488
  0
VERTEX
  8
0
 10
6.20372
 20
11.049
 30
0.0
 40
0.001488
 41
0.001488
  0
VERTEX
  8
0
 10
6.24024
 20
11.0433
 30
0.0
 40
0.001488
 41
0.001488
  0
VERTEX
  8
0
 10
6.27675
 20
11.049
 30
0.0
 40
0.001488
 41
0.001488
  0
VERTEX
  8
0
 10
6.28917
 20
11.0554
 30
0.0
 40
0.001488
 41
0.001488
  0
VERTEX
  8
0
 10
6.30968
 20
11.0659
 30
0.0
 40
0.001488
 41
0.001488
  0
VERTEX
  8
0
 10
6.33583
 20
11.092
 30
0.0
 40
0.001488
 41
0.001488
  0
VERTEX
  8
0
 10
6.3526
 20
11.1249
 30
0.0
 40
0.001488
 41
0.001488
  0
SEQEND
 8
0
  0
POLYLINE
  8
0
 62
     5
 66
     1
 10
0
 20
0
 30
0.0
 70
     1
 40
0.107136
 41
0.107136
  0
VERTEX
  8
0
 10
6.20372
 20
21.0886
 30
0.0
 40
0.001488
 41
0.001488
  0
VERTEX
  8
0
 10
6.24024
 20
21.0828
 30
0.0
 40
0.001488
 41
0.001488
  0
VERTEX
  8
0
 10
6.27675
 20
21.0886
 30
0.0
 40
0.001488
 41
0.001488
  0
VERTEX
  8
0
 10
6.30968
 20
21.1054
 30
0.0
 40
0.001488
 41
0.001488
  0
VERTEX
  8
0
 10
6.33583
 20
21.1315
 30
0.0
 40
0.001488
 41
0.001488
  0
VERTEX
  8
0
 10
6.3526
 20
21.1644
 30
0.0
 40
0.001488
 41
0.001488
  0
VERTEX
  8
0
 10
6.35835
 20
21.2008
 30
0.0
 40
0.001488
 41
0.001488
  0
VERTEX
  8
0
 10
6.35618
 20
21.2149
 30
0.0
 40
0.001488
 41
0.001488
  0
VERTEX
  8
0
 10
6.3526
 20
21.2374
 30
0.0
 40
0.001488
 41
0.001488
  0
VERTEX
  8
0
 10
6.33583
 20
21.2703
 30
0.0
 40
0.001488
 41
0.001488
  0
VERTEX
  8
0
 10
6.30968
 20
21.2964
 30
0.0
 40
0.001488
 41
0.001488
  0
VERTEX
  8
0
 10
6.27675
 20
21.3132
 30
0.0
 40
0.001488
 41
0.001488
  0
VERTEX
  8
0
 10
6.24024
 20
21.319
 30
0.0
 40
0.001488
 41
0.001488
  0
VERTEX
  8
0
 10
6.20372
 20
21.3132
 30
0.0
 40
0.001488
 41
0.001488
  0
VERTEX
  8
0
 10
6.17085
 20
21.2964
 30
0.0
 40
0.001488
 41
0.001488
  0
VERTEX
  8
0
 10
6.14469
 20
21.2703
 30
0.0
 40
0.001488
 41
0.001488
  0
VERTEX
  8
0
 10
6.12793
 20
21.2374
 30
0.0
 40
0.001488
 41
0.001488
  0
VERTEX
  8
0
 10
6.12435
 20
21.2149
 30
0.0
 40
0.001488
 41
0.001488
  0
VERTEX
  8
0
 10
6.12213
 20
21.2008
 30
0.0
 40
0.001488
 41
0.001488
  0
VERTEX
  8
0
 10
6.12793
 20
21.1644
 30
0.0
 40
0.001488
 41
0.001488
  0
VERTEX
  8
0
 10
6.14469
 20
21.1315
 30
0.0
 40
0.001488
 41
0.001488
  0
VERTEX
  8
0
 10
6.17085
 20
21.1054
 30
0.0
 40
0.001488
 41
0.001488
  0
VERTEX
  8
0
 10
6.20372
 20
21.0886
 30
0.0
 40
0.001488
 41
0.001488
  0
SEQEND
 8
0
  0
POLYLINE
  8
0
 62
     5
 66
     1
 10
0
 20
0
 30
0.0
 70
     1
 40
0.107136
 41
0.107136
  0
VERTEX
  8
0
 10
3.21793
 20
0.430122
 30
0.0
 40
0.001488
 41
0.001488
  0
VERTEX
  8
0
 10
3.25088
 20
0.44694
 30
0.0
 40
0.001488
 41
0.001488
  0
VERTEX
  8
0
 10
3.28737
 20
0.452692
 30
0.0
 40
0.001488
 41
0.001488
  0
VERTEX
  8
0
 10
3.32394
 20
0.44694
 30
0.0
 40
0.001488
 41
0.001488
  0
VERTEX
  8
0
 10
3.35688
 20
0.430122
 30
0.0
 40
0.001488
 41
0.001488
  0
VERTEX
  8
0
 10
3.37472
 20
0.412272
 30
0.0
 40
0.001488
 41
0.001488
  0
VERTEX
  8
0
 10
3.38303
 20
0.404025
 30
0.0
 40
0.001488
 41
0.001488
  0
VERTEX
  8
0
 10
3.39985
 20
0.371039
 30
0.0
 40
0.001488
 41
0.001488
  0
VERTEX
  8
0
 10
3.4056
 20
0.334581
 30
0.0
 40
0.001488
 41
0.001488
  0
VERTEX
  8
0
 10
3.39985
 20
0.298068
 30
0.0
 40
0.001488
 41
0.001488
  0
VERTEX
  8
0
 10
3.38303
 20
0.265136
 30
0.0
 40
0.001488
 41
0.001488
  0
VERTEX
  8
0
 10
3.35688
 20
0.238986
 30
0.0
 40
0.001488
 41
0.001488
  0
VERTEX
  8
0
 10
3.32394
 20
0.222222
 30
0.0
 40
0.001488
 41
0.001488
  0
VERTEX
  8
0
 10
3.28737
 20
0.216471
 30
0.0
 40
0.001488
 41
0.001488
  0
VERTEX
  8
0
 10
3.25088
 20
0.222222
 30
0.0
 40
0.001488
 41
0.001488
  0
VERTEX
  8
0
 10
3.21793
 20
0.238986
 30
0.0
 40
0.001488
 41
0.001488
  0
VERTEX
  8
0
 10
3.19179
 20
0.265136
 30
0.0
 40
0.001488
 41
0.001488
  0
VERTEX
  8
0
 10
3.17497
 20
0.298068
 30
0.0
 40
0.001488
 41
0.001488
  0
VERTEX
  8
0
 10
3.16917
 20
0.334581
 30
0.0
 40
0.001488
 41
0.001488
  0
VERTEX
  8
0
 10
3.17497
 20
0.371039
 30
0.0
 40
0.001488
 41
0.001488
  0
VERTEX
  8
0
 10
3.19179
 20
0.404025
 30
0.0
 40
0.001488
 41
0.001488
  0
VERTEX
  8
0
 10
3.20144
 20
0.413574
 30
0.0
 40
0.001488
 41
0.001488
  0
VERTEX
  8
0
 10
3.21793
 20
0.430122
 30
0.0
 40
0.001488
 41
0.001488
  0
SEQEND
 8
0
  0
POLYLINE
  8
0
 62
     5
 66
     1
 10
0
 20
0
 30
0.0
 70
     1
 40
0.107136
 41
0.107136
  0
VERTEX
  8
0
 10
0.450467
 20
21.2149
 30
0.0
 40
0.001488
 41
0.001488
  0
VERTEX
  8
0
 10
0.446886
 20
21.2374
 30
0.0
 40
0.001488
 41
0.001488
  0
VERTEX
  8
0
 10
0.430122
 20
21.2703
 30
0.0
 40
0.001488
 41
0.001488
  0
VERTEX
  8
0
 10
0.403971
 20
21.2964
 30
0.0
 40
0.001488
 41
0.001488
  0
VERTEX
  8
0
 10
0.371039
 20
21.3132
 30
0.0
 40
0.001488
 41
0.001488
  0
VERTEX
  8
0
 10
0.334581
 20
21.319
 30
0.0
 40
0.001488
 41
0.001488
  0
VERTEX
  8
0
 10
0.298068
 20
21.3132
 30
0.0
 40
0.001488
 41
0.001488
  0
VERTEX
  8
0
 10
0.265136
 20
21.2964
 30
0.0
 40
0.001488
 41
0.001488
  0
VERTEX
  8
0
 10
0.23904
 20
21.2703
 30
0.0
 40
0.001488
 41
0.001488
  0
VERTEX
  8
0
 10
0.222222
 20
21.2374
 30
0.0
 40
0.001488
 41
0.001488
  0
VERTEX
  8
0
 10
0.218642
 20
21.2149
 30
0.0
 40
0.001488
 41
0.001488
  0
VERTEX
  8
0
 10
0.216417
 20
21.2008
 30
0.0
 40
0.001488
 41
0.001488
  0
VERTEX
  8
0
 10
0.222222
 20
21.1644
 30
0.0
 40
0.001488
 41
0.001488
  0
VERTEX
  8
0
 10
0.23904
 20
21.1315
 30
0.0
 40
0.001488
 41
0.001488
  0
VERTEX
  8
0
 10
0.265136
 20
21.1054
 30
0.0
 40
0.001488
 41
0.001488
  0
VERTEX
  8
0
 10
0.298068
 20
21.0886
 30
0.0
 40
0.001488
 41
0.001488
  0
VERTEX
  8
0
 10
0.334581
 20
21.0828
 30
0.0
 40
0.001488
 41
0.001488
  0
VERTEX
  8
0
 10
0.371039
 20
21.0886
 30
0.0
 40
0.001488
 41
0.001488
  0
VERTEX
  8
0
 10
0.403971
 20
21.1054
 30
0.0
 40
0.001488
 41
0.001488
  0
VERTEX
  8
0
 10
0.430122
 20
21.1315
 30
0.0
 40
0.001488
 41
0.001488
  0
VERTEX
  8
0
 10
0.446886
 20
21.1644
 30
0.0
 40
0.001488
 41
0.001488
  0
VERTEX
  8
0
 10
0.452692
 20
21.2008
 30
0.0
 40
0.001488
 41
0.001488
  0
VERTEX
  8
0
 10
0.450467
 20
21.2149
 30
0.0
 40
0.001488
 41
0.001488
  0
SEQEND
 8
0
  0
POLYLINE
  8
0
 62
     5
 66
     1
 10
0
 20
0
 30
0.0
 70
     1
 40
0.107136
 41
0.107136
  0
VERTEX
  8
0
 10
6.33583
 20
1.05252
 30
0.0
 40
0.001488
 41
0.001488
  0
VERTEX
  8
0
 10
6.33826
 20
1.05735
 30
0.0
 40
0.001488
 41
0.001488
  0
VERTEX
  8
0
 10
6.3526
 20
1.08539
 30
0.0
 40
0.001488
 41
0.001488
  0
VERTEX
  8
0
 10
6.35835
 20
1.12191
 30
0.0
 40
0.001488
 41
0.001488
  0
VERTEX
  8
0
 10
6.3526
 20
1.15842
 30
0.0
 40
0.001488
 41
0.001488
  0
VERTEX
  8
0
 10
6.33583
 20
1.19135
 30
0.0
 40
0.001488
 41
0.001488
  0
VERTEX
  8
0
 10
6.30968
 20
1.21745
 30
0.0
 40
0.001488
 41
0.001488
  0
VERTEX
  8
0
 10
6.27675
 20
1.23427
 30
0.0
 40
0.001488
 41
0.001488
  0
VERTEX
  8
0
 10
6.24024
 20
1.24002
 30
0.0
 40
0.001488
 41
0.001488
  0
VERTEX
  8
0
 10
6.20372
 20
1.23427
 30
0.0
 40
0.001488
 41
0.001488
  0
VERTEX
  8
0
 10
6.17085
 20
1.21745
 30
0.0
 40
0.001488
 41
0.001488
  0
VERTEX
  8
0
 10
6.14469
 20
1.19135
 30
0.0
 40
0.001488
 41
0.001488
  0
VERTEX
  8
0
 10
6.12793
 20
1.15842
 30
0.0
 40
0.001488
 41
0.001488
  0
VERTEX
  8
0
 10
6.12213
 20
1.12191
 30
0.0
 40
0.001488
 41
0.001488
  0
VERTEX
  8
0
 10
6.12793
 20
1.08539
 30
0.0
 40
0.001488
 41
0.001488
  0
VERTEX
  8
0
 10
6.14225
 20
1.05735
 30
0.0
 40
0.001488
 41
0.001488
  0
VERTEX
  8
0
 10
6.14469
 20
1.05252
 30
0.0
 40
0.001488
 41
0.001488
  0
VERTEX
  8
0
 10
6.17085
 20
1.02637
 30
0.0
 40
0.001488
 41
0.001488
  0
VERTEX
  8
0
 10
6.20372
 20
1.0096
 30
0.0
 40
0.001488
 41
0.001488
  0
VERTEX
  8
0
 10
6.24024
 20
1.0038
 30
0.0
 40
0.001488
 41
0.001488
  0
VERTEX
  8
0
 10
6.27675
 20
1.0096
 30
0.0
 40
0.001488
 41
0.001488
  0
VERTEX
  8
0
 10
6.30968
 20
1.02637
 30
0.0
 40
0.001488
 41
0.001488
  0
VERTEX
  8
0
 10
6.33583
 20
1.05252
 30
0.0
 40
0.001488
 41
0.001488
  0
SEQEND
 8
0
  0
POLYLINE
  8
0
 62
     5
 66
     1
 10
0
 20
0
 30
0.0
 70
     1
 40
0.107136
 41
0.107136
  0
VERTEX
  8
0
 10
0.371039
 20
11.2738
 30
0.0
 40
0.001488
 41
0.001488
  0
VERTEX
  8
0
 10
0.334581
 20
11.2796
 30
0.0
 40
0.001488
 41
0.001488
  0
VERTEX
  8
0
 10
0.298068
 20
11.2738
 30
0.0
 40
0.001488
 41
0.001488
  0
VERTEX
  8
0
 10
0.265136
 20
11.257
 30
0.0
 40
0.001488
 41
0.001488
  0
VERTEX
  8
0
 10
0.23904
 20
11.2308
 30
0.0
 40
0.001488
 41
0.001488
  0
VERTEX
  8
0
 10
0.231771
 20
11.2167
 30
0.0
 40
0.001488
 41
0.001488
  0
VERTEX
  8
0
 10
0.222222
 20
11.1979
 30
0.0
 40
0.001488
 41
0.001488
  0
VERTEX
  8
0
 10
0.216417
 20
11.1615
 30
0.0
 40
0.001488
 41
0.001488
  0
VERTEX
  8
0
 10
0.222222
 20
11.1249
 30
0.0
 40
0.001488
 41
0.001488
  0
VERTEX
  8
0
 10
0.23904
 20
11.092
 30
0.0
 40
0.001488
 41
0.001488
  0
VERTEX
  8
0
 10
0.265136
 20
11.0659
 30
0.0
 40
0.001488
 41
0.001488
  0
VERTEX
  8
0
 10
0.285644
 20
11.0554
 30
0.0
 40
0.001488
 41
0.001488
  0
VERTEX
  8
0
 10
0.298068
 20
11.049
 30
0.0
 40
0.001488
 41
0.001488
  0
VERTEX
  8
0
 10
0.334581
 20
11.0433
 30
0.0
 40
0.001488
 41
0.001488
  0
VERTEX
  8
0
 10
0.371039
 20
11.049
 30
0.0
 40
0.001488
 41
0.001488
  0
VERTEX
  8
0
 10
0.383518
 20
11.0554
 30
0.0
 40
0.001488
 41
0.001488
  0
VERTEX
  8
0
 10
0.403971
 20
11.0659
 30
0.0
 40
0.001488
 41
0.001488
  0
VERTEX
  8
0
 10
0.430122
 20
11.092
 30
0.0
 40
0.001488
 41
0.001488
  0
VERTEX
  8
0
 10
0.446886
 20
11.1249
 30
0.0
 40
0.001488
 41
0.001488
  0
VERTEX
  8
0
 10
0.452692
 20
11.1615
 30
0.0
 40
0.001488
 41
0.001488
  0
VERTEX
  8
0
 10
0.446886
 20
11.1979
 30
0.0
 40
0.001488
 41
0.001488
  0
VERTEX
  8
0
 10
0.437338
 20
11.2167
 30
0.0
 40
0.001488
 41
0.001488
  0
VERTEX
  8
0
 10
0.430122
 20
11.2308
 30
0.0
 40
0.001488
 41
0.001488
  0
VERTEX
  8
0
 10
0.403971
 20
11.257
 30
0.0
 40
0.001488
 41
0.001488
  0
VERTEX
  8
0
 10
0.371039
 20
11.2738
 30
0.0
 40
0.001488
 41
0.001488
  0
SEQEND
 8
0
  0
POLYLINE
  8
0
 62
     5
 66
     1
 10
0
 20
0
 30
0.0
 70
     1
 40
0.107136
 41
0.107136
  0
VERTEX
  8
0
 10
3.19179
 20
21.9189
 30
0.0
 40
0.001488
 41
0.001488
  0
VERTEX
  8
0
 10
3.17497
 20
21.9518
 30
0.0
 40
0.001488
 41
0.001488
  0
VERTEX
  8
0
 10
3.16917
 20
21.9882
 30
0.0
 40
0.001488
 41
0.001488
  0
VERTEX
  8
0
 10
3.17497
 20
22.0247
 30
0.0
 40
0.001488
 41
0.001488
  0
VERTEX
  8
0
 10
3.19179
 20
22.0576
 30
0.0
 40
0.001488
 41
0.001488
  0
VERTEX
  8
0
 10
3.20144
 20
22.0674
 30
0.0
 40
0.001488
 41
0.001488
  0
VERTEX
  8
0
 10
3.21793
 20
22.0838
 30
0.0
 40
0.001488
 41
0.001488
  0
VERTEX
  8
0
 10
3.25088
 20
22.1006
 30
0.0
 40
0.001488
 41
0.001488
  0
VERTEX
  8
0
 10
3.28737
 20
22.1064
 30
0.0
 40
0.001488
 41
0.001488
  0
VERTEX
  8
0
 10
3.32394
 20
22.1006
 30
0.0
 40
0.001488
 41
0.001488
  0
VERTEX
  8
0
 10
3.35688
 20
22.0838
 30
0.0
 40
0.001488
 41
0.001488
  0
VERTEX
  8
0
 10
3.38303
 20
22.0576
 30
0.0
 40
0.001488
 41
0.001488
  0
VERTEX
  8
0
 10
3.39985
 20
22.0247
 30
0.0
 40
0.001488
 41
0.001488
  0
VERTEX
  8
0
 10
3.40044
 20
22.0211
 30
0.0
 40
0.001488
 41
0.001488
  0
VERTEX
  8
0
 10
3.4056
 20
21.9882
 30
0.0
 40
0.001488
 41
0.001488
  0
VERTEX
  8
0
 10
3.39985
 20
21.9518
 30
0.0
 40
0.001488
 41
0.001488
  0
VERTEX
  8
0
 10
3.38303
 20
21.9189
 30
0.0
 40
0.001488
 41
0.001488
  0
VERTEX
  8
0
 10
3.35688
 20
21.8926
 30
0.0
 40
0.001488
 41
0.001488
  0
VERTEX
  8
0
 10
3.32394
 20
21.876
 30
0.0
 40
0.001488
 41
0.001488
  0
VERTEX
  8
0
 10
3.28737
 20
21.8701
 30
0.0
 40
0.001488
 41
0.001488
  0
VERTEX
  8
0
 10
3.25088
 20
21.876
 30
0.0
 40
0.001488
 41
0.001488
  0
VERTEX
  8
0
 10
3.21793
 20
21.8926
 30
0.0
 40
0.001488
 41
0.001488
  0
VERTEX
  8
0
 10
3.19179
 20
21.9189
 30
0.0
 40
0.001488
 41
0.001488
  0
SEQEND
 8
0
  0
POLYLINE
  8
0
 62
     5
 66
     1
 10
0
 20
0
 30
0.0
 70
     1
 40
0.107136
 41
0.107136
  0
VERTEX
  8
0
 10
0.432563
 20
1.05735
 30
0.0
 40
0.001488
 41
0.001488
  0
VERTEX
  8
0
 10
0.446886
 20
1.08539
 30
0.0
 40
0.001488
 41
0.001488
  0
VERTEX
  8
0
 10
0.452692
 20
1.12191
 30
0.0
 40
0.001488
 41
0.001488
  0
VERTEX
  8
0
 10
0.446886
 20
1.15842
 30
0.0
 40
0.001488
 41
0.001488
  0
VERTEX
  8
0
 10
0.430122
 20
1.1913
 30
0.0
 40
0.001488
 41
0.001488
  0
VERTEX
  8
0
 10
0.403971
 20
1.21745
 30
0.0
 40
0.001488
 41
0.001488
  0
VERTEX
  8
0
 10
0.371039
 20
1.23421
 30
0.0
 40
0.001488
 41
0.001488
  0
VERTEX
  8
0
 10
0.334581
 20
1.24002
 30
0.0
 40
0.001488
 41
0.001488
  0
VERTEX
  8
0
 10
0.298068
 20
1.23421
 30
0.0
 40
0.001488
 41
0.001488
  0
VERTEX
  8
0
 10
0.265136
 20
1.21745
 30
0.0
 40
0.001488
 41
0.001488
  0
VERTEX
  8
0
 10
0.23904
 20
1.1913
 30
0.0
 40
0.001488
 41
0.001488
  0
VERTEX
  8
0
 10
0.222222
 20
1.15842
 30
0.0
 40
0.001488
 41
0.001488
  0
VERTEX
  8
0
 10
0.216417
 20
1.12191
 30
0.0
 40
0.001488
 41
0.001488
  0
VERTEX
  8
0
 10
0.222222
 20
1.08539
 30
0.0
 40
0.001488
 41
0.001488
  0
VERTEX
  8
0
 10
0.236546
 20
1.05735
 30
0.0
 40
0.001488
 41
0.001488
  0
VERTEX
  8
0
 10
0.23904
 20
1.05252
 30
0.0
 40
0.001488
 41
0.001488
  0
VERTEX
  8
0
 10
0.265136
 20
1.02637
 30
0.0
 40
0.001488
 41
0.001488
  0
VERTEX
  8
0
 10
0.298068
 20
1.0096
 30
0.0
 40
0.001488
 41
0.001488
  0
VERTEX
  8
0
 10
0.334581
 20
1.0038
 30
0.0
 40
0.001488
 41
0.001488
  0
VERTEX
  8
0
 10
0.371039
 20
1.0096
 30
0.0
 40
0.001488
 41
0.001488
  0
VERTEX
  8
0
 10
0.403971
 20
1.02637
 30
0.0
 40
0.001488
 41
0.001488
  0
VERTEX
  8
0
 10
0.430122
 20
1.05252
 30
0.0
 40
0.001488
 41
0.001488
  0
VERTEX
  8
0
 10
0.432563
 20
1.05735
 30
0.0
 40
0.001488
 41
0.001488
  0
SEQEND
 8
0
  0
POLYLINE
  8
0
 62
     5
 66
     1
 10
0
 20
0
 30
0.0
 70
     1
 40
0.107136
 41
0.107136
  0
VERTEX
  8
0
 10
3.16917
 20
0.216471
 30
0.0
 40
0.001488
 41
0.001488
  0
VERTEX
  8
0
 10
3.4056
 20
0.216471
 30
0.0
 40
0.001488
 41
0.001488
  0
VERTEX
  8
0
 10
3.4056
 20
0.452692
 30
0.0
 40
0.001488
 41
0.001488
  0
VERTEX
  8
0
 10
3.16917
 20
0.452692
 30
0.0
 40
0.001488
 41
0.001488
  0
VERTEX
  8
0
 10
3.16917
 20
0.216471
 30
0.0
 40
0.001488
 41
0.001488
  0
SEQEND
 8
0
  0
POLYLINE
  8
0
 62
     5
 66
     1
 10
0
 20
0
 30
0.0
 70
     1
 40
0.107136
 41
0.107136
  0
VERTEX
  8
0
 10
3.20144
 20
21.8701
 30
0.0
 40
0.001488
 41
0.001488
  0
VERTEX
  8
0
 10
3.4056
 20
21.8701
 30
0.0
 40
0.001488
 41
0.001488
  0
VERTEX
  8
0
 10
3.4056
 20
22.1064
 30
0.0
 40
0.001488
 41
0.001488
  0
VERTEX
  8
0
 10
3.16917
 20
22.1064
 30
0.0
 40
0.001488
 41
0.001488
  0
VERTEX
  8
0
 10
3.16917
 20
21.8701
 30
0.0
 40
0.001488
 41
0.001488
  0
VERTEX
  8
0
 10
3.20144
 20
21.8701
 30
0.0
 40
0.001488
 41
0.001488
  0
SEQEND
 8
0
  0
ENDSEC
  0
EOF
